Literata-M6.ufo
<glyph name="exclam" format="2">
	<unicode hex="0021"/>
	<advance width="399"/>
	<outline>
		<contour>
			<point x="178" y="228" type="line"/>
			<point x="210" y="228" type="line"/>
			<point x="210" y="287" type="line" smooth="yes"/>
			<point x="210" y="454"/>
			<point x="324" y="524"/>
			<point x="324" y="643" type="curve" smooth="yes"/>
			<point x="324" y="719"/>
			<point x="281" y="754"/>
			<point x="205" y="754" type="curve" smooth="yes"/>
			<point x="132" y="754"/>
			<point x="75" y="722"/>
			<point x="75" y="639" type="curve" smooth="yes"/>
			<point x="75" y="522"/>
			<point x="178" y="465"/>
			<point x="178" y="288" type="curve" smooth="yes"/>
		</contour>
		<contour>
			<point x="192" y="-14" type="curve" smooth="yes"/>
			<point x="246" y="-14"/>
			<point x="288" y="25"/>
			<point x="288" y="81" type="curve" smooth="yes"/>
			<point x="288" y="135"/>
			<point x="247" y="173"/>
			<point x="192" y="173" type="curve" smooth="yes"/>
			<point x="137" y="173"/>
			<point x="95" y="135"/>
			<point x="95" y="81" type="curve" smooth="yes"/>
			<point x="95" y="25"/>
			<point x="137" y="-14"/>
		</contour>
	</outline>
</glyph>
<glyph name="quotedbl" format="2">
	<unicode hex="0022"/>
	<advance width="483"/>
	<outline>
		<contour>
			<point x="136" y="469" type="line"/>
			<point x="148" y="469" type="line"/>
			<point x="204" y="637" type="line" smooth="yes"/>
			<point x="214" y="668"/>
			<point x="227" y="709"/>
			<point x="227" y="733" type="curve" smooth="yes"/>
			<point x="227" y="773"/>
			<point x="199" y="800"/>
			<point x="146" y="800" type="curve" smooth="yes"/>
			<point x="82" y="800"/>
			<point x="45" y="757"/>
			<point x="45" y="709" type="curve" smooth="yes"/>
			<point x="45" y="672"/>
			<point x="60" y="634"/>
			<point x="72" y="608" type="curve" smooth="yes"/>
		</contour>
		<contour>
			<point x="347" y="469" type="line"/>
			<point x="359" y="469" type="line"/>
			<point x="415" y="637" type="line" smooth="yes"/>
			<point x="425" y="668"/>
			<point x="438" y="709"/>
			<point x="438" y="733" type="curve" smooth="yes"/>
			<point x="438" y="773"/>
			<point x="410" y="800"/>
			<point x="357" y="800" type="curve" smooth="yes"/>
			<point x="293" y="800"/>
			<point x="256" y="757"/>
			<point x="256" y="709" type="curve" smooth="yes"/>
			<point x="256" y="672"/>
			<point x="271" y="634"/>
			<point x="283" y="608" type="curve" smooth="yes"/>
		</contour>
	</outline>
</glyph>
<glyph name="numbersign" format="2">
	<unicode hex="0023"/>
	<advance width="667"/>
	<outline>
		<contour>
			<point x="627" y="380" type="line"/>
			<point x="632" y="408" type="line"/>
			<point x="478" y="408" type="line"/>
			<point x="500" y="550" type="line"/>
			<point x="470" y="550" type="line"/>
			<point x="449" y="408" type="line"/>
			<point x="255" y="408" type="line"/>
			<point x="277" y="550" type="line"/>
			<point x="248" y="550" type="line"/>
			<point x="226" y="408" type="line"/>
			<point x="74" y="408" type="line"/>
			<point x="68" y="380" type="line"/>
			<point x="222" y="380" type="line"/>
			<point x="191" y="179" type="line"/>
			<point x="41" y="179" type="line"/>
			<point x="35" y="151" type="line"/>
			<point x="186" y="151" type="line"/>
			<point x="163" y="0" type="line"/>
			<point x="192" y="0" type="line"/>
			<point x="215" y="151" type="line"/>
			<point x="410" y="151" type="line"/>
			<point x="387" y="0" type="line"/>
			<point x="416" y="0" type="line"/>
			<point x="439" y="151" type="line"/>
			<point x="598" y="151" type="line"/>
			<point x="603" y="179" type="line"/>
			<point x="443" y="179" type="line"/>
			<point x="474" y="380" type="line"/>
		</contour>
		<contour>
			<point x="414" y="179" type="line"/>
			<point x="220" y="179" type="line"/>
			<point x="251" y="380" type="line"/>
			<point x="444" y="380" type="line"/>
		</contour>
	</outline>
</glyph>
<glyph name="dollar" format="2">
	<unicode hex="0024"/>
	<advance width="618"/>
	<outline>
		<contour>
			<point x="291" y="-80" type="line"/>
			<point x="318" y="-80" type="line"/>
			<point x="318" y="-14" type="line"/>
			<point x="443" y="-7"/>
			<point x="588" y="70"/>
			<point x="588" y="232" type="curve" smooth="yes"/>
			<point x="588" y="379"/>
			<point x="455" y="431"/>
			<point x="357" y="466" type="curve" smooth="yes"/>
			<point x="344" y="471"/>
			<point x="331" y="475"/>
			<point x="318" y="481" type="curve"/>
			<point x="318" y="727" type="line"/>
			<point x="411" y="727"/>
			<point x="471" y="668"/>
			<point x="530" y="519" type="curve"/>
			<point x="546" y="523" type="line"/>
			<point x="508" y="744" type="line"/>
			<point x="494" y="744" type="line"/>
			<point x="488" y="690" type="line"/>
			<point x="439" y="721"/>
			<point x="388" y="742"/>
			<point x="318" y="744" type="curve"/>
			<point x="318" y="818" type="line"/>
			<point x="291" y="818" type="line"/>
			<point x="291" y="744" type="line"/>
			<point x="166" y="737"/>
			<point x="32" y="657"/>
			<point x="32" y="496" type="curve" smooth="yes"/>
			<point x="32" y="344"/>
			<point x="169" y="291"/>
			<point x="241" y="266" type="curve" smooth="yes"/>
			<point x="259" y="260"/>
			<point x="276" y="254"/>
			<point x="291" y="247" type="curve"/>
			<point x="291" y="4" type="line"/>
			<point x="177" y="4"/>
			<point x="96" y="85"/>
			<point x="51" y="241" type="curve"/>
			<point x="36" y="237" type="line"/>
			<point x="47" y="-19" type="line"/>
			<point x="63" y="-19" type="line"/>
			<point x="89" y="55" type="line"/>
			<point x="155" y="9"/>
			<point x="226" y="-12"/>
			<point x="291" y="-14" type="curve"/>
		</contour>
		<contour>
			<point x="318" y="7" type="curve"/>
			<point x="318" y="236" type="line"/>
			<point x="374" y="209"/>
			<point x="407" y="177"/>
			<point x="407" y="122" type="curve" smooth="yes"/>
			<point x="407" y="60"/>
			<point x="373" y="19"/>
		</contour>
		<contour>
			<point x="291" y="492" type="line"/>
			<point x="243" y="516"/>
			<point x="207" y="550"/>
			<point x="207" y="620" type="curve" smooth="yes"/>
			<point x="207" y="682"/>
			<point x="239" y="716"/>
			<point x="291" y="725" type="curve"/>
		</contour>
	</outline>
	<anchor name="bottom" x="307" y="-30"/>
	<anchor name="top" x="305" y="730"/>
</glyph>
<glyph name="percent" format="2">
	<unicode hex="0025"/>
	<advance width="898"/>
	<outline>
		<contour>
			<point x="233" y="-14" type="line"/>
			<point x="261" y="-14" type="line"/>
			<point x="663" y="597" type="line"/>
			<point x="636" y="597" type="line"/>
		</contour>
		<contour>
			<point x="225" y="269" type="curve" smooth="yes"/>
			<point x="330" y="269"/>
			<point x="424" y="325"/>
			<point x="424" y="440" type="curve" smooth="yes"/>
			<point x="424" y="550"/>
			<point x="330" y="592"/>
			<point x="230" y="592" type="curve" smooth="yes"/>
			<point x="119" y="592"/>
			<point x="30" y="548"/>
			<point x="30" y="424" type="curve" smooth="yes"/>
			<point x="30" y="329"/>
			<point x="103" y="269"/>
		</contour>
		<contour>
			<point x="226" y="286" type="curve" smooth="yes"/>
			<point x="206" y="286"/>
			<point x="193" y="334"/>
			<point x="193" y="432" type="curve" smooth="yes"/>
			<point x="193" y="542"/>
			<point x="204" y="575"/>
			<point x="223" y="575" type="curve" smooth="yes"/>
			<point x="243" y="575"/>
			<point x="256" y="528"/>
			<point x="256" y="430" type="curve" smooth="yes"/>
			<point x="256" y="320"/>
			<point x="245" y="286"/>
		</contour>
		<contour>
			<point x="669" y="-14" type="curve" smooth="yes"/>
			<point x="774" y="-14"/>
			<point x="868" y="42"/>
			<point x="868" y="157" type="curve" smooth="yes"/>
			<point x="868" y="267"/>
			<point x="774" y="309"/>
			<point x="674" y="309" type="curve" smooth="yes"/>
			<point x="563" y="309"/>
			<point x="474" y="265"/>
			<point x="474" y="141" type="curve" smooth="yes"/>
			<point x="474" y="46"/>
			<point x="547" y="-14"/>
		</contour>
		<contour>
			<point x="670" y="3" type="curve" smooth="yes"/>
			<point x="650" y="3"/>
			<point x="637" y="51"/>
			<point x="637" y="149" type="curve" smooth="yes"/>
			<point x="637" y="259"/>
			<point x="648" y="292"/>
			<point x="667" y="292" type="curve" smooth="yes"/>
			<point x="687" y="292"/>
			<point x="700" y="245"/>
			<point x="700" y="147" type="curve" smooth="yes"/>
			<point x="700" y="37"/>
			<point x="689" y="3"/>
		</contour>
	</outline>
</glyph>
<glyph name="period" format="2">
	<unicode hex="002E"/>
	<advance width="323"/>
	<outline>
		<contour>
			<point x="162" y="-14" type="curve" smooth="yes"/>
			<point x="226" y="-14"/>
			<point x="268" y="25"/>
			<point x="268" y="81" type="curve" smooth="yes"/>
			<point x="268" y="135"/>
			<point x="227" y="173"/>
			<point x="162" y="173" type="curve" smooth="yes"/>
			<point x="97" y="173"/>
			<point x="55" y="135"/>
			<point x="55" y="81" type="curve" smooth="yes"/>
			<point x="55" y="25"/>
			<point x="97" y="-14"/>
		</contour>
	</outline>
</glyph>
<glyph name="slash" format="2">
	<unicode hex="002F"/>
	<advance width="412"/>
	<outline>
		<contour>
			<point x="0" y="-110" type="line"/>
			<point x="31" y="-110" type="line"/>
			<point x="412" y="802" type="line"/>
			<point x="382" y="802" type="line"/>
		</contour>
	</outline>
</glyph>
<glyph name="zero" format="2">
	<unicode hex="0030"/>
	<advance width="662"/>
	<outline>
		<contour>
			<point x="334" y="-11" type="curve" smooth="yes"/>
			<point x="489" y="-11"/>
			<point x="627" y="125"/>
			<point x="627" y="381" type="curve" smooth="yes"/>
			<point x="627" y="630"/>
			<point x="493" y="744"/>
			<point x="334" y="744" type="curve" smooth="yes"/>
			<point x="203" y="744"/>
			<point x="35" y="647"/>
			<point x="35" y="359" type="curve" smooth="yes"/>
			<point x="35" y="146"/>
			<point x="136" y="-11"/>
		</contour>
		<contour>
			<point x="338" y="7" type="curve" smooth="yes"/>
			<point x="298" y="7"/>
			<point x="269" y="68"/>
			<point x="269" y="376" type="curve" smooth="yes"/>
			<point x="269" y="690"/>
			<point x="289" y="726"/>
			<point x="330" y="726" type="curve" smooth="yes"/>
			<point x="367" y="726"/>
			<point x="393" y="683"/>
			<point x="393" y="366" type="curve" smooth="yes"/>
			<point x="393" y="51"/>
			<point x="385" y="7"/>
		</contour>
	</outline>
</glyph>
<glyph name="two" format="2">
	<unicode hex="0032"/>
	<advance width="604"/>
	<outline>
		<contour>
			<point x="51" y="0" type="line"/>
			<point x="535" y="0" type="line"/>
			<point x="559" y="250" type="line"/>
			<point x="543" y="250" type="line"/>
			<point x="501" y="151"/>
			<point x="490" y="138"/>
			<point x="403" y="138" type="curve" smooth="yes"/>
			<point x="89" y="138" type="line"/>
			<point x="501" y="362"/>
			<point x="558" y="435"/>
			<point x="558" y="561" type="curve" smooth="yes"/>
			<point x="558" y="653"/>
			<point x="474" y="744"/>
			<point x="300" y="744" type="curve" smooth="yes"/>
			<point x="140" y="744"/>
			<point x="35" y="662"/>
			<point x="35" y="565" type="curve" smooth="yes"/>
			<point x="35" y="509"/>
			<point x="70" y="471"/>
			<point x="128" y="471" type="curve" smooth="yes"/>
			<point x="188" y="471"/>
			<point x="213" y="511"/>
			<point x="213" y="546" type="curve" smooth="yes"/>
			<point x="213" y="575"/>
			<point x="196" y="602"/>
			<point x="125" y="678" type="curve"/>
			<point x="155" y="699"/>
			<point x="192" y="713"/>
			<point x="229" y="713" type="curve" smooth="yes"/>
			<point x="307" y="713"/>
			<point x="332" y="651"/>
			<point x="332" y="570" type="curve" smooth="yes"/>
			<point x="332" y="467"/>
			<point x="299" y="357"/>
			<point x="37" y="122" type="curve"/>
		</contour>
	</outline>
</glyph>
<glyph name="four" format="2">
	<unicode hex="0034"/>
	<advance width="664"/>
	<outline>
		<contour>
			<point x="221" y="0" type="line"/>
			<point x="623" y="0" type="line"/>
			<point x="623" y="13" type="line"/>
			<point x="584" y="17" type="line" smooth="yes"/>
			<point x="555" y="20"/>
			<point x="548" y="37"/>
			<point x="548" y="58" type="curve" smooth="yes"/>
			<point x="548" y="160" type="line"/>
			<point x="634" y="160" type="line"/>
			<point x="634" y="277" type="line"/>
			<point x="548" y="277" type="line"/>
			<point x="548" y="727" type="line"/>
			<point x="527" y="741" type="line"/>
			<point x="329" y="711" type="line"/>
			<point x="10" y="242" type="line"/>
			<point x="22" y="160" type="line"/>
			<point x="314" y="160" type="line"/>
			<point x="314" y="64" type="line" smooth="yes"/>
			<point x="314" y="33"/>
			<point x="310" y="22"/>
			<point x="272" y="18" type="curve" smooth="yes"/>
			<point x="221" y="13" type="line"/>
		</contour>
		<contour>
			<point x="60" y="277" type="line"/>
			<point x="312" y="647" type="line"/>
			<point x="314" y="647" type="line"/>
			<point x="314" y="277" type="line"/>
		</contour>
	</outline>
</glyph>
<glyph name="five" format="2">
	<unicode hex="0035"/>
	<advance width="567"/>
	<outline>
		<contour>
			<point x="244" y="-14" type="curve" smooth="yes"/>
			<point x="388" y="-14"/>
			<point x="527" y="55"/>
			<point x="527" y="229" type="curve" smooth="yes"/>
			<point x="527" y="382"/>
			<point x="419" y="446"/>
			<point x="295" y="446" type="curve" smooth="yes"/>
			<point x="211" y="446"/>
			<point x="143" y="414"/>
			<point x="86" y="370" type="curve"/>
			<point x="114" y="588" type="line"/>
			<point x="485" y="588" type="line"/>
			<point x="510" y="708" type="line"/>
			<point x="509" y="730" type="line"/>
			<point x="106" y="731" type="line"/>
			<point x="62" y="351" type="line"/>
			<point x="75" y="339" type="line"/>
			<point x="110" y="362"/>
			<point x="143" y="372"/>
			<point x="177" y="372" type="curve" smooth="yes"/>
			<point x="257" y="372"/>
			<point x="294" y="322"/>
			<point x="294" y="212" type="curve" smooth="yes"/>
			<point x="294" y="95"/>
			<point x="249" y="30"/>
			<point x="174" y="30" type="curve" smooth="yes"/>
			<point x="118" y="30"/>
			<point x="67" y="63"/>
			<point x="23" y="124" type="curve"/>
			<point x="10" y="117" type="line"/>
			<point x="70" y="5"/>
			<point x="165" y="-14"/>
		</contour>
	</outline>
</glyph>
<glyph name="six" format="2">
	<unicode hex="0036"/>
	<advance width="634"/>
	<outline>
		<contour>
			<point x="326" y="-14" type="curve" smooth="yes"/>
			<point x="500" y="-14"/>
			<point x="611" y="81"/>
			<point x="611" y="240" type="curve" smooth="yes"/>
			<point x="611" y="380"/>
			<point x="526" y="444"/>
			<point x="412" y="444" type="curve" smooth="yes"/>
			<point x="345" y="444"/>
			<point x="297" y="425"/>
			<point x="266" y="384" type="curve"/>
			<point x="286" y="660"/>
			<point x="338" y="726"/>
			<point x="413" y="726" type="curve" smooth="yes"/>
			<point x="445" y="726"/>
			<point x="483" y="717"/>
			<point x="507" y="704" type="curve"/>
			<point x="454" y="628"/>
			<point x="442" y="602"/>
			<point x="443" y="574" type="curve" smooth="yes"/>
			<point x="444" y="543"/>
			<point x="460" y="514"/>
			<point x="518" y="514" type="curve" smooth="yes"/>
			<point x="589" y="514"/>
			<point x="613" y="553"/>
			<point x="613" y="599" type="curve" smooth="yes"/>
			<point x="613" y="691"/>
			<point x="500" y="744"/>
			<point x="398" y="744" type="curve" smooth="yes"/>
			<point x="137" y="744"/>
			<point x="35" y="538"/>
			<point x="35" y="326" type="curve" smooth="yes"/>
			<point x="35" y="108"/>
			<point x="114" y="-14"/>
		</contour>
		<contour>
			<point x="332" y="4" type="curve" smooth="yes"/>
			<point x="277" y="4"/>
			<point x="263" y="81"/>
			<point x="263" y="251" type="curve" smooth="yes"/>
			<point x="263" y="377"/>
			<point x="301" y="409"/>
			<point x="333" y="409" type="curve" smooth="yes"/>
			<point x="372" y="409"/>
			<point x="393" y="374"/>
			<point x="393" y="231" type="curve" smooth="yes"/>
			<point x="393" y="51"/>
			<point x="384" y="4"/>
		</contour>
	</outline>
</glyph>
<glyph name="seven" format="2">
	<unicode hex="0037"/>
	<advance width="563"/>
	<outline>
		<contour>
			<point x="172" y="-14" type="line"/>
			<point x="375" y="0" type="line"/>
			<point x="355" y="282"/>
			<point x="402" y="462"/>
			<point x="543" y="590" type="curve"/>
			<point x="531" y="730" type="line"/>
			<point x="52" y="730" type="line"/>
			<point x="35" y="458" type="line"/>
			<point x="55" y="458" type="line"/>
			<point x="81" y="573"/>
			<point x="92" y="584"/>
			<point x="183" y="584" type="curve" smooth="yes"/>
			<point x="507" y="584" type="line"/>
			<point x="222" y="385"/>
			<point x="141" y="262"/>
			<point x="153" y="-1" type="curve"/>
		</contour>
	</outline>
</glyph>
<glyph name="eight" format="2">
	<unicode hex="0038"/>
	<advance width="627"/>
	<outline>
		<contour>
			<point x="285" y="-14" type="curve" smooth="yes"/>
			<point x="471" y="-14"/>
			<point x="607" y="57"/>
			<point x="607" y="221" type="curve" smooth="yes"/>
			<point x="607" y="307"/>
			<point x="559" y="384"/>
			<point x="408" y="465" type="curve"/>
			<point x="522" y="478"/>
			<point x="574" y="523"/>
			<point x="574" y="599" type="curve" smooth="yes"/>
			<point x="574" y="683"/>
			<point x="492" y="744"/>
			<point x="323" y="744" type="curve" smooth="yes"/>
			<point x="137" y="744"/>
			<point x="47" y="646"/>
			<point x="47" y="536" type="curve" smooth="yes"/>
			<point x="47" y="465"/>
			<point x="80" y="400"/>
			<point x="192" y="340" type="curve"/>
			<point x="49" y="300"/>
			<point x="10" y="244"/>
			<point x="10" y="164" type="curve" smooth="yes"/>
			<point x="10" y="51"/>
			<point x="112" y="-14"/>
		</contour>
		<contour>
			<point x="300" y="4" type="curve" smooth="yes"/>
			<point x="233" y="4"/>
			<point x="198" y="78"/>
			<point x="198" y="170" type="curve" smooth="yes"/>
			<point x="198" y="244"/>
			<point x="209" y="285"/>
			<point x="226" y="324" type="curve"/>
			<point x="311" y="282"/>
			<point x="392" y="238"/>
			<point x="392" y="129" type="curve" smooth="yes"/>
			<point x="392" y="60"/>
			<point x="369" y="4"/>
		</contour>
		<contour>
			<point x="374" y="478" type="curve"/>
			<point x="252" y="540"/>
			<point x="228" y="575"/>
			<point x="228" y="636" type="curve" smooth="yes"/>
			<point x="228" y="694"/>
			<point x="260" y="726"/>
			<point x="308" y="726" type="curve" smooth="yes"/>
			<point x="354" y="726"/>
			<point x="392" y="698"/>
			<point x="392" y="618" type="curve" smooth="yes"/>
			<point x="392" y="578"/>
			<point x="385" y="523"/>
		</contour>
	</outline>
</glyph>
<glyph name="nine" format="2">
	<unicode hex="0039"/>
	<advance width="635"/>
	<outline>
		<contour>
			<point x="283" y="-14" type="curve" smooth="yes"/>
			<point x="478" y="-14"/>
			<point x="600" y="130"/>
			<point x="600" y="408" type="curve" smooth="yes"/>
			<point x="600" y="587"/>
			<point x="537" y="744"/>
			<point x="312" y="744" type="curve" smooth="yes"/>
			<point x="134" y="744"/>
			<point x="27" y="655"/>
			<point x="27" y="497" type="curve" smooth="yes"/>
			<point x="27" y="335"/>
			<point x="128" y="270"/>
			<point x="245" y="270" type="curve" smooth="yes"/>
			<point x="307" y="270"/>
			<point x="344" y="286"/>
			<point x="371" y="317" type="curve"/>
			<point x="355" y="112"/>
			<point x="321" y="27"/>
			<point x="218" y="27" type="curve" smooth="yes"/>
			<point x="151" y="27"/>
			<point x="97" y="56"/>
			<point x="53" y="124" type="curve"/>
			<point x="40" y="117" type="line"/>
			<point x="85" y="31"/>
			<point x="157" y="-14"/>
		</contour>
		<contour>
			<point x="309" y="302" type="curve" smooth="yes"/>
			<point x="271" y="302"/>
			<point x="248" y="358"/>
			<point x="248" y="497" type="curve" smooth="yes"/>
			<point x="248" y="692"/>
			<point x="263" y="721"/>
			<point x="307" y="721" type="curve" smooth="yes"/>
			<point x="356" y="721"/>
			<point x="371" y="649"/>
			<point x="371" y="507" type="curve" smooth="yes"/>
			<point x="371" y="338"/>
			<point x="349" y="302"/>
		</contour>
	</outline>
</glyph>
<glyph name="less" format="2">
	<unicode hex="003C"/>
	<advance width="582"/>
	<outline>
		<contour>
			<point x="455" y="42" type="line"/>
			<point x="466" y="61" type="line"/>
			<point x="100" y="284" type="line"/>
			<point x="466" y="509" type="line"/>
			<point x="453" y="527" type="line"/>
			<point x="75" y="295" type="line"/>
			<point x="75" y="273" type="line"/>
		</contour>
	</outline>
</glyph>
<glyph name="equal" format="2">
	<unicode hex="003D"/>
	<advance width="582"/>
	<outline>
		<contour>
			<point x="107" y="384" type="line"/>
			<point x="475" y="384" type="line"/>
			<point x="475" y="405" type="line"/>
			<point x="107" y="405" type="line"/>
		</contour>
		<contour>
			<point x="107" y="202" type="line"/>
			<point x="475" y="202" type="line"/>
			<point x="475" y="223" type="line"/>
			<point x="107" y="223" type="line"/>
		</contour>
	</outline>
</glyph>
<glyph name="question" format="2">
	<unicode hex="003F"/>
	<advance width="589"/>
	<outline>
		<contour>
			<point x="235" y="228" type="line"/>
			<point x="267" y="228" type="line"/>
			<point x="267" y="259" type="line" smooth="yes"/>
			<point x="267" y="301"/>
			<point x="299" y="309"/>
			<point x="404" y="378" type="curve" smooth="yes"/>
			<point x="515" y="451"/>
			<point x="552" y="494"/>
			<point x="552" y="583" type="curve" smooth="yes"/>
			<point x="552" y="689"/>
			<point x="457" y="744"/>
			<point x="306" y="744" type="curve" smooth="yes"/>
			<point x="139" y="744"/>
			<point x="30" y="650"/>
			<point x="30" y="572" type="curve" smooth="yes"/>
			<point x="30" y="518"/>
			<point x="55" y="483"/>
			<point x="116" y="483" type="curve" smooth="yes"/>
			<point x="166" y="483"/>
			<point x="201" y="514"/>
			<point x="201" y="555" type="curve" smooth="yes"/>
			<point x="201" y="592"/>
			<point x="171" y="634"/>
			<point x="143" y="683" type="curve"/>
			<point x="178" y="706"/>
			<point x="238" y="721"/>
			<point x="277" y="721" type="curve" smooth="yes"/>
			<point x="345" y="721"/>
			<point x="374" y="688"/>
			<point x="374" y="637" type="curve" smooth="yes"/>
			<point x="374" y="592"/>
			<point x="344" y="576"/>
			<point x="303" y="545" type="curve" smooth="yes"/>
			<point x="243" y="500"/>
			<point x="235" y="481"/>
			<point x="235" y="429" type="curve" smooth="yes"/>
		</contour>
		<contour>
			<point x="252" y="-14" type="curve" smooth="yes"/>
			<point x="306" y="-14"/>
			<point x="348" y="25"/>
			<point x="348" y="81" type="curve" smooth="yes"/>
			<point x="348" y="135"/>
			<point x="307" y="173"/>
			<point x="252" y="173" type="curve" smooth="yes"/>
			<point x="197" y="173"/>
			<point x="155" y="135"/>
			<point x="155" y="81" type="curve" smooth="yes"/>
			<point x="155" y="25"/>
			<point x="197" y="-14"/>
		</contour>
	</outline>
</glyph>
<glyph name="at" format="2">
	<unicode hex="0040"/>
	<advance width="986"/>
	<outline>
		<contour>
			<point x="441" y="-216" type="curve" smooth="yes"/>
			<point x="567" y="-216"/>
			<point x="660" y="-176"/>
			<point x="739" y="-120" type="curve"/>
			<point x="728" y="-104" type="line"/>
			<point x="653" y="-157"/>
			<point x="569" y="-196"/>
			<point x="444" y="-196" type="curve" smooth="yes"/>
			<point x="261" y="-196"/>
			<point x="81" y="-86"/>
			<point x="81" y="171" type="curve" smooth="yes"/>
			<point x="81" y="409"/>
			<point x="240" y="583"/>
			<point x="519" y="583" type="curve" smooth="yes"/>
			<point x="730" y="583"/>
			<point x="900" y="491"/>
			<point x="900" y="253" type="curve" smooth="yes"/>
			<point x="900" y="120"/>
			<point x="835" y="33"/>
			<point x="750" y="33" type="curve" smooth="yes"/>
			<point x="719" y="33"/>
			<point x="709" y="48"/>
			<point x="718" y="122" type="curve" smooth="yes"/>
			<point x="751" y="395" type="line"/>
			<point x="744" y="399" type="line"/>
			<point x="632" y="377" type="line"/>
			<point x="582" y="409"/>
			<point x="539" y="426"/>
			<point x="483" y="426" type="curve" smooth="yes"/>
			<point x="360" y="426"/>
			<point x="237" y="341"/>
			<point x="237" y="145" type="curve" smooth="yes"/>
			<point x="237" y="49"/>
			<point x="285" y="-24"/>
			<point x="380" y="-24" type="curve" smooth="yes"/>
			<point x="440" y="-24"/>
			<point x="506" y="-13"/>
			<point x="552" y="138" type="curve" smooth="yes"/>
			<point x="579" y="227" type="line"/>
			<point x="583" y="227" type="line"/>
			<point x="567" y="111" type="line" smooth="yes"/>
			<point x="552" y="3"/>
			<point x="587" y="-24"/>
			<point x="672" y="-24" type="curve" smooth="yes"/>
			<point x="811" y="-24"/>
			<point x="924" y="70"/>
			<point x="924" y="254" type="curve" smooth="yes"/>
			<point x="924" y="501"/>
			<point x="741" y="603"/>
			<point x="519" y="603" type="curve" smooth="yes"/>
			<point x="236" y="603"/>
			<point x="57" y="427"/>
			<point x="57" y="167" type="curve" smooth="yes"/>
			<point x="57" y="-103"/>
			<point x="253" y="-216"/>
		</contour>
		<contour>
			<point x="447" y="45" type="curve" smooth="yes"/>
			<point x="424" y="45"/>
			<point x="417" y="77"/>
			<point x="417" y="141" type="curve" smooth="yes"/>
			<point x="417" y="255"/>
			<point x="453" y="385"/>
			<point x="525" y="385" type="curve" smooth="yes"/>
			<point x="550" y="385"/>
			<point x="575" y="377"/>
			<point x="599" y="361" type="curve"/>
			<point x="551" y="195" type="line" smooth="yes"/>
			<point x="514" y="68"/>
			<point x="487" y="45"/>
		</contour>
	</outline>
</glyph>
<glyph name="B" format="2">
	<unicode hex="0042"/>
	<advance width="736"/>
	<outline>
		<contour>
			<point x="37" y="0" type="line"/>
			<point x="376" y="0" type="line" smooth="yes"/>
			<point x="618" y="0"/>
			<point x="711" y="66"/>
			<point x="711" y="209" type="curve" smooth="yes"/>
			<point x="711" y="319"/>
			<point x="622" y="379"/>
			<point x="473" y="384" type="curve"/>
			<point x="473" y="389" type="line"/>
			<point x="598" y="408"/>
			<point x="668" y="455"/>
			<point x="668" y="564" type="curve" smooth="yes"/>
			<point x="668" y="659"/>
			<point x="597" y="730"/>
			<point x="395" y="730" type="curve" smooth="yes"/>
			<point x="37" y="730" type="line"/>
			<point x="37" y="718" type="line"/>
			<point x="66" y="717" type="line" smooth="yes"/>
			<point x="96" y="716"/>
			<point x="102" y="706"/>
			<point x="102" y="673" type="curve" smooth="yes"/>
			<point x="102" y="70" type="line" smooth="yes"/>
			<point x="102" y="26"/>
			<point x="96" y="15"/>
			<point x="71" y="14" type="curve" smooth="yes"/>
			<point x="37" y="12" type="line"/>
		</contour>
		<contour>
			<point x="372" y="16" type="curve" smooth="yes"/>
			<point x="358" y="16"/>
			<point x="350" y="17"/>
			<point x="336" y="19" type="curve"/>
			<point x="336" y="374" type="line"/>
			<point x="340" y="375"/>
			<point x="350" y="376"/>
			<point x="360" y="376" type="curve" smooth="yes"/>
			<point x="418" y="376"/>
			<point x="474" y="341"/>
			<point x="474" y="195" type="curve" smooth="yes"/>
			<point x="474" y="77"/>
			<point x="442" y="16"/>
		</contour>
		<contour>
			<point x="359" y="392" type="curve" smooth="yes"/>
			<point x="351" y="392"/>
			<point x="343" y="392"/>
			<point x="336" y="393" type="curve"/>
			<point x="336" y="712" type="line"/>
			<point x="355" y="712" type="line" smooth="yes"/>
			<point x="409" y="712"/>
			<point x="437" y="664"/>
			<point x="437" y="539" type="curve" smooth="yes"/>
			<point x="437" y="428"/>
			<point x="403" y="392"/>
		</contour>
	</outline>
</glyph>
<glyph name="J" format="2">
	<unicode hex="004A"/>
	<advance width="611"/>
	<outline>
		<contour>
			<point x="232" y="-14" type="curve" smooth="yes"/>
			<point x="420" y="-14"/>
			<point x="526" y="74"/>
			<point x="526" y="277" type="curve" smooth="yes"/>
			<point x="526" y="671" type="line" smooth="yes"/>
			<point x="526" y="705"/>
			<point x="531" y="716"/>
			<point x="559" y="717" type="curve" smooth="yes"/>
			<point x="591" y="718" type="line"/>
			<point x="591" y="730" type="line"/>
			<point x="212" y="730" type="line"/>
			<point x="212" y="718" type="line"/>
			<point x="256" y="716" type="line" smooth="yes"/>
			<point x="286" y="715"/>
			<point x="292" y="706"/>
			<point x="292" y="671" type="curve" smooth="yes"/>
			<point x="292" y="147" type="line" smooth="yes"/>
			<point x="292" y="48"/>
			<point x="265" y="7"/>
			<point x="212" y="7" type="curve" smooth="yes"/>
			<point x="171" y="7"/>
			<point x="136" y="25"/>
			<point x="121" y="39" type="curve"/>
			<point x="171" y="107"/>
			<point x="204" y="162"/>
			<point x="204" y="206" type="curve" smooth="yes"/>
			<point x="204" y="252"/>
			<point x="167" y="280"/>
			<point x="110" y="280" type="curve" smooth="yes"/>
			<point x="37" y="280"/>
			<point x="5" y="216"/>
			<point x="5" y="164" type="curve" smooth="yes"/>
			<point x="5" y="63"/>
			<point x="117" y="-14"/>
		</contour>
	</outline>
	<anchor name="top" x="398" y="730"/>
</glyph>
<glyph name="M" format="2">
	<unicode hex="004D"/>
	<advance width="964"/>
	<outline>
		<contour>
			<point x="20" y="0" type="line"/>
			<point x="174" y="0" type="line"/>
			<point x="174" y="12" type="line"/>
			<point x="144" y="14" type="line" smooth="yes"/>
			<point x="112" y="16"/>
			<point x="109" y="30"/>
			<point x="111" y="69" type="curve" smooth="yes"/>
			<point x="144" y="671" type="line"/>
			<point x="145" y="671" type="line"/>
			<point x="321" y="114" type="line"/>
			<point x="447" y="114" type="line"/>
			<point x="622" y="671" type="line"/>
			<point x="623" y="671" type="line"/>
			<point x="649" y="63" type="line" smooth="yes"/>
			<point x="651" y="17"/>
			<point x="640" y="18"/>
			<point x="616" y="15" type="curve" smooth="yes"/>
			<point x="581" y="12" type="line"/>
			<point x="581" y="0" type="line"/>
			<point x="939" y="0" type="line"/>
			<point x="939" y="11" type="line"/>
			<point x="904" y="15" type="line" smooth="yes"/>
			<point x="875" y="18"/>
			<point x="871" y="30"/>
			<point x="869" y="65" type="curve" smooth="yes"/>
			<point x="841" y="667" type="line" smooth="yes"/>
			<point x="839" y="703"/>
			<point x="847" y="715"/>
			<point x="876" y="716" type="curve" smooth="yes"/>
			<point x="906" y="718" type="line"/>
			<point x="906" y="730" type="line"/>
			<point x="618" y="730" type="line"/>
			<point x="482" y="296" type="line"/>
			<point x="480" y="296" type="line"/>
			<point x="345" y="730" type="line"/>
			<point x="55" y="730" type="line"/>
			<point x="55" y="718" type="line"/>
			<point x="83" y="716" type="line" smooth="yes"/>
			<point x="119" y="713"/>
			<point x="122" y="698"/>
			<point x="120" y="660" type="curve" smooth="yes"/>
			<point x="85" y="69" type="line" smooth="yes"/>
			<point x="83" y="29"/>
			<point x="74" y="16"/>
			<point x="50" y="14" type="curve" smooth="yes"/>
			<point x="20" y="12" type="line"/>
		</contour>
	</outline>
	<anchor name="bottom" x="422" y="-30"/>
</glyph>
<glyph name="N" format="2">
	<unicode hex="004E"/>
	<advance width="734"/>
	<outline>
		<contour>
			<point x="37" y="0" type="line"/>
			<point x="197" y="0" type="line"/>
			<point x="197" y="12" type="line"/>
			<point x="161" y="14" type="line" smooth="yes"/>
			<point x="135" y="15"/>
			<point x="127" y="25"/>
			<point x="127" y="66" type="curve" smooth="yes"/>
			<point x="127" y="548" type="line"/>
			<point x="128" y="548" type="line"/>
			<point x="481" y="0" type="line"/>
			<point x="637" y="0" type="line"/>
			<point x="637" y="660" type="line" smooth="yes"/>
			<point x="637" y="704"/>
			<point x="643" y="715"/>
			<point x="668" y="716" type="curve" smooth="yes"/>
			<point x="702" y="718" type="line"/>
			<point x="702" y="730" type="line"/>
			<point x="541" y="730" type="line"/>
			<point x="541" y="718" type="line"/>
			<point x="577" y="716" type="line" smooth="yes"/>
			<point x="603" y="715"/>
			<point x="611" y="706"/>
			<point x="611" y="664" type="curve" smooth="yes"/>
			<point x="611" y="179" type="line"/>
			<point x="610" y="179" type="line"/>
			<point x="259" y="730" type="line"/>
			<point x="37" y="730" type="line"/>
			<point x="37" y="718" type="line"/>
			<point x="66" y="717" type="line" smooth="yes"/>
			<point x="96" y="716"/>
			<point x="102" y="706"/>
			<point x="102" y="673" type="curve" smooth="yes"/>
			<point x="102" y="70" type="line" smooth="yes"/>
			<point x="102" y="26"/>
			<point x="96" y="15"/>
			<point x="71" y="14" type="curve" smooth="yes"/>
			<point x="37" y="12" type="line"/>
		</contour>
	</outline>
	<anchor name="bottom" x="358" y="-30"/>
	<anchor name="top" x="377" y="730"/>
</glyph>
<glyph name="P" format="2">
	<unicode hex="0050"/>
	<advance width="693"/>
	<outline>
		<contour>
			<point x="37" y="0" type="line"/>
			<point x="421" y="0" type="line"/>
			<point x="421" y="12" type="line"/>
			<point x="379" y="14" type="line" smooth="yes"/>
			<point x="336" y="16"/>
			<point x="336" y="33"/>
			<point x="336" y="66" type="curve" smooth="yes"/>
			<point x="336" y="308" type="line"/>
			<point x="351" y="306"/>
			<point x="374" y="305"/>
			<point x="411" y="305" type="curve" smooth="yes"/>
			<point x="521" y="305"/>
			<point x="673" y="356"/>
			<point x="673" y="525" type="curve" smooth="yes"/>
			<point x="673" y="670"/>
			<point x="569" y="730"/>
			<point x="379" y="730" type="curve" smooth="yes"/>
			<point x="37" y="730" type="line"/>
			<point x="37" y="718" type="line"/>
			<point x="66" y="717" type="line" smooth="yes"/>
			<point x="96" y="716"/>
			<point x="102" y="706"/>
			<point x="102" y="673" type="curve" smooth="yes"/>
			<point x="102" y="70" type="line" smooth="yes"/>
			<point x="102" y="26"/>
			<point x="96" y="15"/>
			<point x="71" y="14" type="curve" smooth="yes"/>
			<point x="37" y="12" type="line"/>
		</contour>
		<contour>
			<point x="353" y="323" type="curve" smooth="yes"/>
			<point x="348" y="323"/>
			<point x="343" y="323"/>
			<point x="336" y="324" type="curve"/>
			<point x="336" y="714" type="line"/>
			<point x="357" y="714" type="line" smooth="yes"/>
			<point x="415" y="714"/>
			<point x="434" y="664"/>
			<point x="434" y="512" type="curve" smooth="yes"/>
			<point x="434" y="386"/>
			<point x="413" y="323"/>
		</contour>
	</outline>
</glyph>
<glyph name="R" format="2">
	<unicode hex="0052"/>
	<advance width="803"/>
	<outline>
		<contour>
			<point x="639" y="-14" type="curve" smooth="yes"/>
			<point x="716" y="-14"/>
			<point x="788" y="20"/>
			<point x="833" y="78" type="curve"/>
			<point x="826" y="87" type="line"/>
			<point x="810" y="76"/>
			<point x="781" y="66"/>
			<point x="762" y="66" type="curve" smooth="yes"/>
			<point x="731" y="66"/>
			<point x="713" y="72"/>
			<point x="696" y="120" type="curve" smooth="yes"/>
			<point x="645" y="265" type="line" smooth="yes"/>
			<point x="619" y="338"/>
			<point x="556" y="366"/>
			<point x="466" y="375" type="curve"/>
			<point x="466" y="378" type="line"/>
			<point x="567" y="389"/>
			<point x="686" y="427"/>
			<point x="686" y="557" type="curve" smooth="yes"/>
			<point x="686" y="697"/>
			<point x="551" y="730"/>
			<point x="373" y="730" type="curve" smooth="yes"/>
			<point x="37" y="730" type="line"/>
			<point x="37" y="718" type="line"/>
			<point x="66" y="717" type="line" smooth="yes"/>
			<point x="96" y="716"/>
			<point x="102" y="706"/>
			<point x="102" y="673" type="curve" smooth="yes"/>
			<point x="102" y="70" type="line" smooth="yes"/>
			<point x="102" y="26"/>
			<point x="96" y="15"/>
			<point x="71" y="14" type="curve" smooth="yes"/>
			<point x="37" y="12" type="line"/>
			<point x="37" y="0" type="line"/>
			<point x="413" y="0" type="line"/>
			<point x="413" y="12" type="line"/>
			<point x="374" y="14" type="line" smooth="yes"/>
			<point x="336" y="16"/>
			<point x="336" y="33"/>
			<point x="336" y="66" type="curve" smooth="yes"/>
			<point x="336" y="365" type="line"/>
			<point x="337" y="365"/>
			<point x="345" y="366"/>
			<point x="353" y="366" type="curve" smooth="yes"/>
			<point x="376" y="366"/>
			<point x="391" y="351"/>
			<point x="405" y="287" type="curve" smooth="yes"/>
			<point x="435" y="150" type="line" smooth="yes"/>
			<point x="465" y="11"/>
			<point x="544" y="-14"/>
		</contour>
		<contour>
			<point x="358" y="382" type="curve" smooth="yes"/>
			<point x="353" y="382"/>
			<point x="345" y="382"/>
			<point x="336" y="383" type="curve"/>
			<point x="336" y="714" type="line"/>
			<point x="362" y="714" type="line" smooth="yes"/>
			<point x="431" y="714"/>
			<point x="446" y="658"/>
			<point x="446" y="557" type="curve" smooth="yes"/>
			<point x="446" y="440"/>
			<point x="432" y="382"/>
		</contour>
	</outline>
	<anchor name="bottom" x="397" y="-30"/>
	<anchor name="top" x="362" y="730"/>
</glyph>
<glyph name="U" format="2">
	<unicode hex="0055"/>
	<advance width="736"/>
	<outline>
		<contour>
			<point x="388" y="-14" type="curve" smooth="yes"/>
			<point x="542" y="-14"/>
			<point x="646" y="41"/>
			<point x="646" y="229" type="curve" smooth="yes"/>
			<point x="646" y="668" type="line" smooth="yes"/>
			<point x="646" y="707"/>
			<point x="654" y="716"/>
			<point x="682" y="717" type="curve" smooth="yes"/>
			<point x="711" y="718" type="line"/>
			<point x="711" y="730" type="line"/>
			<point x="559" y="730" type="line"/>
			<point x="559" y="718" type="line"/>
			<point x="586" y="717" type="line" smooth="yes"/>
			<point x="617" y="716"/>
			<point x="624" y="706"/>
			<point x="624" y="668" type="curve" smooth="yes"/>
			<point x="624" y="228" type="line" smooth="yes"/>
			<point x="624" y="92"/>
			<point x="562" y="28"/>
			<point x="475" y="28" type="curve" smooth="yes"/>
			<point x="358" y="28"/>
			<point x="319" y="101"/>
			<point x="319" y="221" type="curve" smooth="yes"/>
			<point x="319" y="668" type="line" smooth="yes"/>
			<point x="319" y="704"/>
			<point x="325" y="716"/>
			<point x="349" y="717" type="curve" smooth="yes"/>
			<point x="384" y="718" type="line"/>
			<point x="384" y="730" type="line"/>
			<point x="25" y="730" type="line"/>
			<point x="25" y="718" type="line"/>
			<point x="54" y="717" type="line" smooth="yes"/>
			<point x="84" y="716"/>
			<point x="90" y="701"/>
			<point x="90" y="668" type="curve" smooth="yes"/>
			<point x="90" y="240" type="line" smooth="yes"/>
			<point x="90" y="61"/>
			<point x="193" y="-14"/>
		</contour>
	</outline>
	<anchor name="bottom" x="397" y="-30"/>
	<anchor name="top" x="393" y="730"/>
	<guideline x="442" y="668" angle="0"/>
</glyph>
<glyph name="V" format="2">
	<unicode hex="0056"/>
	<advance width="760"/>
	<outline>
		<contour>
			<point x="304" y="0" type="line"/>
			<point x="463" y="0" type="line"/>
			<point x="682" y="657" type="line" smooth="yes"/>
			<point x="695" y="697"/>
			<point x="709" y="710"/>
			<point x="743" y="714" type="curve" smooth="yes"/>
			<point x="775" y="718" type="line"/>
			<point x="775" y="730" type="line"/>
			<point x="581" y="730" type="line"/>
			<point x="581" y="718" type="line"/>
			<point x="626" y="713" type="line" smooth="yes"/>
			<point x="660" y="710"/>
			<point x="668" y="693"/>
			<point x="655" y="654" type="curve" smooth="yes"/>
			<point x="484" y="137" type="line"/>
			<point x="481" y="137" type="line"/>
			<point x="314" y="655" type="line" smooth="yes"/>
			<point x="300" y="697"/>
			<point x="305" y="710"/>
			<point x="339" y="714" type="curve" smooth="yes"/>
			<point x="383" y="718" type="line"/>
			<point x="383" y="730" type="line"/>
			<point x="-10" y="730" type="line"/>
			<point x="-10" y="718" type="line"/>
			<point x="20" y="713" type="line" smooth="yes"/>
			<point x="54" y="708"/>
			<point x="62" y="699"/>
			<point x="77" y="653" type="curve" smooth="yes"/>
		</contour>
	</outline>
	<anchor name="top" x="465" y="730"/>
</glyph>
<glyph name="W" format="2">
	<unicode hex="0057"/>
	<advance width="1064"/>
	<outline>
		<contour>
			<point x="222" y="0" type="line"/>
			<point x="426" y="0" type="line"/>
			<point x="531" y="583" type="line"/>
			<point x="535" y="583" type="line"/>
			<point x="665" y="0" type="line"/>
			<point x="869" y="0" type="line"/>
			<point x="984" y="639" type="line" smooth="yes"/>
			<point x="996" y="708"/>
			<point x="1016" y="709"/>
			<point x="1047" y="714" type="curve" smooth="yes"/>
			<point x="1079" y="719" type="line"/>
			<point x="1079" y="730" type="line"/>
			<point x="883" y="730" type="line"/>
			<point x="883" y="718" type="line"/>
			<point x="916" y="715" type="line" smooth="yes"/>
			<point x="962" y="711"/>
			<point x="969" y="697"/>
			<point x="959" y="641" type="curve" smooth="yes"/>
			<point x="870" y="141" type="line"/>
			<point x="868" y="141" type="line"/>
			<point x="730" y="730" type="line"/>
			<point x="532" y="730" type="line"/>
			<point x="423" y="138" type="line"/>
			<point x="419" y="138" type="line"/>
			<point x="305" y="652" type="line" smooth="yes"/>
			<point x="294" y="701"/>
			<point x="311" y="711"/>
			<point x="338" y="714" type="curve" smooth="yes"/>
			<point x="377" y="718" type="line"/>
			<point x="377" y="730" type="line"/>
			<point x="-10" y="730" type="line"/>
			<point x="-10" y="718" type="line"/>
			<point x="22" y="713" type="line" smooth="yes"/>
			<point x="55" y="708"/>
			<point x="67" y="695"/>
			<point x="74" y="661" type="curve" smooth="yes"/>
		</contour>
	</outline>
	<anchor name="top" x="604" y="730"/>
</glyph>
<glyph name="X" format="2">
	<unicode hex="0058"/>
	<advance width="813"/>
	<outline>
		<contour>
			<point x="-10" y="0" type="line"/>
			<point x="265" y="0" type="line"/>
			<point x="265" y="12" type="line"/>
			<point x="205" y="17" type="line" smooth="yes"/>
			<point x="164" y="20"/>
			<point x="149" y="37"/>
			<point x="176" y="76" type="curve" smooth="yes"/>
			<point x="325" y="289" type="line"/>
			<point x="459" y="76" type="line" smooth="yes"/>
			<point x="492" y="24"/>
			<point x="482" y="15"/>
			<point x="452" y="13" type="curve" smooth="yes"/>
			<point x="415" y="10" type="line"/>
			<point x="415" y="-2" type="line"/>
			<point x="823" y="-2" type="line"/>
			<point x="823" y="10" type="line"/>
			<point x="795" y="16" type="line" smooth="yes"/>
			<point x="753" y="25"/>
			<point x="719" y="66"/>
			<point x="666" y="152" type="curve" smooth="yes"/>
			<point x="479" y="452" type="line"/>
			<point x="603" y="626" type="line" smooth="yes"/>
			<point x="645" y="685"/>
			<point x="657" y="705"/>
			<point x="709" y="711" type="curve" smooth="yes"/>
			<point x="771" y="718" type="line"/>
			<point x="771" y="730" type="line"/>
			<point x="497" y="730" type="line"/>
			<point x="497" y="718" type="line"/>
			<point x="557" y="713" type="line" smooth="yes"/>
			<point x="598" y="710"/>
			<point x="616" y="693"/>
			<point x="589" y="654" type="curve" smooth="yes"/>
			<point x="463" y="476" type="line"/>
			<point x="337" y="677" type="line" smooth="yes"/>
			<point x="323" y="700"/>
			<point x="320" y="711"/>
			<point x="350" y="714" type="curve" smooth="yes"/>
			<point x="394" y="718" type="line"/>
			<point x="394" y="730" type="line"/>
			<point x="2" y="730" type="line"/>
			<point x="0" y="718" type="line"/>
			<point x="21" y="716" type="line" smooth="yes"/>
			<point x="55" y="713"/>
			<point x="69" y="691"/>
			<point x="109" y="629" type="curve" smooth="yes"/>
			<point x="310" y="313" type="line"/>
			<point x="161" y="104" type="line" smooth="yes"/>
			<point x="113" y="37"/>
			<point x="100" y="25"/>
			<point x="52" y="19" type="curve" smooth="yes"/>
			<point x="-10" y="12" type="line"/>
		</contour>
	</outline>
</glyph>
<glyph name="Z" format="2">
	<unicode hex="005A"/>
	<advance width="673"/>
	<outline>
		<contour>
			<point x="20" y="0" type="line"/>
			<point x="611" y="0" type="line"/>
			<point x="635" y="235" type="line"/>
			<point x="619" y="235" type="line"/>
			<point x="570" y="62"/>
			<point x="532" y="16"/>
			<point x="427" y="16" type="curve" smooth="yes"/>
			<point x="251" y="16" type="line"/>
			<point x="643" y="714" type="line"/>
			<point x="643" y="730" type="line"/>
			<point x="63" y="730" type="line"/>
			<point x="48" y="467" type="line"/>
			<point x="64" y="469" type="line"/>
			<point x="105" y="653"/>
			<point x="139" y="714"/>
			<point x="218" y="714" type="curve" smooth="yes"/>
			<point x="412" y="714" type="line"/>
			<point x="20" y="13" type="line"/>
		</contour>
	</outline>
	<anchor name="bottom" x="335" y="-30"/>
	<anchor name="top" x="345" y="730"/>
</glyph>
<glyph name="bracketleft" format="2">
	<unicode hex="005B"/>
	<advance width="417"/>
	<outline>
		<contour>
			<point x="100" y="-212" type="line"/>
			<point x="361" y="-212" type="line"/>
			<point x="362" y="-200" type="line"/>
			<point x="293" y="-194" type="line" smooth="yes"/>
			<point x="272" y="-192"/>
			<point x="265" y="-190"/>
			<point x="265" y="-161" type="curve" smooth="yes"/>
			<point x="265" y="766" type="line" smooth="yes"/>
			<point x="265" y="793"/>
			<point x="277" y="793"/>
			<point x="291" y="794" type="curve" smooth="yes"/>
			<point x="362" y="800" type="line"/>
			<point x="361" y="812" type="line"/>
			<point x="100" y="812" type="line"/>
		</contour>
	</outline>
</glyph>
<glyph name="grave" format="2">
	<unicode hex="0060"/>
	<advance width="500"/>
	<outline>
		<contour>
			<point x="314" y="576" type="line"/>
			<point x="322" y="585" type="line"/>
			<point x="220" y="780" type="line" smooth="yes"/>
			<point x="202" y="815"/>
			<point x="185" y="824"/>
			<point x="162" y="824" type="curve" smooth="yes"/>
			<point x="116" y="824"/>
			<point x="85" y="782"/>
			<point x="85" y="742" type="curve" smooth="yes"/>
			<point x="85" y="713"/>
			<point x="102" y="694"/>
			<point x="133" y="677" type="curve" smooth="yes"/>
		</contour>
	</outline>
	<anchor name="_top" x="250" y="550"/>
</glyph>
<glyph name="a" format="2">
	<unicode hex="0061"/>
	<advance width="609"/>
	<outline>
		<contour>
			<point x="176" y="-14" type="curve" smooth="yes"/>
			<point x="263" y="-14"/>
			<point x="307" y="18"/>
			<point x="329" y="79" type="curve"/>
			<point x="346" y="24"/>
			<point x="385" y="-14"/>
			<point x="468" y="-14" type="curve" smooth="yes"/>
			<point x="513" y="-14"/>
			<point x="572" y="-2"/>
			<point x="613" y="48" type="curve"/>
			<point x="608" y="56" type="line"/>
			<point x="595" y="50"/>
			<point x="586" y="48"/>
			<point x="572" y="48" type="curve" smooth="yes"/>
			<point x="552" y="48"/>
			<point x="542" y="63"/>
			<point x="542" y="95" type="curve" smooth="yes"/>
			<point x="542" y="322" type="line" smooth="yes"/>
			<point x="542" y="494"/>
			<point x="439" y="537"/>
			<point x="289" y="537" type="curve" smooth="yes"/>
			<point x="119" y="537"/>
			<point x="39" y="447"/>
			<point x="39" y="383" type="curve" smooth="yes"/>
			<point x="39" y="339"/>
			<point x="65" y="306"/>
			<point x="128" y="306" type="curve" smooth="yes"/>
			<point x="181" y="306"/>
			<point x="210" y="334"/>
			<point x="210" y="367" type="curve" smooth="yes"/>
			<point x="210" y="386"/>
			<point x="204" y="408"/>
			<point x="139" y="482" type="curve"/>
			<point x="159" y="502"/>
			<point x="209" y="517"/>
			<point x="239" y="517" type="curve" smooth="yes"/>
			<point x="297" y="517"/>
			<point x="318" y="490"/>
			<point x="318" y="416" type="curve" smooth="yes"/>
			<point x="318" y="280" type="line"/>
			<point x="102" y="266"/>
			<point x="27" y="233"/>
			<point x="27" y="123" type="curve" smooth="yes"/>
			<point x="27" y="34"/>
			<point x="83" y="-14"/>
		</contour>
		<contour>
			<point x="280" y="57" type="curve" smooth="yes"/>
			<point x="254" y="57"/>
			<point x="244" y="78"/>
			<point x="244" y="147" type="curve" smooth="yes"/>
			<point x="244" y="233"/>
			<point x="259" y="259"/>
			<point x="318" y="264" type="curve"/>
			<point x="318" y="118" type="line" smooth="yes"/>
			<point x="318" y="81"/>
			<point x="307" y="57"/>
		</contour>
	</outline>
	<anchor name="bottom" x="302" y="-30"/>
	<anchor name="top" x="287" y="550"/>
</glyph>
<glyph name="c" format="2">
	<unicode hex="0063"/>
	<advance width="575"/>
	<outline>
		<contour>
			<point x="304" y="-14" type="curve" smooth="yes"/>
			<point x="426" y="-14"/>
			<point x="511" y="45"/>
			<point x="560" y="160" type="curve"/>
			<point x="552" y="167" type="line"/>
			<point x="502" y="135"/>
			<point x="459" y="116"/>
			<point x="398" y="116" type="curve" smooth="yes"/>
			<point x="299" y="116"/>
			<point x="255" y="186"/>
			<point x="255" y="307" type="curve" smooth="yes"/>
			<point x="255" y="463"/>
			<point x="290" y="520"/>
			<point x="351" y="520" type="curve" smooth="yes"/>
			<point x="380" y="520"/>
			<point x="417" y="507"/>
			<point x="438" y="489" type="curve"/>
			<point x="390" y="415"/>
			<point x="379" y="382"/>
			<point x="379" y="355" type="curve" smooth="yes"/>
			<point x="379" y="318"/>
			<point x="410" y="292"/>
			<point x="461" y="292" type="curve" smooth="yes"/>
			<point x="529" y="292"/>
			<point x="556" y="344"/>
			<point x="556" y="382" type="curve" smooth="yes"/>
			<point x="556" y="459"/>
			<point x="480" y="537"/>
			<point x="342" y="537" type="curve" smooth="yes"/>
			<point x="136" y="537"/>
			<point x="27" y="409"/>
			<point x="27" y="247" type="curve" smooth="yes"/>
			<point x="27" y="87"/>
			<point x="128" y="-14"/>
		</contour>
	</outline>
	<anchor name="bottom" x="312" y="-30"/>
	<anchor name="top" x="319" y="550"/>
</glyph>
<glyph name="e" format="2">
	<unicode hex="0065"/>
	<advance width="600"/>
	<outline>
		<contour>
			<point x="307" y="-14" type="curve" smooth="yes"/>
			<point x="442" y="-14"/>
			<point x="539" y="61"/>
			<point x="578" y="167" type="curve"/>
			<point x="568" y="173" type="line"/>
			<point x="503" y="128"/>
			<point x="452" y="116"/>
			<point x="398" y="116" type="curve" smooth="yes"/>
			<point x="295" y="116"/>
			<point x="257" y="186"/>
			<point x="256" y="287" type="curve"/>
			<point x="575" y="287" type="line"/>
			<point x="576" y="307"/>
			<point x="577" y="322"/>
			<point x="577" y="336" type="curve" smooth="yes"/>
			<point x="577" y="462"/>
			<point x="479" y="537"/>
			<point x="332" y="537" type="curve" smooth="yes"/>
			<point x="167" y="537"/>
			<point x="27" y="434"/>
			<point x="27" y="252" type="curve" smooth="yes"/>
			<point x="27" y="85"/>
			<point x="128" y="-14"/>
		</contour>
		<contour>
			<point x="256" y="303" type="line"/>
			<point x="260" y="481"/>
			<point x="291" y="518"/>
			<point x="325" y="518" type="curve" smooth="yes"/>
			<point x="357" y="518"/>
			<point x="371" y="476"/>
			<point x="371" y="381" type="curve" smooth="yes"/>
			<point x="371" y="356"/>
			<point x="370" y="331"/>
			<point x="367" y="303" type="curve"/>
		</contour>
	</outline>
	<anchor name="bottom" x="325" y="-30"/>
	<anchor name="top" x="320" y="550"/>
</glyph>
<glyph name="g" format="2">
	<unicode hex="0067"/>
	<advance width="672"/>
	<outline>
		<contour>
			<point x="301" y="-230" type="curve" smooth="yes"/>
			<point x="626" y="-230"/>
			<point x="659" y="-82"/>
			<point x="659" y="-21" type="curve" smooth="yes"/>
			<point x="659" y="92"/>
			<point x="576" y="141"/>
			<point x="392" y="141" type="curve" smooth="yes"/>
			<point x="186" y="141" type="line" smooth="yes"/>
			<point x="136" y="141"/>
			<point x="120" y="149"/>
			<point x="120" y="164" type="curve" smooth="yes"/>
			<point x="120" y="175"/>
			<point x="133" y="187"/>
			<point x="148" y="200" type="curve"/>
			<point x="182" y="184"/>
			<point x="246" y="167"/>
			<point x="320" y="167" type="curve" smooth="yes"/>
			<point x="488" y="167"/>
			<point x="581" y="252"/>
			<point x="581" y="355" type="curve" smooth="yes"/>
			<point x="581" y="407"/>
			<point x="551" y="451"/>
			<point x="502" y="490" type="curve"/>
			<point x="506" y="516"/>
			<point x="509" y="532"/>
			<point x="516" y="552" type="curve"/>
			<point x="526" y="536" type="line" smooth="yes"/>
			<point x="542" y="511"/>
			<point x="556" y="489"/>
			<point x="593" y="489" type="curve" smooth="yes"/>
			<point x="645" y="489"/>
			<point x="672" y="529"/>
			<point x="672" y="570" type="curve" smooth="yes"/>
			<point x="672" y="626"/>
			<point x="627" y="662"/>
			<point x="582" y="662" type="curve" smooth="yes"/>
			<point x="512" y="662"/>
			<point x="491" y="601"/>
			<point x="481" y="503" type="curve"/>
			<point x="429" y="525"/>
			<point x="373" y="537"/>
			<point x="314" y="537" type="curve" smooth="yes"/>
			<point x="153" y="537"/>
			<point x="37" y="466"/>
			<point x="37" y="347" type="curve" smooth="yes"/>
			<point x="37" y="271"/>
			<point x="78" y="236"/>
			<point x="118" y="216" type="curve"/>
			<point x="118" y="211" type="line"/>
			<point x="54" y="159"/>
			<point x="22" y="132"/>
			<point x="22" y="79" type="curve" smooth="yes"/>
			<point x="22" y="36"/>
			<point x="56" y="-12"/>
			<point x="160" y="-28" type="curve"/>
			<point x="160" y="-34" type="line"/>
			<point x="70" y="-42"/>
			<point x="20" y="-61"/>
			<point x="20" y="-124" type="curve" smooth="yes"/>
			<point x="20" y="-180"/>
			<point x="56" y="-230"/>
		</contour>
		<contour>
			<point x="305" y="-205" type="curve" smooth="yes"/>
			<point x="222" y="-205"/>
			<point x="190" y="-169"/>
			<point x="190" y="-98" type="curve" smooth="yes"/>
			<point x="190" y="-83"/>
			<point x="192" y="-56"/>
			<point x="201" y="-34" type="curve"/>
			<point x="348" y="-34" type="line" smooth="yes"/>
			<point x="398" y="-34"/>
			<point x="432" y="-56"/>
			<point x="432" y="-100" type="curve" smooth="yes"/>
			<point x="432" y="-154"/>
			<point x="404" y="-205"/>
		</contour>
		<contour>
			<point x="310" y="192" type="curve" smooth="yes"/>
			<point x="275" y="192"/>
			<point x="254" y="238"/>
			<point x="254" y="359" type="curve" smooth="yes"/>
			<point x="254" y="465"/>
			<point x="264" y="512"/>
			<point x="305" y="512" type="curve" smooth="yes"/>
			<point x="341" y="512"/>
			<point x="364" y="470"/>
			<point x="364" y="343" type="curve" smooth="yes"/>
			<point x="364" y="232"/>
			<point x="348" y="192"/>
		</contour>
	</outline>
	<anchor name="top" x="297" y="555"/>
</glyph>
<glyph name="j" format="2">
	<unicode hex="006A"/>
	<advance width="361"/>
	<outline>
		<contour>
			<point x="15" y="-230" type="line"/>
			<point x="270" y="-173"/>
			<point x="298" y="-57"/>
			<point x="298" y="90" type="curve" smooth="yes"/>
			<point x="298" y="523" type="line"/>
			<point x="291" y="531" type="line"/>
			<point x="12" y="519" type="line"/>
			<point x="11" y="507" type="line"/>
			<point x="38" y="504" type="line" smooth="yes"/>
			<point x="69" y="501"/>
			<point x="74" y="485"/>
			<point x="74" y="447" type="curve" smooth="yes"/>
			<point x="74" y="-31" type="line" smooth="yes"/>
			<point x="74" y="-116"/>
			<point x="63" y="-161"/>
			<point x="10" y="-221" type="curve"/>
		</contour>
		<contour>
			<point x="178" y="594" type="curve" smooth="yes"/>
			<point x="260" y="594"/>
			<point x="306" y="633"/>
			<point x="306" y="698" type="curve" smooth="yes"/>
			<point x="306" y="764"/>
			<point x="267" y="802"/>
			<point x="178" y="802" type="curve" smooth="yes"/>
			<point x="91" y="802"/>
			<point x="49" y="763"/>
			<point x="49" y="699" type="curve" smooth="yes"/>
			<point x="49" y="632"/>
			<point x="94" y="594"/>
		</contour>
	</outline>
</glyph>
<glyph name="p" format="2">
	<unicode hex="0070"/>
	<advance width="706"/>
	<outline>
		<contour>
			<point x="23" y="-216" type="line"/>
			<point x="371" y="-216" type="line"/>
			<point x="371" y="-204" type="line"/>
			<point x="335" y="-202" type="line" smooth="yes"/>
			<point x="300" y="-200"/>
			<point x="300" y="-190"/>
			<point x="300" y="-158" type="curve" smooth="yes"/>
			<point x="300" y="7" type="line"/>
			<point x="333" y="-7"/>
			<point x="363" y="-14"/>
			<point x="404" y="-14" type="curve" smooth="yes"/>
			<point x="578" y="-14"/>
			<point x="679" y="100"/>
			<point x="679" y="277" type="curve" smooth="yes"/>
			<point x="679" y="458"/>
			<point x="583" y="537"/>
			<point x="455" y="537" type="curve" smooth="yes"/>
			<point x="365" y="537"/>
			<point x="315" y="482"/>
			<point x="293" y="435" type="curve"/>
			<point x="292" y="435" type="line"/>
			<point x="292" y="523" type="line"/>
			<point x="285" y="531" type="line"/>
			<point x="14" y="519" type="line"/>
			<point x="13" y="507" type="line"/>
			<point x="40" y="504" type="line" smooth="yes"/>
			<point x="71" y="501"/>
			<point x="76" y="485"/>
			<point x="76" y="447" type="curve" smooth="yes"/>
			<point x="76" y="-159" type="line" smooth="yes"/>
			<point x="76" y="-192"/>
			<point x="72" y="-201"/>
			<point x="53" y="-202" type="curve" smooth="yes"/>
			<point x="23" y="-204" type="line"/>
		</contour>
		<contour>
			<point x="375" y="9" type="curve" smooth="yes"/>
			<point x="351" y="9"/>
			<point x="321" y="22"/>
			<point x="300" y="42" type="curve"/>
			<point x="300" y="365" type="line" smooth="yes"/>
			<point x="300" y="442"/>
			<point x="335" y="468"/>
			<point x="367" y="468" type="curve" smooth="yes"/>
			<point x="413" y="468"/>
			<point x="444" y="411"/>
			<point x="444" y="246" type="curve" smooth="yes"/>
			<point x="444" y="69"/>
			<point x="423" y="9"/>
		</contour>
	</outline>
</glyph>
<glyph name="v" format="2">
	<unicode hex="0076"/>
	<advance width="664"/>
	<outline>
		<contour>
			<point x="262" y="0" type="line"/>
			<point x="421" y="0" type="line"/>
			<point x="581" y="450" type="line" smooth="yes"/>
			<point x="596" y="492"/>
			<point x="609" y="503"/>
			<point x="642" y="507" type="curve" smooth="yes"/>
			<point x="674" y="511" type="line"/>
			<point x="674" y="523" type="line"/>
			<point x="477" y="523" type="line"/>
			<point x="477" y="511" type="line"/>
			<point x="522" y="506" type="line" smooth="yes"/>
			<point x="553" y="503"/>
			<point x="566" y="489"/>
			<point x="551" y="447" type="curve" smooth="yes"/>
			<point x="443" y="143" type="line"/>
			<point x="440" y="143" type="line"/>
			<point x="312" y="448" type="line"/>
			<point x="297" y="492"/>
			<point x="307" y="503"/>
			<point x="340" y="507" type="curve" smooth="yes"/>
			<point x="374" y="511" type="line"/>
			<point x="374" y="523" type="line"/>
			<point x="-10" y="523" type="line"/>
			<point x="-10" y="511" type="line"/>
			<point x="10" y="506" type="line" smooth="yes"/>
			<point x="40" y="499"/>
			<point x="48" y="492"/>
			<point x="67" y="446" type="curve"/>
		</contour>
	</outline>
	<anchor name="top" x="422" y="550"/>
</glyph>
<glyph name="w" format="2">
	<unicode hex="0077"/>
	<advance width="978"/>
	<outline>
		<contour>
			<point x="229" y="0" type="line"/>
			<point x="390" y="0" type="line"/>
			<point x="483" y="324" type="line"/>
			<point x="487" y="324" type="line"/>
			<point x="612" y="0" type="line"/>
			<point x="770" y="0" type="line"/>
			<point x="895" y="450" type="line"/>
			<point x="906" y="492"/>
			<point x="924" y="503"/>
			<point x="956" y="507" type="curve" smooth="yes"/>
			<point x="988" y="511" type="line"/>
			<point x="988" y="523" type="line"/>
			<point x="791" y="523" type="line"/>
			<point x="791" y="511" type="line"/>
			<point x="836" y="506" type="line" smooth="yes"/>
			<point x="867" y="503"/>
			<point x="876" y="490"/>
			<point x="865" y="447" type="curve"/>
			<point x="782" y="140" type="line"/>
			<point x="778" y="140" type="line"/>
			<point x="629" y="523" type="line"/>
			<point x="511" y="523" type="line"/>
			<point x="402" y="140" type="line"/>
			<point x="399" y="140" type="line"/>
			<point x="294" y="448" type="line" smooth="yes"/>
			<point x="279" y="492"/>
			<point x="289" y="503"/>
			<point x="322" y="507" type="curve" smooth="yes"/>
			<point x="356" y="511" type="line"/>
			<point x="356" y="523" type="line"/>
			<point x="-10" y="523" type="line"/>
			<point x="-10" y="511" type="line"/>
			<point x="10" y="506" type="line" smooth="yes"/>
			<point x="45" y="497"/>
			<point x="50" y="489"/>
			<point x="67" y="446" type="curve"/>
		</contour>
	</outline>
	<anchor name="top" x="545" y="550"/>
</glyph>
<glyph name="x" format="2">
	<unicode hex="0078"/>
	<advance width="647"/>
	<outline>
		<contour>
			<point x="-4" y="0" type="line"/>
			<point x="204" y="0" type="line"/>
			<point x="204" y="13" type="line"/>
			<point x="157" y="17" type="line" smooth="yes"/>
			<point x="105" y="21"/>
			<point x="115" y="38"/>
			<point x="127" y="53" type="curve" smooth="yes"/>
			<point x="245" y="194" type="line"/>
			<point x="326" y="64" type="line" smooth="yes"/>
			<point x="342" y="38"/>
			<point x="342" y="20"/>
			<point x="318" y="18" type="curve" smooth="yes"/>
			<point x="267" y="13" type="line"/>
			<point x="267" y="0" type="line"/>
			<point x="677" y="0" type="line"/>
			<point x="677" y="13" type="line"/>
			<point x="643" y="18" type="line" smooth="yes"/>
			<point x="609" y="23"/>
			<point x="586" y="44"/>
			<point x="563" y="78" type="curve" smooth="yes"/>
			<point x="388" y="342" type="line"/>
			<point x="469" y="435" type="line" smooth="yes"/>
			<point x="514" y="486"/>
			<point x="526" y="497"/>
			<point x="582" y="505" type="curve" smooth="yes"/>
			<point x="618" y="510" type="line"/>
			<point x="619" y="523" type="line"/>
			<point x="423" y="523" type="line"/>
			<point x="423" y="510" type="line"/>
			<point x="461" y="504" type="line" smooth="yes"/>
			<point x="480" y="501"/>
			<point x="481" y="483"/>
			<point x="446" y="443" type="curve" smooth="yes"/>
			<point x="376" y="363" type="line"/>
			<point x="312" y="460" type="line" smooth="yes"/>
			<point x="298" y="482"/>
			<point x="298" y="500"/>
			<point x="318" y="503" type="curve" smooth="yes"/>
			<point x="368" y="511" type="line"/>
			<point x="368" y="523" type="line"/>
			<point x="-30" y="523" type="line"/>
			<point x="-30" y="510" type="line"/>
			<point x="-4" y="506" type="line" smooth="yes"/>
			<point x="33" y="500"/>
			<point x="49" y="487"/>
			<point x="73" y="451" type="curve" smooth="yes"/>
			<point x="230" y="219" type="line"/>
			<point x="98" y="59" type="line" smooth="yes"/>
			<point x="77" y="33"/>
			<point x="60" y="24"/>
			<point x="39" y="20" type="curve" smooth="yes"/>
			<point x="-4" y="12" type="line"/>
		</contour>
	</outline>
</glyph>
<glyph name="y" format="2">
	<unicode hex="0079"/>
	<advance width="596"/>
	<outline>
		<contour>
			<point x="134" y="-230" type="curve" smooth="yes"/>
			<point x="256" y="-230"/>
			<point x="289" y="-166"/>
			<point x="361" y="24" type="curve" smooth="yes"/>
			<point x="523" y="450" type="line" smooth="yes"/>
			<point x="539" y="492"/>
			<point x="552" y="503"/>
			<point x="584" y="508" type="curve" smooth="yes"/>
			<point x="606" y="511" type="line"/>
			<point x="606" y="523" type="line"/>
			<point x="429" y="523" type="line"/>
			<point x="429" y="511" type="line"/>
			<point x="464" y="507" type="line" smooth="yes"/>
			<point x="495" y="503"/>
			<point x="509" y="490"/>
			<point x="493" y="447" type="curve" smooth="yes"/>
			<point x="403" y="205" type="line"/>
			<point x="400" y="205" type="line"/>
			<point x="304" y="448" type="line" smooth="yes"/>
			<point x="286" y="493"/>
			<point x="299" y="504"/>
			<point x="331" y="507" type="curve" smooth="yes"/>
			<point x="365" y="511" type="line"/>
			<point x="365" y="523" type="line"/>
			<point x="-10" y="523" type="line"/>
			<point x="-10" y="511" type="line"/>
			<point x="10" y="506" type="line" smooth="yes"/>
			<point x="43" y="498"/>
			<point x="50" y="489"/>
			<point x="67" y="446" type="curve" smooth="yes"/>
			<point x="289" y="-81" type="line"/>
			<point x="276" y="-107" type="line" smooth="yes"/>
			<point x="232" y="-195"/>
			<point x="187" y="-205"/>
			<point x="134" y="-203" type="curve"/>
			<point x="147" y="-147"/>
			<point x="154" y="-118"/>
			<point x="154" y="-99" type="curve" smooth="yes"/>
			<point x="154" y="-59"/>
			<point x="123" y="-31"/>
			<point x="74" y="-31" type="curve" smooth="yes"/>
			<point x="20" y="-31"/>
			<point x="-9" y="-70"/>
			<point x="-9" y="-118" type="curve" smooth="yes"/>
			<point x="-9" y="-184"/>
			<point x="42" y="-230"/>
		</contour>
	</outline>
	<anchor name="bottom" x="461" y="-30"/>
	<anchor name="top" x="308" y="550"/>
</glyph>
<glyph name="z" format="2">
	<unicode hex="007A"/>
	<advance width="556"/>
	<outline>
		<contour>
			<point x="15" y="0" type="line"/>
			<point x="505" y="0" type="line"/>
			<point x="522" y="233" type="line"/>
			<point x="506" y="233" type="line"/>
			<point x="457" y="60"/>
			<point x="426" y="16"/>
			<point x="321" y="16" type="curve" smooth="yes"/>
			<point x="252" y="16" type="line"/>
			<point x="536" y="511" type="line"/>
			<point x="536" y="523" type="line"/>
			<point x="49" y="523" type="line"/>
			<point x="37" y="321" type="line"/>
			<point x="51" y="321" type="line"/>
			<point x="73" y="431"/>
			<point x="103" y="507"/>
			<point x="182" y="507" type="curve" smooth="yes"/>
			<point x="309" y="507" type="line"/>
			<point x="15" y="13" type="line"/>
		</contour>
	</outline>
	<anchor name="bottom" x="276" y="-30"/>
	<anchor name="top" x="274" y="550"/>
</glyph>
<glyph name="cent" format="2">
	<unicode hex="00A2"/>
	<advance width="623"/>
	<outline>
		<contour>
			<point x="231" y="-29" type="line"/>
			<point x="258" y="-29" type="line"/>
			<point x="414" y="638" type="line"/>
			<point x="387" y="638" type="line"/>
		</contour>
		<contour>
			<point x="327" y="21" type="curve" smooth="yes"/>
			<point x="449" y="21"/>
			<point x="534" y="80"/>
			<point x="583" y="195" type="curve"/>
			<point x="575" y="202" type="line"/>
			<point x="525" y="170"/>
			<point x="482" y="151"/>
			<point x="421" y="151" type="curve" smooth="yes"/>
			<point x="322" y="151"/>
			<point x="278" y="221"/>
			<point x="278" y="342" type="curve" smooth="yes"/>
			<point x="278" y="498"/>
			<point x="313" y="555"/>
			<point x="374" y="555" type="curve" smooth="yes"/>
			<point x="403" y="555"/>
			<point x="440" y="542"/>
			<point x="461" y="524" type="curve"/>
			<point x="413" y="450"/>
			<point x="402" y="417"/>
			<point x="402" y="390" type="curve" smooth="yes"/>
			<point x="402" y="353"/>
			<point x="433" y="327"/>
			<point x="484" y="327" type="curve" smooth="yes"/>
			<point x="552" y="327"/>
			<point x="579" y="379"/>
			<point x="579" y="417" type="curve" smooth="yes"/>
			<point x="579" y="494"/>
			<point x="503" y="572"/>
			<point x="365" y="572" type="curve" smooth="yes"/>
			<point x="159" y="572"/>
			<point x="50" y="444"/>
			<point x="50" y="282" type="curve" smooth="yes"/>
			<point x="50" y="122"/>
			<point x="151" y="21"/>
		</contour>
	</outline>
	<anchor name="bottom" x="335" y="5"/>
	<anchor name="top" x="342" y="585"/>
</glyph>
<glyph name="sterling" format="2">
	<unicode hex="00A3"/>
	<advance width="647"/>
	<outline>
		<contour>
			<point x="60" y="0" type="line"/>
			<point x="575" y="0" type="line"/>
			<point x="602" y="252" type="line"/>
			<point x="588" y="252" type="line"/>
			<point x="549" y="152"/>
			<point x="539" y="138"/>
			<point x="470" y="138" type="curve" smooth="yes"/>
			<point x="215" y="138" type="line"/>
			<point x="214" y="141" type="line"/>
			<point x="337" y="210"/>
			<point x="384" y="260"/>
			<point x="384" y="327" type="curve" smooth="yes"/>
			<point x="384" y="336"/>
			<point x="383" y="345"/>
			<point x="382" y="354" type="curve"/>
			<point x="507" y="354" type="line"/>
			<point x="507" y="375" type="line"/>
			<point x="377" y="375" type="line"/>
			<point x="358" y="446"/>
			<point x="303" y="499"/>
			<point x="303" y="595" type="curve" smooth="yes"/>
			<point x="303" y="673"/>
			<point x="327" y="721"/>
			<point x="393" y="721" type="curve" smooth="yes"/>
			<point x="430" y="721"/>
			<point x="457" y="712"/>
			<point x="491" y="691" type="curve"/>
			<point x="438" y="617"/>
			<point x="424" y="594"/>
			<point x="424" y="563" type="curve" smooth="yes"/>
			<point x="424" y="523"/>
			<point x="468" y="499"/>
			<point x="516" y="499" type="curve" smooth="yes"/>
			<point x="569" y="499"/>
			<point x="602" y="526"/>
			<point x="602" y="574" type="curve" smooth="yes"/>
			<point x="602" y="659"/>
			<point x="502" y="742"/>
			<point x="371" y="742" type="curve" smooth="yes"/>
			<point x="193" y="742"/>
			<point x="69" y="653"/>
			<point x="69" y="523" type="curve" smooth="yes"/>
			<point x="69" y="461"/>
			<point x="92" y="417"/>
			<point x="115" y="375" type="curve"/>
			<point x="23" y="375" type="line"/>
			<point x="20" y="354" type="line"/>
			<point x="127" y="354" type="line"/>
			<point x="148" y="317"/>
			<point x="166" y="280"/>
			<point x="166" y="232" type="curve" smooth="yes"/>
			<point x="166" y="163"/>
			<point x="138" y="127"/>
			<point x="49" y="78" type="curve"/>
		</contour>
	</outline>
</glyph>
<glyph name="currency" format="2">
	<unicode hex="00A4"/>
	<advance width="606"/>
	<outline>
		<contour>
			<point x="535" y="135" type="line"/>
			<point x="547" y="147" type="line"/>
			<point x="482" y="256" type="line"/>
			<point x="507" y="288"/>
			<point x="521" y="330"/>
			<point x="521" y="379" type="curve" smooth="yes"/>
			<point x="521" y="421"/>
			<point x="509" y="458"/>
			<point x="486" y="488" type="curve"/>
			<point x="550" y="595" type="line"/>
			<point x="538" y="607" type="line"/>
			<point x="427" y="537" type="line"/>
			<point x="393" y="555"/>
			<point x="351" y="565"/>
			<point x="302" y="565" type="curve" smooth="yes"/>
			<point x="254" y="565"/>
			<point x="212" y="555"/>
			<point x="177" y="536" type="curve"/>
			<point x="67" y="605" type="line"/>
			<point x="55" y="593" type="line"/>
			<point x="119" y="486" type="line"/>
			<point x="97" y="456"/>
			<point x="84" y="418"/>
			<point x="84" y="375" type="curve" smooth="yes"/>
			<point x="84" y="332"/>
			<point x="96" y="294"/>
			<point x="118" y="263" type="curve"/>
			<point x="54" y="155" type="line"/>
			<point x="66" y="143" type="line"/>
			<point x="175" y="211" type="line"/>
			<point x="210" y="191"/>
			<point x="254" y="179"/>
			<point x="303" y="179" type="curve" smooth="yes"/>
			<point x="349" y="179"/>
			<point x="389" y="188"/>
			<point x="422" y="206" type="curve"/>
		</contour>
		<contour>
			<point x="304" y="196" type="curve" smooth="yes"/>
			<point x="264" y="196"/>
			<point x="258" y="263"/>
			<point x="258" y="368" type="curve" smooth="yes"/>
			<point x="258" y="480"/>
			<point x="264" y="548"/>
			<point x="304" y="548" type="curve" smooth="yes"/>
			<point x="340" y="548"/>
			<point x="350" y="483"/>
			<point x="350" y="377" type="curve" smooth="yes"/>
			<point x="350" y="266"/>
			<point x="340" y="196"/>
		</contour>
	</outline>
</glyph>
<glyph name="brokenbar" format="2">
	<unicode hex="00A6"/>
	<advance width="229"/>
	<outline>
		<contour>
			<point x="100" y="-110" type="line"/>
			<point x="129" y="-110" type="line"/>
			<point x="129" y="289" type="line"/>
			<point x="100" y="289" type="line"/>
		</contour>
		<contour>
			<point x="100" y="404" type="line"/>
			<point x="129" y="404" type="line"/>
			<point x="129" y="803" type="line"/>
			<point x="100" y="803" type="line"/>
		</contour>
	</outline>
</glyph>
<glyph name="section" format="2">
	<unicode hex="00A7"/>
	<advance width="663"/>
	<outline>
		<contour>
			<point x="453" y="454" type="curve" smooth="yes"/>
			<point x="338" y="550"/>
			<point x="304" y="591"/>
			<point x="304" y="638" type="curve" smooth="yes"/>
			<point x="304" y="679"/>
			<point x="332" y="704"/>
			<point x="366" y="704" type="curve" smooth="yes"/>
			<point x="386" y="704"/>
			<point x="401" y="699"/>
			<point x="417" y="695" type="curve"/>
			<point x="392" y="627"/>
			<point x="379" y="591"/>
			<point x="379" y="574" type="curve" smooth="yes"/>
			<point x="379" y="548"/>
			<point x="403" y="525"/>
			<point x="444" y="525" type="curve" smooth="yes"/>
			<point x="489" y="525"/>
			<point x="531" y="555"/>
			<point x="531" y="611" type="curve" smooth="yes"/>
			<point x="531" y="675"/>
			<point x="440" y="722"/>
			<point x="341" y="722" type="curve" smooth="yes"/>
			<point x="228" y="722"/>
			<point x="143" y="662"/>
			<point x="143" y="568" type="curve" smooth="yes"/>
			<point x="143" y="523"/>
			<point x="155" y="492"/>
			<point x="180" y="459" type="curve"/>
			<point x="83" y="416"/>
			<point x="35" y="382"/>
			<point x="35" y="319" type="curve" smooth="yes"/>
			<point x="35" y="248"/>
			<point x="93" y="196"/>
			<point x="225" y="104" type="curve" smooth="yes"/>
			<point x="346" y="20"/>
			<point x="376" y="-25"/>
			<point x="376" y="-80" type="curve" smooth="yes"/>
			<point x="376" y="-121"/>
			<point x="346" y="-146"/>
			<point x="312" y="-146" type="curve" smooth="yes"/>
			<point x="292" y="-146"/>
			<point x="277" y="-141"/>
			<point x="261" y="-137" type="curve"/>
			<point x="286" y="-69"/>
			<point x="299" y="-33"/>
			<point x="299" y="-16" type="curve" smooth="yes"/>
			<point x="299" y="10"/>
			<point x="275" y="33"/>
			<point x="234" y="33" type="curve" smooth="yes"/>
			<point x="189" y="33"/>
			<point x="147" y="3"/>
			<point x="147" y="-53" type="curve" smooth="yes"/>
			<point x="147" y="-117"/>
			<point x="238" y="-164"/>
			<point x="337" y="-164" type="curve" smooth="yes"/>
			<point x="450" y="-164"/>
			<point x="535" y="-104"/>
			<point x="535" y="-10" type="curve" smooth="yes"/>
			<point x="535" y="35"/>
			<point x="523" y="66"/>
			<point x="498" y="99" type="curve"/>
			<point x="595" y="142"/>
			<point x="643" y="176"/>
			<point x="643" y="239" type="curve" smooth="yes"/>
			<point x="643" y="303"/>
			<point x="595" y="336"/>
		</contour>
		<contour>
			<point x="487" y="112" type="curve"/>
			<point x="459" y="143"/>
			<point x="418" y="185"/>
			<point x="333" y="248" type="curve" smooth="yes"/>
			<point x="207" y="343"/>
			<point x="184" y="362"/>
			<point x="184" y="418" type="curve" smooth="yes"/>
			<point x="184" y="428"/>
			<point x="186" y="437"/>
			<point x="191" y="446" type="curve"/>
			<point x="219" y="415"/>
			<point x="254" y="379"/>
			<point x="343" y="310" type="curve" smooth="yes"/>
			<point x="452" y="226"/>
			<point x="494" y="196"/>
			<point x="494" y="140" type="curve" smooth="yes"/>
			<point x="494" y="130"/>
			<point x="492" y="121"/>
		</contour>
	</outline>
</glyph>
<glyph name="dieresis" format="2">
	<unicode hex="00A8"/>
	<advance width="500"/>
	<outline>
		<contour>
			<point x="382" y="603" type="curve" smooth="yes"/>
			<point x="445" y="603"/>
			<point x="486" y="638"/>
			<point x="486" y="695" type="curve" smooth="yes"/>
			<point x="486" y="753"/>
			<point x="451" y="787"/>
			<point x="382" y="787" type="curve" smooth="yes"/>
			<point x="314" y="787"/>
			<point x="277" y="752"/>
			<point x="277" y="696" type="curve" smooth="yes"/>
			<point x="277" y="637"/>
			<point x="317" y="603"/>
		</contour>
		<contour>
			<point x="119" y="603" type="curve" smooth="yes"/>
			<point x="182" y="603"/>
			<point x="223" y="638"/>
			<point x="223" y="695" type="curve" smooth="yes"/>
			<point x="223" y="753"/>
			<point x="188" y="787"/>
			<point x="119" y="787" type="curve" smooth="yes"/>
			<point x="51" y="787"/>
			<point x="14" y="752"/>
			<point x="14" y="696" type="curve" smooth="yes"/>
			<point x="14" y="637"/>
			<point x="54" y="603"/>
		</contour>
	</outline>
	<anchor name="_top" x="250" y="550"/>
</glyph>
<glyph name="ordfeminine" format="2">
	<unicode hex="00AA"/>
	<advance width="492"/>
	<outline>
		<contour>
			<point x="131" y="362" type="curve" smooth="yes"/>
			<point x="193" y="362"/>
			<point x="235" y="384"/>
			<point x="251" y="427" type="curve"/>
			<point x="279" y="378"/>
			<point x="313" y="362"/>
			<point x="363" y="362" type="curve" smooth="yes"/>
			<point x="418" y="362"/>
			<point x="456" y="377"/>
			<point x="492" y="401" type="curve"/>
			<point x="488" y="413" type="line"/>
			<point x="473" y="406"/>
			<point x="461" y="401"/>
			<point x="445" y="401" type="curve" smooth="yes"/>
			<point x="424" y="401"/>
			<point x="412" y="412"/>
			<point x="412" y="441" type="curve" smooth="yes"/>
			<point x="412" y="609" type="line" smooth="yes"/>
			<point x="412" y="729"/>
			<point x="324" y="742"/>
			<point x="226" y="742" type="curve" smooth="yes"/>
			<point x="129" y="742"/>
			<point x="44" y="700"/>
			<point x="44" y="646" type="curve" smooth="yes"/>
			<point x="44" y="612"/>
			<point x="68" y="596"/>
			<point x="104" y="596" type="curve" smooth="yes"/>
			<point x="135" y="596"/>
			<point x="169" y="612"/>
			<point x="169" y="640" type="curve" smooth="yes"/>
			<point x="169" y="656"/>
			<point x="150" y="684"/>
			<point x="132" y="710" type="curve"/>
			<point x="150" y="718"/>
			<point x="167" y="723"/>
			<point x="187" y="723" type="curve" smooth="yes"/>
			<point x="240" y="723"/>
			<point x="238" y="660"/>
			<point x="238" y="610" type="curve" smooth="yes"/>
			<point x="238" y="572" type="line"/>
			<point x="202" y="568"/>
			<point x="175" y="565"/>
			<point x="146" y="561" type="curve" smooth="yes"/>
			<point x="58" y="549"/>
			<point x="22" y="516"/>
			<point x="22" y="461" type="curve" smooth="yes"/>
			<point x="22" y="393"/>
			<point x="67" y="362"/>
		</contour>
		<contour>
			<point x="219" y="417" type="curve" smooth="yes"/>
			<point x="204" y="417"/>
			<point x="200" y="436"/>
			<point x="200" y="476" type="curve" smooth="yes"/>
			<point x="200" y="546"/>
			<point x="213" y="557"/>
			<point x="238" y="557" type="curve"/>
			<point x="238" y="483" type="line" smooth="yes"/>
			<point x="238" y="434"/>
			<point x="232" y="417"/>
		</contour>
	</outline>
</glyph>
<glyph name="logicalnot" format="2">
	<unicode hex="00AC"/>
	<advance width="582"/>
	<outline>
		<contour>
			<point x="474" y="154" type="line"/>
			<point x="495" y="154" type="line"/>
			<point x="495" y="351" type="line"/>
			<point x="87" y="351" type="line"/>
			<point x="87" y="330" type="line"/>
			<point x="474" y="330" type="line"/>
		</contour>
	</outline>
</glyph>
<glyph name="registered" format="2">
	<unicode hex="00AE"/>
	<advance width="529"/>
	<outline>
		<contour>
			<point x="263" y="369" type="curve" smooth="yes"/>
			<point x="391" y="369"/>
			<point x="479" y="456"/>
			<point x="479" y="581" type="curve" smooth="yes"/>
			<point x="479" y="707"/>
			<point x="396" y="787"/>
			<point x="264" y="787" type="curve" smooth="yes"/>
			<point x="147" y="787"/>
			<point x="50" y="707"/>
			<point x="50" y="574" type="curve" smooth="yes"/>
			<point x="50" y="457"/>
			<point x="122" y="369"/>
		</contour>
		<contour>
			<point x="353" y="455" type="curve" smooth="yes"/>
			<point x="315" y="455"/>
			<point x="299" y="468"/>
			<point x="291" y="502" type="curve" smooth="yes"/>
			<point x="280" y="548" type="line" smooth="yes"/>
			<point x="277" y="561"/>
			<point x="270" y="573"/>
			<point x="260" y="573" type="curve" smooth="yes"/>
			<point x="256" y="573" type="line"/>
			<point x="256" y="492" type="line" smooth="yes"/>
			<point x="256" y="477"/>
			<point x="262" y="470"/>
			<point x="280" y="468" type="curve" smooth="yes"/>
			<point x="289" y="467" type="line"/>
			<point x="289" y="459" type="line"/>
			<point x="144" y="459" type="line"/>
			<point x="144" y="467" type="line"/>
			<point x="157" y="468" type="line" smooth="yes"/>
			<point x="175" y="469"/>
			<point x="181" y="477"/>
			<point x="181" y="492" type="curve" smooth="yes"/>
			<point x="181" y="670" type="line" smooth="yes"/>
			<point x="181" y="685"/>
			<point x="175" y="693"/>
			<point x="157" y="694" type="curve" smooth="yes"/>
			<point x="144" y="695" type="line"/>
			<point x="144" y="703" type="line"/>
			<point x="273" y="703" type="line" smooth="yes"/>
			<point x="328" y="703"/>
			<point x="361" y="688"/>
			<point x="361" y="641" type="curve" smooth="yes"/>
			<point x="361" y="605"/>
			<point x="341" y="587"/>
			<point x="292" y="581" type="curve"/>
			<point x="292" y="579" type="line"/>
			<point x="335" y="578"/>
			<point x="351" y="570"/>
			<point x="360" y="541" type="curve" smooth="yes"/>
			<point x="374" y="497" type="line" smooth="yes"/>
			<point x="378" y="483"/>
			<point x="381" y="471"/>
			<point x="394" y="471" type="curve" smooth="yes"/>
			<point x="398" y="471"/>
			<point x="402" y="472"/>
			<point x="408" y="474" type="curve"/>
			<point x="408" y="467" type="line"/>
			<point x="394" y="460"/>
			<point x="379" y="455"/>
		</contour>
		<contour>
			<point x="256" y="584" type="line"/>
			<point x="262" y="584" type="line" smooth="yes"/>
			<point x="277" y="584"/>
			<point x="280" y="603"/>
			<point x="280" y="641" type="curve" smooth="yes"/>
			<point x="280" y="666"/>
			<point x="278" y="692"/>
			<point x="261" y="692" type="curve" smooth="yes"/>
			<point x="256" y="692" type="line"/>
		</contour>
	</outline>
</glyph>
<glyph name="plusminus" format="2">
	<unicode hex="00B1"/>
	<advance width="582"/>
	<outline>
		<contour>
			<point x="276" y="141" type="line"/>
			<point x="299" y="141" type="line"/>
			<point x="299" y="347" type="line"/>
			<point x="502" y="347" type="line"/>
			<point x="502" y="368" type="line"/>
			<point x="299" y="368" type="line"/>
			<point x="299" y="561" type="line"/>
			<point x="276" y="561" type="line"/>
			<point x="276" y="368" type="line"/>
			<point x="80" y="368" type="line"/>
			<point x="80" y="347" type="line"/>
			<point x="276" y="347" type="line"/>
		</contour>
		<contour>
			<point x="100" y="1" type="line"/>
			<point x="482" y="1" type="line"/>
			<point x="482" y="22" type="line"/>
			<point x="100" y="22" type="line"/>
		</contour>
	</outline>
</glyph>
<glyph name="twosuperior" format="2">
	<unicode hex="00B2"/>
	<advance width="441"/>
	<outline>
		<contour>
			<point x="50" y="374" type="line"/>
			<point x="380" y="374" type="line"/>
			<point x="403" y="562" type="line"/>
			<point x="389" y="562" type="line"/>
			<point x="371" y="517"/>
			<point x="364" y="500"/>
			<point x="328" y="500" type="curve" smooth="yes"/>
			<point x="94" y="500" type="line"/>
			<point x="261" y="573"/>
			<point x="406" y="644"/>
			<point x="406" y="737" type="curve" smooth="yes"/>
			<point x="406" y="814"/>
			<point x="341" y="851"/>
			<point x="220" y="851" type="curve" smooth="yes"/>
			<point x="112" y="851"/>
			<point x="31" y="814"/>
			<point x="31" y="748" type="curve" smooth="yes"/>
			<point x="31" y="705"/>
			<point x="56" y="684"/>
			<point x="99" y="684" type="curve" smooth="yes"/>
			<point x="134" y="684"/>
			<point x="158" y="710"/>
			<point x="158" y="736" type="curve" smooth="yes"/>
			<point x="158" y="761"/>
			<point x="131" y="793"/>
			<point x="117" y="818" type="curve"/>
			<point x="134" y="825"/>
			<point x="150" y="828"/>
			<point x="165" y="828" type="curve" smooth="yes"/>
			<point x="212" y="828"/>
			<point x="231" y="793"/>
			<point x="231" y="735" type="curve" smooth="yes"/>
			<point x="231" y="672"/>
			<point x="200" y="598"/>
			<point x="38" y="484" type="curve"/>
		</contour>
	</outline>
</glyph>
<glyph name="acute" format="2">
	<unicode hex="00B4"/>
	<advance width="500"/>
	<outline>
		<contour>
			<point x="186" y="576" type="line"/>
			<point x="367" y="677" type="line" smooth="yes"/>
			<point x="398" y="694"/>
			<point x="415" y="713"/>
			<point x="415" y="742" type="curve" smooth="yes"/>
			<point x="415" y="782"/>
			<point x="384" y="824"/>
			<point x="338" y="824" type="curve" smooth="yes"/>
			<point x="315" y="824"/>
			<point x="298" y="815"/>
			<point x="280" y="780" type="curve" smooth="yes"/>
			<point x="178" y="585" type="line"/>
		</contour>
	</outline>
	<anchor name="_top" x="250" y="550"/>
</glyph>
<glyph name="cedilla" format="2">
	<unicode hex="00B8"/>
	<advance width="500"/>
	<outline>
		<contour>
			<point x="257" y="-258" type="curve" smooth="yes"/>
			<point x="336" y="-258"/>
			<point x="385" y="-215"/>
			<point x="385" y="-142" type="curve" smooth="yes"/>
			<point x="385" y="-65"/>
			<point x="296" y="-15"/>
			<point x="195" y="-71" type="curve"/>
			<point x="227" y="0" type="line"/>
			<point x="208" y="0" type="line"/>
			<point x="169" y="-85" type="line"/>
			<point x="176" y="-96" type="line"/>
			<point x="189" y="-92"/>
			<point x="201" y="-88"/>
			<point x="216" y="-88" type="curve" smooth="yes"/>
			<point x="242" y="-88"/>
			<point x="257" y="-109"/>
			<point x="257" y="-140" type="curve" smooth="yes"/>
			<point x="257" y="-170"/>
			<point x="239" y="-195"/>
			<point x="198" y="-195" type="curve" smooth="yes"/>
			<point x="172" y="-195"/>
			<point x="139" y="-185"/>
			<point x="107" y="-161" type="curve"/>
			<point x="95" y="-172" type="line"/>
			<point x="140" y="-235"/>
			<point x="194" y="-258"/>
		</contour>
	</outline>
	<anchor name="_bottom" x="250" y="-30"/>
</glyph>
<glyph name="onesuperior" format="2">
	<unicode hex="00B9"/>
	<advance width="390"/>
	<outline>
		<contour>
			<point x="32" y="374" type="line"/>
			<point x="377" y="374" type="line"/>
			<point x="377" y="386" type="line"/>
			<point x="325" y="390" type="line" smooth="yes"/>
			<point x="300" y="392"/>
			<point x="298" y="400"/>
			<point x="298" y="430" type="curve" smooth="yes"/>
			<point x="298" y="834" type="line"/>
			<point x="285" y="846" type="line"/>
			<point x="27" y="810" type="line"/>
			<point x="25" y="798" type="line"/>
			<point x="82" y="796" type="line" smooth="yes"/>
			<point x="114" y="795"/>
			<point x="116" y="785"/>
			<point x="116" y="758" type="curve" smooth="yes"/>
			<point x="116" y="430" type="line" smooth="yes"/>
			<point x="116" y="400"/>
			<point x="114" y="392"/>
			<point x="89" y="390" type="curve" smooth="yes"/>
			<point x="32" y="386" type="line"/>
		</contour>
	</outline>
</glyph>
<glyph name="AE" format="2">
	<unicode hex="00C6"/>
	<advance width="1026"/>
	<outline>
		<contour>
			<point x="-10" y="0" type="line"/>
			<point x="246" y="0" type="line"/>
			<point x="246" y="13" type="line"/>
			<point x="204" y="18" type="line" smooth="yes"/>
			<point x="171" y="22"/>
			<point x="110" y="25"/>
			<point x="139" y="78" type="curve" smooth="yes"/>
			<point x="262" y="303" type="line"/>
			<point x="504" y="303" type="line"/>
			<point x="504" y="77" type="line" smooth="yes"/>
			<point x="504" y="33"/>
			<point x="495" y="15"/>
			<point x="471" y="14" type="curve" smooth="yes"/>
			<point x="408" y="12" type="line"/>
			<point x="408" y="0" type="line"/>
			<point x="982" y="0" type="line"/>
			<point x="1001" y="201" type="line"/>
			<point x="987" y="201" type="line"/>
			<point x="920" y="47"/>
			<point x="888" y="16"/>
			<point x="798" y="16" type="curve" smooth="yes"/>
			<point x="734" y="16" type="line"/>
			<point x="734" y="366" type="line"/>
			<point x="785" y="366" type="line" smooth="yes"/>
			<point x="822" y="366"/>
			<point x="840" y="341"/>
			<point x="863" y="254" type="curve"/>
			<point x="877" y="256" type="line"/>
			<point x="877" y="482" type="line"/>
			<point x="864" y="480" type="line"/>
			<point x="834" y="403"/>
			<point x="824" y="382"/>
			<point x="784" y="382" type="curve" smooth="yes"/>
			<point x="734" y="382" type="line"/>
			<point x="734" y="714" type="line"/>
			<point x="778" y="714" type="line" smooth="yes"/>
			<point x="865" y="714"/>
			<point x="904" y="693"/>
			<point x="970" y="531" type="curve"/>
			<point x="983" y="535" type="line"/>
			<point x="955" y="730" type="line"/>
			<point x="351" y="730" type="line"/>
			<point x="351" y="718" type="line"/>
			<point x="454" y="702" type="line"/>
			<point x="130" y="110" type="line" smooth="yes"/>
			<point x="107" y="67"/>
			<point x="81" y="20"/>
			<point x="23" y="15" type="curve" smooth="yes"/>
			<point x="-10" y="12" type="line"/>
		</contour>
		<contour>
			<point x="272" y="321" type="line"/>
			<point x="478" y="700" type="line"/>
			<point x="504" y="700" type="line"/>
			<point x="504" y="321" type="line"/>
		</contour>
	</outline>
	<anchor name="bottom" x="592" y="-30"/>
	<anchor name="top" x="700" y="730"/>
</glyph>
<glyph name="Ccedilla" format="2">
	<unicode hex="00C7"/>
	<advance width="689"/>
	<outline>
		<contour>
			<point x="401" y="-258" type="curve" smooth="yes"/>
			<point x="480" y="-258"/>
			<point x="529" y="-215"/>
			<point x="529" y="-142" type="curve" smooth="yes"/>
			<point x="529" y="-65"/>
			<point x="440" y="-15"/>
			<point x="339" y="-71" type="curve"/>
			<point x="365" y="-13" type="line"/>
			<point x="377" y="-14"/>
			<point x="389" y="-14"/>
			<point x="401" y="-14" type="curve" smooth="yes"/>
			<point x="578" y="-14"/>
			<point x="634" y="90"/>
			<point x="668" y="154" type="curve"/>
			<point x="658" y="160" type="line"/>
			<point x="603" y="70"/>
			<point x="528" y="30"/>
			<point x="454" y="30" type="curve" smooth="yes"/>
			<point x="352" y="30"/>
			<point x="279" y="122"/>
			<point x="279" y="377" type="curve" smooth="yes"/>
			<point x="279" y="590"/>
			<point x="310" y="727"/>
			<point x="414" y="727" type="curve" smooth="yes"/>
			<point x="500" y="727"/>
			<point x="574" y="665"/>
			<point x="634" y="488" type="curve"/>
			<point x="652" y="494" type="line"/>
			<point x="609" y="744" type="line"/>
			<point x="594" y="744" type="line"/>
			<point x="578" y="674" type="line"/>
			<point x="538" y="709"/>
			<point x="481" y="744"/>
			<point x="393" y="744" type="curve" smooth="yes"/>
			<point x="195" y="744"/>
			<point x="32" y="597"/>
			<point x="32" y="372" type="curve" smooth="yes"/>
			<point x="32" y="138"/>
			<point x="142" y="7"/>
			<point x="347" y="-12" type="curve"/>
			<point x="313" y="-85" type="line"/>
			<point x="320" y="-96" type="line"/>
			<point x="333" y="-92"/>
			<point x="345" y="-88"/>
			<point x="360" y="-88" type="curve" smooth="yes"/>
			<point x="386" y="-88"/>
			<point x="401" y="-109"/>
			<point x="401" y="-140" type="curve" smooth="yes"/>
			<point x="401" y="-170"/>
			<point x="383" y="-195"/>
			<point x="342" y="-195" type="curve" smooth="yes"/>
			<point x="316" y="-195"/>
			<point x="283" y="-185"/>
			<point x="251" y="-161" type="curve"/>
			<point x="239" y="-172" type="line"/>
			<point x="284" y="-235"/>
			<point x="338" y="-258"/>
		</contour>
	</outline>
	<anchor name="bottom" x="394" y="-30"/>
	<anchor name="top" x="382" y="730"/>
</glyph>
<glyph name="multiply" format="2">
	<unicode hex="00D7"/>
	<advance width="582"/>
	<outline>
		<contour>
			<point x="441" y="140" type="line"/>
			<point x="455" y="155" type="line"/>
			<point x="304" y="306" type="line"/>
			<point x="455" y="457" type="line"/>
			<point x="440" y="470" type="line"/>
			<point x="290" y="320" type="line"/>
			<point x="140" y="470" type="line"/>
			<point x="125" y="457" type="line"/>
			<point x="276" y="306" type="line"/>
			<point x="125" y="155" type="line"/>
			<point x="139" y="140" type="line"/>
			<point x="290" y="291" type="line"/>
		</contour>
	</outline>
</glyph>
<glyph name="Thorn" format="2">
	<unicode hex="00DE"/>
	<advance width="698"/>
	<outline>
		<contour>
			<point x="37" y="0" type="line"/>
			<point x="411" y="0" type="line"/>
			<point x="411" y="12" type="line"/>
			<point x="370" y="14" type="line" smooth="yes"/>
			<point x="344" y="15"/>
			<point x="336" y="25"/>
			<point x="336" y="66" type="curve" smooth="yes"/>
			<point x="336" y="169" type="line"/>
			<point x="354" y="167"/>
			<point x="371" y="166"/>
			<point x="395" y="166" type="curve" smooth="yes"/>
			<point x="503" y="166"/>
			<point x="673" y="213"/>
			<point x="673" y="366" type="curve" smooth="yes"/>
			<point x="673" y="496"/>
			<point x="576" y="555"/>
			<point x="364" y="555" type="curve" smooth="yes"/>
			<point x="336" y="555" type="line"/>
			<point x="336" y="667" type="line" smooth="yes"/>
			<point x="336" y="703"/>
			<point x="344" y="716"/>
			<point x="368" y="717" type="curve" smooth="yes"/>
			<point x="411" y="718" type="line"/>
			<point x="411" y="730" type="line"/>
			<point x="37" y="730" type="line"/>
			<point x="37" y="718" type="line"/>
			<point x="66" y="717" type="line" smooth="yes"/>
			<point x="96" y="716"/>
			<point x="102" y="706"/>
			<point x="102" y="673" type="curve" smooth="yes"/>
			<point x="102" y="70" type="line" smooth="yes"/>
			<point x="102" y="26"/>
			<point x="96" y="15"/>
			<point x="71" y="14" type="curve" smooth="yes"/>
			<point x="37" y="12" type="line"/>
		</contour>
		<contour>
			<point x="336" y="188" type="curve"/>
			<point x="336" y="536" type="line"/>
			<point x="347" y="536" type="line" smooth="yes"/>
			<point x="429" y="536"/>
			<point x="434" y="456"/>
			<point x="434" y="374" type="curve" smooth="yes"/>
			<point x="434" y="291"/>
			<point x="443" y="187"/>
			<point x="356" y="187" type="curve" smooth="yes"/>
			<point x="349" y="187"/>
			<point x="344" y="187"/>
		</contour>
	</outline>
</glyph>
<glyph name="germandbls" format="2">
	<unicode hex="00DF"/>
	<advance width="846"/>
	<outline>
		<contour>
			<point x="400" y="-14" type="line"/>
			<point x="414" y="-14" type="line"/>
			<point x="436" y="57" type="line"/>
			<point x="467" y="21"/>
			<point x="526" y="-14"/>
			<point x="601" y="-14" type="curve" smooth="yes"/>
			<point x="715" y="-14"/>
			<point x="821" y="60"/>
			<point x="821" y="195" type="curve" smooth="yes"/>
			<point x="821" y="375"/>
			<point x="506" y="391"/>
			<point x="506" y="471" type="curve" smooth="yes"/>
			<point x="506" y="550"/>
			<point x="718" y="533"/>
			<point x="718" y="660" type="curve" smooth="yes"/>
			<point x="718" y="738"/>
			<point x="628" y="782"/>
			<point x="443" y="782" type="curve" smooth="yes"/>
			<point x="266" y="782"/>
			<point x="92" y="703"/>
			<point x="92" y="535" type="curve" smooth="yes"/>
			<point x="92" y="522" type="line"/>
			<point x="27" y="516" type="line"/>
			<point x="27" y="506" type="line"/>
			<point x="91" y="506" type="line"/>
			<point x="91" y="70" type="line" smooth="yes"/>
			<point x="91" y="26"/>
			<point x="85" y="15"/>
			<point x="60" y="14" type="curve" smooth="yes"/>
			<point x="26" y="12" type="line"/>
			<point x="26" y="0" type="line"/>
			<point x="325" y="0" type="line"/>
			<point x="325" y="619" type="line" smooth="yes"/>
			<point x="325" y="720"/>
			<point x="362" y="764"/>
			<point x="436" y="764" type="curve" smooth="yes"/>
			<point x="481" y="764"/>
			<point x="536" y="740"/>
			<point x="536" y="631" type="curve" smooth="yes"/>
			<point x="536" y="488"/>
			<point x="414" y="433"/>
			<point x="414" y="337" type="curve" smooth="yes"/>
			<point x="414" y="173"/>
			<point x="680" y="200"/>
			<point x="680" y="76" type="curve" smooth="yes"/>
			<point x="680" y="31"/>
			<point x="645" y="4"/>
			<point x="595" y="4" type="curve" smooth="yes"/>
			<point x="518" y="4"/>
			<point x="450" y="45"/>
			<point x="406" y="216" type="curve"/>
			<point x="390" y="216" type="line"/>
		</contour>
	</outline>
</glyph>
<glyph name="ae" format="2">
	<unicode hex="00E6"/>
	<advance width="873"/>
	<outline>
		<contour>
			<point x="181" y="-14" type="curve" smooth="yes"/>
			<point x="274" y="-14"/>
			<point x="339" y="12"/>
			<point x="338" y="137" type="curve"/>
			<point x="373" y="41"/>
			<point x="457" y="-14"/>
			<point x="590" y="-14" type="curve" smooth="yes"/>
			<point x="715" y="-14"/>
			<point x="812" y="61"/>
			<point x="851" y="167" type="curve"/>
			<point x="841" y="173" type="line"/>
			<point x="776" y="128"/>
			<point x="725" y="116"/>
			<point x="671" y="116" type="curve" smooth="yes"/>
			<point x="568" y="116"/>
			<point x="550" y="186"/>
			<point x="549" y="287" type="curve"/>
			<point x="848" y="287" type="line"/>
			<point x="849" y="307"/>
			<point x="850" y="322"/>
			<point x="850" y="336" type="curve" smooth="yes"/>
			<point x="850" y="462"/>
			<point x="752" y="537"/>
			<point x="615" y="537" type="curve" smooth="yes"/>
			<point x="546" y="537"/>
			<point x="483" y="519"/>
			<point x="433" y="484" type="curve"/>
			<point x="401" y="517"/>
			<point x="360" y="537"/>
			<point x="289" y="537" type="curve" smooth="yes"/>
			<point x="119" y="537"/>
			<point x="39" y="447"/>
			<point x="39" y="383" type="curve" smooth="yes"/>
			<point x="39" y="339"/>
			<point x="65" y="306"/>
			<point x="128" y="306" type="curve" smooth="yes"/>
			<point x="181" y="306"/>
			<point x="210" y="334"/>
			<point x="210" y="367" type="curve" smooth="yes"/>
			<point x="210" y="386"/>
			<point x="204" y="408"/>
			<point x="139" y="482" type="curve"/>
			<point x="159" y="502"/>
			<point x="209" y="517"/>
			<point x="239" y="517" type="curve" smooth="yes"/>
			<point x="297" y="517"/>
			<point x="318" y="490"/>
			<point x="318" y="416" type="curve" smooth="yes"/>
			<point x="318" y="280" type="line"/>
			<point x="279" y="278"/>
			<point x="248" y="275"/>
			<point x="220" y="271" type="curve" smooth="yes"/>
			<point x="79" y="253"/>
			<point x="27" y="214"/>
			<point x="27" y="123" type="curve" smooth="yes"/>
			<point x="27" y="34"/>
			<point x="83" y="-14"/>
		</contour>
		<contour>
			<point x="280" y="57" type="curve" smooth="yes"/>
			<point x="254" y="57"/>
			<point x="244" y="78"/>
			<point x="244" y="147" type="curve" smooth="yes"/>
			<point x="244" y="220"/>
			<point x="255" y="249"/>
			<point x="293" y="260" type="curve" smooth="yes"/>
			<point x="302" y="263"/>
			<point x="312" y="263"/>
			<point x="318" y="264" type="curve"/>
			<point x="318" y="120" type="line" smooth="yes"/>
			<point x="318" y="76"/>
			<point x="307" y="57"/>
		</contour>
		<contour>
			<point x="549" y="303" type="line"/>
			<point x="553" y="481"/>
			<point x="574" y="518"/>
			<point x="608" y="518" type="curve" smooth="yes"/>
			<point x="640" y="518"/>
			<point x="644" y="476"/>
			<point x="644" y="381" type="curve" smooth="yes"/>
			<point x="644" y="356"/>
			<point x="643" y="331"/>
			<point x="640" y="303" type="curve"/>
		</contour>
	</outline>
	<anchor name="bottom" x="384" y="-30"/>
	<anchor name="top" x="459" y="550"/>
</glyph>
<glyph name="eth" format="2">
	<unicode hex="00F0"/>
	<advance width="643"/>
	<outline>
		<contour>
			<point x="301" y="-14" type="curve" smooth="yes"/>
			<point x="524" y="-14"/>
			<point x="613" y="156"/>
			<point x="613" y="353" type="curve" smooth="yes"/>
			<point x="613" y="535"/>
			<point x="548" y="650"/>
			<point x="434" y="714" type="curve"/>
			<point x="519" y="770" type="line"/>
			<point x="509" y="788" type="line"/>
			<point x="412" y="725" type="line"/>
			<point x="338" y="760"/>
			<point x="245" y="776"/>
			<point x="137" y="776" type="curve"/>
			<point x="134" y="759" type="line"/>
			<point x="222" y="746"/>
			<point x="281" y="712"/>
			<point x="321" y="665" type="curve"/>
			<point x="217" y="596" type="line"/>
			<point x="228" y="578" type="line"/>
			<point x="334" y="648" type="line"/>
			<point x="373" y="595"/>
			<point x="391" y="528"/>
			<point x="402" y="458" type="curve"/>
			<point x="400" y="457" type="line"/>
			<point x="369" y="482"/>
			<point x="338" y="496"/>
			<point x="284" y="496" type="curve" smooth="yes"/>
			<point x="152" y="496"/>
			<point x="27" y="424"/>
			<point x="27" y="239" type="curve" smooth="yes"/>
			<point x="27" y="76"/>
			<point x="134" y="-14"/>
		</contour>
		<contour>
			<point x="322" y="4" type="curve" smooth="yes"/>
			<point x="258" y="4"/>
			<point x="262" y="134"/>
			<point x="262" y="257" type="curve" smooth="yes"/>
			<point x="262" y="365"/>
			<point x="284" y="472"/>
			<point x="326" y="472" type="curve" smooth="yes"/>
			<point x="348" y="472"/>
			<point x="363" y="455"/>
			<point x="375" y="429" type="curve" smooth="yes"/>
			<point x="394" y="389"/>
			<point x="392" y="314"/>
			<point x="392" y="260" type="curve" smooth="yes"/>
			<point x="392" y="112"/>
			<point x="374" y="4"/>
		</contour>
	</outline>
</glyph>
<glyph name="oslash" format="2">
	<unicode hex="00F8"/>
	<advance width="671"/>
	<outline>
		<contour>
			<point x="71" y="-14" type="line"/>
			<point x="101" y="-14" type="line"/>
			<point x="142" y="30" type="line"/>
			<point x="191" y="1"/>
			<point x="254" y="-14"/>
			<point x="327" y="-14" type="curve" smooth="yes"/>
			<point x="523" y="-14"/>
			<point x="644" y="94"/>
			<point x="644" y="273" type="curve" smooth="yes"/>
			<point x="644" y="369"/>
			<point x="611" y="437"/>
			<point x="554" y="480" type="curve"/>
			<point x="607" y="537" type="line"/>
			<point x="577" y="537" type="line"/>
			<point x="536" y="492" type="line"/>
			<point x="486" y="522"/>
			<point x="422" y="537"/>
			<point x="347" y="537" type="curve" smooth="yes"/>
			<point x="153" y="537"/>
			<point x="27" y="439"/>
			<point x="27" y="249" type="curve" smooth="yes"/>
			<point x="27" y="156"/>
			<point x="62" y="87"/>
			<point x="123" y="43" type="curve"/>
		</contour>
		<contour>
			<point x="342" y="3" type="curve" smooth="yes"/>
			<point x="303" y="3"/>
			<point x="275" y="35"/>
			<point x="266" y="165" type="curve"/>
			<point x="408" y="320" type="line"/>
			<point x="409" y="301"/>
			<point x="409" y="279"/>
			<point x="409" y="256" type="curve" smooth="yes"/>
			<point x="409" y="53"/>
			<point x="393" y="3"/>
		</contour>
		<contour>
			<point x="264" y="196" type="line"/>
			<point x="263" y="221"/>
			<point x="262" y="249"/>
			<point x="262" y="280" type="curve" smooth="yes"/>
			<point x="262" y="469"/>
			<point x="282" y="520"/>
			<point x="335" y="520" type="curve" smooth="yes"/>
			<point x="373" y="520"/>
			<point x="399" y="492"/>
			<point x="407" y="352" type="curve"/>
		</contour>
	</outline>
	<anchor name="bottom" x="336" y="-30"/>
	<anchor name="top" x="332" y="550"/>
</glyph>
<glyph name="thorn" format="2">
	<unicode hex="00FE"/>
	<advance width="703"/>
	<outline>
		<contour>
			<point x="20" y="-216" type="line"/>
			<point x="368" y="-216" type="line"/>
			<point x="368" y="-204" type="line"/>
			<point x="332" y="-202" type="line" smooth="yes"/>
			<point x="300" y="-200"/>
			<point x="297" y="-193"/>
			<point x="297" y="-158" type="curve" smooth="yes"/>
			<point x="297" y="7" type="line"/>
			<point x="330" y="-7"/>
			<point x="360" y="-14"/>
			<point x="401" y="-14" type="curve" smooth="yes"/>
			<point x="575" y="-14"/>
			<point x="676" y="100"/>
			<point x="676" y="277" type="curve" smooth="yes"/>
			<point x="676" y="458"/>
			<point x="580" y="537"/>
			<point x="452" y="537" type="curve" smooth="yes"/>
			<point x="362" y="537"/>
			<point x="312" y="482"/>
			<point x="290" y="435" type="curve"/>
			<point x="289" y="435" type="line"/>
			<point x="289" y="761" type="line"/>
			<point x="282" y="769" type="line"/>
			<point x="11" y="757" type="line"/>
			<point x="10" y="745" type="line"/>
			<point x="37" y="742" type="line" smooth="yes"/>
			<point x="68" y="739"/>
			<point x="73" y="724"/>
			<point x="73" y="685" type="curve" smooth="yes"/>
			<point x="73" y="-159" type="line" smooth="yes"/>
			<point x="73" y="-193"/>
			<point x="68" y="-201"/>
			<point x="50" y="-202" type="curve" smooth="yes"/>
			<point x="20" y="-204" type="line"/>
		</contour>
		<contour>
			<point x="372" y="9" type="curve" smooth="yes"/>
			<point x="348" y="9"/>
			<point x="318" y="22"/>
			<point x="297" y="42" type="curve"/>
			<point x="297" y="365" type="line" smooth="yes"/>
			<point x="297" y="442"/>
			<point x="332" y="468"/>
			<point x="364" y="468" type="curve" smooth="yes"/>
			<point x="410" y="468"/>
			<point x="441" y="411"/>
			<point x="441" y="246" type="curve" smooth="yes"/>
			<point x="441" y="69"/>
			<point x="420" y="9"/>
		</contour>
	</outline>
</glyph>
<glyph name="Aogonek" format="2">
	<unicode hex="0104"/>
	<advance width="780"/>
	<outline>
		<contour>
			<point x="585" y="-252" type="curve" smooth="yes"/>
			<point x="631" y="-252"/>
			<point x="705" y="-223"/>
			<point x="746" y="-141" type="curve"/>
			<point x="739" y="-134" type="line"/>
			<point x="713" y="-154"/>
			<point x="688" y="-161"/>
			<point x="669" y="-161" type="curve" smooth="yes"/>
			<point x="647" y="-161"/>
			<point x="623" y="-148"/>
			<point x="623" y="-110" type="curve" smooth="yes"/>
			<point x="623" y="-69"/>
			<point x="640" y="-42"/>
			<point x="697" y="0" type="curve"/>
			<point x="790" y="0" type="line"/>
			<point x="790" y="12" type="line"/>
			<point x="760" y="17" type="line" smooth="yes"/>
			<point x="727" y="23"/>
			<point x="719" y="31"/>
			<point x="703" y="77" type="curve" smooth="yes"/>
			<point x="470" y="730" type="line"/>
			<point x="309" y="730" type="line"/>
			<point x="83" y="73" type="line" smooth="yes"/>
			<point x="66" y="22"/>
			<point x="47" y="20"/>
			<point x="22" y="16" type="curve" smooth="yes"/>
			<point x="-10" y="12" type="line"/>
			<point x="-10" y="0" type="line"/>
			<point x="189" y="0" type="line"/>
			<point x="189" y="12" type="line"/>
			<point x="146" y="17" type="line" smooth="yes"/>
			<point x="113" y="21"/>
			<point x="97" y="33"/>
			<point x="111" y="76" type="curve" smooth="yes"/>
			<point x="167" y="248" type="line"/>
			<point x="404" y="248" type="line"/>
			<point x="456" y="75" type="line" smooth="yes"/>
			<point x="469" y="31"/>
			<point x="464" y="20"/>
			<point x="431" y="16" type="curve" smooth="yes"/>
			<point x="397" y="12" type="line"/>
			<point x="397" y="0" type="line"/>
			<point x="673" y="0" type="line"/>
			<point x="541" y="-54"/>
			<point x="472" y="-96"/>
			<point x="472" y="-164" type="curve" smooth="yes"/>
			<point x="472" y="-207"/>
			<point x="499" y="-252"/>
		</contour>
		<contour>
			<point x="175" y="266" type="line"/>
			<point x="288" y="603" type="line"/>
			<point x="291" y="603" type="line"/>
			<point x="398" y="266" type="line"/>
		</contour>
	</outline>
	<anchor name="bottom" x="351" y="-30"/>
	<anchor name="top" x="388" y="730"/>
</glyph>
<glyph name="Eogonek" format="2">
	<unicode hex="0118"/>
	<advance width="629"/>
	<outline>
		<contour>
			<point x="443" y="-252" type="curve" smooth="yes"/>
			<point x="489" y="-252"/>
			<point x="563" y="-223"/>
			<point x="604" y="-141" type="curve"/>
			<point x="597" y="-134" type="line"/>
			<point x="571" y="-154"/>
			<point x="546" y="-161"/>
			<point x="527" y="-161" type="curve" smooth="yes"/>
			<point x="505" y="-161"/>
			<point x="481" y="-148"/>
			<point x="481" y="-110" type="curve" smooth="yes"/>
			<point x="481" y="-66"/>
			<point x="522" y="-34"/>
			<point x="584" y="0" type="curve"/>
			<point x="603" y="201" type="line"/>
			<point x="589" y="201" type="line"/>
			<point x="524" y="47"/>
			<point x="486" y="16"/>
			<point x="396" y="16" type="curve" smooth="yes"/>
			<point x="336" y="16" type="line"/>
			<point x="336" y="366" type="line"/>
			<point x="393" y="366" type="line" smooth="yes"/>
			<point x="430" y="366"/>
			<point x="448" y="336"/>
			<point x="466" y="254" type="curve"/>
			<point x="479" y="256" type="line"/>
			<point x="479" y="482" type="line"/>
			<point x="466" y="480" type="line"/>
			<point x="444" y="403"/>
			<point x="432" y="382"/>
			<point x="392" y="382" type="curve" smooth="yes"/>
			<point x="336" y="382" type="line"/>
			<point x="336" y="714" type="line"/>
			<point x="373" y="714" type="line" smooth="yes"/>
			<point x="460" y="714"/>
			<point x="506" y="693"/>
			<point x="572" y="531" type="curve"/>
			<point x="585" y="535" type="line"/>
			<point x="557" y="730" type="line"/>
			<point x="37" y="730" type="line"/>
			<point x="37" y="718" type="line"/>
			<point x="66" y="717" type="line" smooth="yes"/>
			<point x="96" y="716"/>
			<point x="102" y="706"/>
			<point x="102" y="673" type="curve" smooth="yes"/>
			<point x="102" y="70" type="line" smooth="yes"/>
			<point x="102" y="26"/>
			<point x="96" y="15"/>
			<point x="71" y="14" type="curve" smooth="yes"/>
			<point x="37" y="12" type="line"/>
			<point x="37" y="0" type="line"/>
			<point x="546" y="0" type="line"/>
			<point x="398" y="-61"/>
			<point x="330" y="-95"/>
			<point x="330" y="-164" type="curve" smooth="yes"/>
			<point x="330" y="-207"/>
			<point x="357" y="-252"/>
		</contour>
	</outline>
	<anchor name="bottom" x="333" y="-30"/>
	<anchor name="top" x="325" y="730"/>
</glyph>
<glyph name="gcircumflex" format="2">
	<unicode hex="011D"/>
	<advance width="682"/>
	<outline>
		<contour>
			<point x="113" y="572" type="line"/>
			<point x="300" y="679" type="line"/>
			<point x="464" y="591" type="line"/>
			<point x="472" y="600" type="line"/>
			<point x="369" y="766" type="line" smooth="yes"/>
			<point x="346" y="803"/>
			<point x="330" y="814"/>
			<point x="301" y="814" type="curve" smooth="yes"/>
			<point x="276" y="814"/>
			<point x="255" y="805"/>
			<point x="230" y="768" type="curve" smooth="yes"/>
			<point x="105" y="581" type="line"/>
		</contour>
		<component base="g"/>
	</outline>
</glyph>
<glyph name="Iogonek" format="2">
	<unicode hex="012E"/>
	<advance width="455"/>
	<outline>
		<contour>
			<point x="192" y="-252" type="curve" smooth="yes"/>
			<point x="238" y="-252"/>
			<point x="312" y="-223"/>
			<point x="353" y="-141" type="curve"/>
			<point x="346" y="-134" type="line"/>
			<point x="320" y="-154"/>
			<point x="295" y="-161"/>
			<point x="276" y="-161" type="curve" smooth="yes"/>
			<point x="254" y="-161"/>
			<point x="230" y="-148"/>
			<point x="230" y="-110" type="curve" smooth="yes"/>
			<point x="230" y="-69"/>
			<point x="247" y="-42"/>
			<point x="304" y="0" type="curve"/>
			<point x="401" y="0" type="line"/>
			<point x="401" y="12" type="line"/>
			<point x="370" y="14" type="line" smooth="yes"/>
			<point x="344" y="16"/>
			<point x="336" y="24"/>
			<point x="336" y="66" type="curve" smooth="yes"/>
			<point x="336" y="667" type="line" smooth="yes"/>
			<point x="336" y="703"/>
			<point x="344" y="716"/>
			<point x="368" y="717" type="curve" smooth="yes"/>
			<point x="401" y="718" type="line"/>
			<point x="401" y="730" type="line"/>
			<point x="37" y="730" type="line"/>
			<point x="37" y="718" type="line"/>
			<point x="66" y="717" type="line" smooth="yes"/>
			<point x="96" y="716"/>
			<point x="102" y="706"/>
			<point x="102" y="673" type="curve" smooth="yes"/>
			<point x="102" y="70" type="line" smooth="yes"/>
			<point x="102" y="26"/>
			<point x="96" y="15"/>
			<point x="71" y="14" type="curve" smooth="yes"/>
			<point x="37" y="12" type="line"/>
			<point x="37" y="0" type="line"/>
			<point x="280" y="0" type="line"/>
			<point x="148" y="-54"/>
			<point x="79" y="-96"/>
			<point x="79" y="-164" type="curve" smooth="yes"/>
			<point x="79" y="-207"/>
			<point x="106" y="-252"/>
		</contour>
	</outline>
	<anchor name="bottom" x="229" y="-28"/>
	<anchor name="top" x="219" y="730"/>
</glyph>
<glyph name="iogonek" format="2">
	<unicode hex="012F"/>
	<advance width="424"/>
	<outline>
		<contour>
			<point x="170" y="-252" type="curve" smooth="yes"/>
			<point x="216" y="-252"/>
			<point x="290" y="-223"/>
			<point x="331" y="-141" type="curve"/>
			<point x="324" y="-134" type="line"/>
			<point x="298" y="-154"/>
			<point x="273" y="-161"/>
			<point x="254" y="-161" type="curve" smooth="yes"/>
			<point x="232" y="-161"/>
			<point x="208" y="-148"/>
			<point x="208" y="-110" type="curve" smooth="yes"/>
			<point x="208" y="-69"/>
			<point x="225" y="-42"/>
			<point x="282" y="0" type="curve"/>
			<point x="360" y="0" type="line"/>
			<point x="360" y="12" type="line"/>
			<point x="336" y="14" type="line" smooth="yes"/>
			<point x="312" y="16"/>
			<point x="306" y="23"/>
			<point x="306" y="58" type="curve" smooth="yes"/>
			<point x="306" y="523" type="line"/>
			<point x="299" y="531" type="line"/>
			<point x="20" y="519" type="line"/>
			<point x="19" y="507" type="line"/>
			<point x="46" y="504" type="line" smooth="yes"/>
			<point x="77" y="501"/>
			<point x="82" y="485"/>
			<point x="82" y="447" type="curve" smooth="yes"/>
			<point x="82" y="57" type="line" smooth="yes"/>
			<point x="82" y="23"/>
			<point x="77" y="15"/>
			<point x="59" y="14" type="curve" smooth="yes"/>
			<point x="28" y="12" type="line"/>
			<point x="28" y="0" type="line"/>
			<point x="258" y="0" type="line"/>
			<point x="126" y="-54"/>
			<point x="57" y="-96"/>
			<point x="57" y="-164" type="curve" smooth="yes"/>
			<point x="57" y="-207"/>
			<point x="84" y="-252"/>
		</contour>
		<contour>
			<point x="186" y="594" type="curve" smooth="yes"/>
			<point x="268" y="594"/>
			<point x="314" y="633"/>
			<point x="314" y="698" type="curve" smooth="yes"/>
			<point x="314" y="764"/>
			<point x="275" y="802"/>
			<point x="186" y="802" type="curve" smooth="yes"/>
			<point x="99" y="802"/>
			<point x="57" y="763"/>
			<point x="57" y="699" type="curve" smooth="yes"/>
			<point x="57" y="632"/>
			<point x="102" y="594"/>
		</contour>
	</outline>
	<anchor name="bottom" x="194" y="-30"/>
</glyph>
<glyph name="idotless" format="2">
	<unicode hex="0131"/>
	<advance width="379"/>
	<outline>
		<contour>
			<point x="28" y="0" type="line"/>
			<point x="360" y="0" type="line"/>
			<point x="360" y="12" type="line"/>
			<point x="336" y="14" type="line" smooth="yes"/>
			<point x="312" y="16"/>
			<point x="306" y="23"/>
			<point x="306" y="58" type="curve" smooth="yes"/>
			<point x="306" y="523" type="line"/>
			<point x="299" y="531" type="line"/>
			<point x="20" y="519" type="line"/>
			<point x="19" y="507" type="line"/>
			<point x="46" y="504" type="line" smooth="yes"/>
			<point x="77" y="501"/>
			<point x="82" y="486"/>
			<point x="82" y="447" type="curve" smooth="yes"/>
			<point x="82" y="57" type="line" smooth="yes"/>
			<point x="82" y="22"/>
			<point x="76" y="15"/>
			<point x="59" y="14" type="curve" smooth="yes"/>
			<point x="28" y="12" type="line"/>
		</contour>
	</outline>
	<anchor name="bottom" x="194" y="-30"/>
	<anchor name="top" x="174" y="550"/>
</glyph>
<glyph name="Eng" format="2">
	<unicode hex="014A"/>
	<advance width="754"/>
	<outline>
		<contour>
			<point x="37" y="0" type="line"/>
			<point x="199" y="0" type="line"/>
			<point x="199" y="12" type="line"/>
			<point x="163" y="14" type="line" smooth="yes"/>
			<point x="137" y="15"/>
			<point x="129" y="25"/>
			<point x="129" y="66" type="curve" smooth="yes"/>
			<point x="129" y="563" type="line"/>
			<point x="130" y="563" type="line"/>
			<point x="438" y="101" type="line"/>
			<point x="438" y="-31" type="line" smooth="yes"/>
			<point x="438" y="-116"/>
			<point x="422" y="-161"/>
			<point x="369" y="-221" type="curve"/>
			<point x="374" y="-230" type="line"/>
			<point x="629" y="-173"/>
			<point x="657" y="-57"/>
			<point x="657" y="90" type="curve" smooth="yes"/>
			<point x="657" y="660" type="line" smooth="yes"/>
			<point x="657" y="704"/>
			<point x="663" y="715"/>
			<point x="688" y="716" type="curve" smooth="yes"/>
			<point x="722" y="718" type="line"/>
			<point x="722" y="730" type="line"/>
			<point x="560" y="730" type="line"/>
			<point x="560" y="718" type="line"/>
			<point x="596" y="716" type="line" smooth="yes"/>
			<point x="622" y="715"/>
			<point x="630" y="705"/>
			<point x="630" y="664" type="curve" smooth="yes"/>
			<point x="630" y="169" type="line"/>
			<point x="629" y="169" type="line"/>
			<point x="259" y="730" type="line"/>
			<point x="37" y="730" type="line"/>
			<point x="37" y="718" type="line"/>
			<point x="66" y="717" type="line" smooth="yes"/>
			<point x="96" y="716"/>
			<point x="102" y="706"/>
			<point x="102" y="673" type="curve" smooth="yes"/>
			<point x="102" y="70" type="line" smooth="yes"/>
			<point x="102" y="26"/>
			<point x="96" y="15"/>
			<point x="71" y="14" type="curve" smooth="yes"/>
			<point x="37" y="12" type="line"/>
		</contour>
	</outline>
	<anchor name="bottom" x="119" y="-30"/>
	<anchor name="top" x="410" y="730"/>
</glyph>
<glyph name="eng" format="2">
	<unicode hex="014B"/>
	<advance width="696"/>
	<outline>
		<contour>
			<point x="462" y="537" type="curve" smooth="yes"/>
			<point x="379" y="537"/>
			<point x="321" y="498"/>
			<point x="294" y="418" type="curve"/>
			<point x="293" y="418" type="line"/>
			<point x="294" y="523" type="line"/>
			<point x="287" y="531" type="line"/>
			<point x="16" y="519" type="line"/>
			<point x="15" y="507" type="line"/>
			<point x="42" y="504" type="line" smooth="yes"/>
			<point x="73" y="501"/>
			<point x="78" y="485"/>
			<point x="78" y="447" type="curve" smooth="yes"/>
			<point x="78" y="57" type="line" smooth="yes"/>
			<point x="78" y="23"/>
			<point x="73" y="15"/>
			<point x="55" y="14" type="curve" smooth="yes"/>
			<point x="24" y="12" type="line"/>
			<point x="24" y="0" type="line"/>
			<point x="342" y="0" type="line"/>
			<point x="342" y="12" type="line"/>
			<point x="321" y="14" type="line" smooth="yes"/>
			<point x="304" y="16"/>
			<point x="301" y="23"/>
			<point x="301" y="58" type="curve" smooth="yes"/>
			<point x="301" y="362" type="line" smooth="yes"/>
			<point x="301" y="423"/>
			<point x="334" y="479"/>
			<point x="373" y="479" type="curve" smooth="yes"/>
			<point x="407" y="479"/>
			<point x="418" y="464"/>
			<point x="418" y="363" type="curve" smooth="yes"/>
			<point x="418" y="-31" type="line" smooth="yes"/>
			<point x="418" y="-116"/>
			<point x="407" y="-161"/>
			<point x="354" y="-221" type="curve"/>
			<point x="359" y="-230" type="line"/>
			<point x="614" y="-173"/>
			<point x="641" y="-57"/>
			<point x="641" y="90" type="curve" smooth="yes"/>
			<point x="641" y="341" type="line" smooth="yes"/>
			<point x="641" y="474"/>
			<point x="577" y="537"/>
		</contour>
	</outline>
	<anchor name="bottom" x="183" y="-30"/>
	<anchor name="top" x="363" y="550"/>
</glyph>
<glyph name="oe" format="2">
	<unicode hex="0153"/>
	<advance width="978"/>
	<outline>
		<contour>
			<point x="327" y="-14" type="curve" smooth="yes"/>
			<point x="400" y="-14"/>
			<point x="473" y="1"/>
			<point x="523" y="59" type="curve"/>
			<point x="568" y="1"/>
			<point x="626" y="-14"/>
			<point x="695" y="-14" type="curve" smooth="yes"/>
			<point x="830" y="-14"/>
			<point x="917" y="61"/>
			<point x="956" y="167" type="curve"/>
			<point x="946" y="173" type="line"/>
			<point x="881" y="128"/>
			<point x="830" y="116"/>
			<point x="776" y="116" type="curve" smooth="yes"/>
			<point x="673" y="116"/>
			<point x="635" y="186"/>
			<point x="634" y="287" type="curve"/>
			<point x="953" y="287" type="line"/>
			<point x="954" y="307"/>
			<point x="955" y="322"/>
			<point x="955" y="336" type="curve" smooth="yes"/>
			<point x="955" y="462"/>
			<point x="857" y="537"/>
			<point x="710" y="537" type="curve" smooth="yes"/>
			<point x="646" y="537"/>
			<point x="586" y="521"/>
			<point x="536" y="462" type="curve"/>
			<point x="487" y="512"/>
			<point x="422" y="537"/>
			<point x="347" y="537" type="curve" smooth="yes"/>
			<point x="153" y="537"/>
			<point x="27" y="437"/>
			<point x="27" y="247" type="curve" smooth="yes"/>
			<point x="27" y="71"/>
			<point x="142" y="-14"/>
		</contour>
		<contour>
			<point x="344" y="3" type="curve" smooth="yes"/>
			<point x="298" y="3"/>
			<point x="262" y="53"/>
			<point x="262" y="280" type="curve" smooth="yes"/>
			<point x="262" y="469"/>
			<point x="282" y="520"/>
			<point x="328" y="520" type="curve" smooth="yes"/>
			<point x="373" y="520"/>
			<point x="409" y="480"/>
			<point x="409" y="256" type="curve" smooth="yes"/>
			<point x="409" y="62"/>
			<point x="392" y="3"/>
		</contour>
		<contour>
			<point x="634" y="303" type="line"/>
			<point x="638" y="481"/>
			<point x="669" y="518"/>
			<point x="703" y="518" type="curve" smooth="yes"/>
			<point x="735" y="518"/>
			<point x="749" y="476"/>
			<point x="749" y="381" type="curve" smooth="yes"/>
			<point x="749" y="356"/>
			<point x="748" y="331"/>
			<point x="745" y="303" type="curve"/>
		</contour>
	</outline>
</glyph>
<glyph name="Tcedilla" format="2">
	<unicode hex="0162"/>
	<advance width="741"/>
	<outline>
		<contour>
			<point x="377" y="-258" type="curve" smooth="yes"/>
			<point x="456" y="-258"/>
			<point x="505" y="-215"/>
			<point x="505" y="-142" type="curve" smooth="yes"/>
			<point x="505" y="-65"/>
			<point x="416" y="-15"/>
			<point x="315" y="-71" type="curve"/>
			<point x="347" y="0" type="line"/>
			<point x="574" y="0" type="line"/>
			<point x="574" y="12" type="line"/>
			<point x="533" y="14" type="line" smooth="yes"/>
			<point x="507" y="15"/>
			<point x="489" y="25"/>
			<point x="489" y="66" type="curve" smooth="yes"/>
			<point x="489" y="714" type="line"/>
			<point x="518" y="714" type="line" smooth="yes"/>
			<point x="605" y="714"/>
			<point x="651" y="655"/>
			<point x="703" y="506" type="curve"/>
			<point x="716" y="511" type="line"/>
			<point x="695" y="730" type="line"/>
			<point x="46" y="730" type="line"/>
			<point x="25" y="511" type="line"/>
			<point x="38" y="506" type="line"/>
			<point x="90" y="655"/>
			<point x="136" y="714"/>
			<point x="223" y="714" type="curve" smooth="yes"/>
			<point x="255" y="714" type="line"/>
			<point x="255" y="70" type="line" smooth="yes"/>
			<point x="255" y="26"/>
			<point x="239" y="15"/>
			<point x="214" y="14" type="curve" smooth="yes"/>
			<point x="170" y="12" type="line"/>
			<point x="170" y="0" type="line"/>
			<point x="328" y="0" type="line"/>
			<point x="289" y="-85" type="line"/>
			<point x="296" y="-96" type="line"/>
			<point x="309" y="-92"/>
			<point x="321" y="-88"/>
			<point x="336" y="-88" type="curve" smooth="yes"/>
			<point x="362" y="-88"/>
			<point x="377" y="-109"/>
			<point x="377" y="-140" type="curve" smooth="yes"/>
			<point x="377" y="-170"/>
			<point x="359" y="-195"/>
			<point x="318" y="-195" type="curve" smooth="yes"/>
			<point x="292" y="-195"/>
			<point x="259" y="-185"/>
			<point x="227" y="-161" type="curve"/>
			<point x="215" y="-172" type="line"/>
			<point x="260" y="-235"/>
			<point x="314" y="-258"/>
		</contour>
	</outline>
	<anchor name="bottom" x="370" y="-30"/>
	<anchor name="top" x="372" y="730"/>
</glyph>
<glyph name="uhorn" format="2">
	<unicode hex="01B0"/>
	<advance width="834"/>
	<outline>
		<contour>
			<point x="243" y="-14" type="curve" smooth="yes"/>
			<point x="328" y="-14"/>
			<point x="376" y="20"/>
			<point x="403" y="96" type="curve"/>
			<point x="405" y="96" type="line"/>
			<point x="434" y="-8" type="line"/>
			<point x="683" y="4" type="line"/>
			<point x="684" y="16" type="line"/>
			<point x="657" y="19" type="line" smooth="yes"/>
			<point x="626" y="22"/>
			<point x="621" y="37"/>
			<point x="621" y="76" type="curve" smooth="yes"/>
			<point x="621" y="359" type="line"/>
			<point x="792" y="394"/>
			<point x="834" y="475"/>
			<point x="834" y="561" type="curve" smooth="yes"/>
			<point x="834" y="622"/>
			<point x="807" y="684"/>
			<point x="728" y="684" type="curve" smooth="yes"/>
			<point x="671" y="684"/>
			<point x="636" y="648"/>
			<point x="636" y="601" type="curve" smooth="yes"/>
			<point x="636" y="558"/>
			<point x="660" y="523"/>
			<point x="736" y="523" type="curve" smooth="yes"/>
			<point x="765" y="523" type="line"/>
			<point x="760" y="460"/>
			<point x="744" y="405"/>
			<point x="621" y="377" type="curve"/>
			<point x="621" y="523" type="line"/>
			<point x="612" y="531" type="line"/>
			<point x="348" y="523" type="line"/>
			<point x="348" y="511" type="line"/>
			<point x="372" y="509" type="line" smooth="yes"/>
			<point x="392" y="507"/>
			<point x="398" y="495"/>
			<point x="398" y="463" type="curve" smooth="yes"/>
			<point x="398" y="161" type="line" smooth="yes"/>
			<point x="398" y="100"/>
			<point x="368" y="44"/>
			<point x="332" y="44" type="curve" smooth="yes"/>
			<point x="298" y="44"/>
			<point x="287" y="59"/>
			<point x="287" y="160" type="curve" smooth="yes"/>
			<point x="287" y="523" type="line"/>
			<point x="278" y="531" type="line"/>
			<point x="10" y="523" type="line"/>
			<point x="10" y="511" type="line"/>
			<point x="34" y="509" type="line" smooth="yes"/>
			<point x="58" y="507"/>
			<point x="64" y="500"/>
			<point x="64" y="465" type="curve" smooth="yes"/>
			<point x="64" y="182" type="line" smooth="yes"/>
			<point x="64" y="49"/>
			<point x="128" y="-14"/>
		</contour>
	</outline>
	<anchor name="bottom" x="344" y="-30"/>
	<anchor name="top" x="332" y="550"/>
</glyph>
<glyph name="verticallinemod" format="2">
	<unicode hex="02C8"/>
	<advance width="500"/>
	<outline>
		<contour>
			<point x="192" y="576" type="line"/>
			<point x="303" y="576" type="line"/>
			<point x="303" y="823" type="line"/>
			<point x="192" y="823" type="line"/>
		</contour>
	</outline>
	<anchor name="_top" x="247" y="550"/>
</glyph>
<glyph name="breve" format="2">
	<unicode hex="02D8"/>
	<advance width="500"/>
	<outline>
		<contour>
			<point x="247" y="587" type="curve" smooth="yes"/>
			<point x="366" y="587"/>
			<point x="409" y="687"/>
			<point x="424" y="809" type="curve"/>
			<point x="412" y="812" type="line"/>
			<point x="370" y="734"/>
			<point x="330" y="708"/>
			<point x="247" y="708" type="curve" smooth="yes"/>
			<point x="181" y="708"/>
			<point x="131" y="736"/>
			<point x="87" y="814" type="curve"/>
			<point x="75" y="811" type="line"/>
			<point x="88" y="697"/>
			<point x="129" y="587"/>
		</contour>
	</outline>
	<anchor name="_top" x="250" y="550"/>
</glyph>
<glyph name="dotaccent" format="2">
	<unicode hex="02D9"/>
	<advance width="500"/>
	<outline>
		<contour>
			<point x="250" y="594" type="curve" smooth="yes"/>
			<point x="332" y="594"/>
			<point x="378" y="633"/>
			<point x="378" y="698" type="curve" smooth="yes"/>
			<point x="378" y="764"/>
			<point x="339" y="802"/>
			<point x="250" y="802" type="curve" smooth="yes"/>
			<point x="163" y="802"/>
			<point x="121" y="763"/>
			<point x="121" y="699" type="curve" smooth="yes"/>
			<point x="121" y="632"/>
			<point x="166" y="594"/>
		</contour>
	</outline>
	<anchor name="_top" x="250" y="550"/>
</glyph>
<glyph name="ogonek" format="2">
	<unicode hex="02DB"/>
	<advance width="500"/>
	<outline>
		<contour>
			<point x="226" y="-252" type="curve" smooth="yes"/>
			<point x="272" y="-252"/>
			<point x="346" y="-223"/>
			<point x="387" y="-141" type="curve"/>
			<point x="380" y="-134" type="line"/>
			<point x="354" y="-154"/>
			<point x="329" y="-161"/>
			<point x="310" y="-161" type="curve" smooth="yes"/>
			<point x="288" y="-161"/>
			<point x="264" y="-148"/>
			<point x="264" y="-110" type="curve" smooth="yes"/>
			<point x="264" y="-66"/>
			<point x="283" y="-38"/>
			<point x="351" y="9" type="curve"/>
			<point x="336" y="9" type="line"/>
			<point x="190" y="-50"/>
			<point x="113" y="-92"/>
			<point x="113" y="-164" type="curve" smooth="yes"/>
			<point x="113" y="-207"/>
			<point x="140" y="-252"/>
		</contour>
	</outline>
	<anchor name="_bottom" x="238" y="-30"/>
</glyph>
<glyph name="hungarumlaut" format="2">
	<unicode hex="02DD"/>
	<advance width="500"/>
	<outline>
		<contour>
			<point x="332" y="577" type="line"/>
			<point x="520" y="682" type="line" smooth="yes"/>
			<point x="549" y="698"/>
			<point x="561" y="728"/>
			<point x="561" y="753" type="curve" smooth="yes"/>
			<point x="561" y="778"/>
			<point x="543" y="824"/>
			<point x="496" y="824" type="curve" smooth="yes"/>
			<point x="474" y="824"/>
			<point x="453" y="812"/>
			<point x="437" y="785" type="curve" smooth="yes"/>
			<point x="322" y="587" type="line"/>
		</contour>
		<contour>
			<point x="118" y="577" type="line"/>
			<point x="299" y="688" type="line" smooth="yes"/>
			<point x="329" y="706"/>
			<point x="337" y="732"/>
			<point x="337" y="754" type="curve" smooth="yes"/>
			<point x="337" y="777"/>
			<point x="323" y="824"/>
			<point x="276" y="824" type="curve" smooth="yes"/>
			<point x="252" y="824"/>
			<point x="230" y="811"/>
			<point x="216" y="785" type="curve" smooth="yes"/>
			<point x="108" y="587" type="line"/>
		</contour>
	</outline>
	<anchor name="_top" x="250" y="550"/>
</glyph>
<glyph name="gravecomb" format="2">
	<unicode hex="0300"/>
	<outline>
		<contour>
			<point x="64" y="576" type="line"/>
			<point x="72" y="585" type="line"/>
			<point x="-30" y="780" type="line" smooth="yes"/>
			<point x="-48" y="815"/>
			<point x="-65" y="824"/>
			<point x="-88" y="824" type="curve" smooth="yes"/>
			<point x="-134" y="824"/>
			<point x="-165" y="782"/>
			<point x="-165" y="742" type="curve" smooth="yes"/>
			<point x="-165" y="713"/>
			<point x="-148" y="694"/>
			<point x="-117" y="677" type="curve" smooth="yes"/>
		</contour>
	</outline>
	<anchor name="_top" x="0" y="550"/>
</glyph>
<glyph name="brevecomb" format="2">
	<unicode hex="0306"/>
	<outline>
		<contour>
			<point x="-3" y="587" type="curve" smooth="yes"/>
			<point x="116" y="587"/>
			<point x="159" y="687"/>
			<point x="174" y="809" type="curve"/>
			<point x="162" y="812" type="line"/>
			<point x="120" y="734"/>
			<point x="80" y="708"/>
			<point x="-3" y="708" type="curve" smooth="yes"/>
			<point x="-69" y="708"/>
			<point x="-119" y="736"/>
			<point x="-163" y="814" type="curve"/>
			<point x="-175" y="811" type="line"/>
			<point x="-162" y="697"/>
			<point x="-121" y="587"/>
		</contour>
	</outline>
	<anchor name="_top" x="0" y="550"/>
</glyph>
<glyph name="dieresiscomb" format="2">
	<unicode hex="0308"/>
	<outline>
		<contour>
			<point x="132" y="603" type="curve" smooth="yes"/>
			<point x="195" y="603"/>
			<point x="236" y="638"/>
			<point x="236" y="695" type="curve" smooth="yes"/>
			<point x="236" y="753"/>
			<point x="201" y="787"/>
			<point x="132" y="787" type="curve" smooth="yes"/>
			<point x="64" y="787"/>
			<point x="27" y="752"/>
			<point x="27" y="696" type="curve" smooth="yes"/>
			<point x="27" y="637"/>
			<point x="67" y="603"/>
		</contour>
		<contour>
			<point x="-131" y="603" type="curve" smooth="yes"/>
			<point x="-68" y="603"/>
			<point x="-27" y="638"/>
			<point x="-27" y="695" type="curve" smooth="yes"/>
			<point x="-27" y="753"/>
			<point x="-62" y="787"/>
			<point x="-131" y="787" type="curve" smooth="yes"/>
			<point x="-199" y="787"/>
			<point x="-236" y="752"/>
			<point x="-236" y="696" type="curve" smooth="yes"/>
			<point x="-236" y="637"/>
			<point x="-196" y="603"/>
		</contour>
	</outline>
	<anchor name="_top" x="0" y="550"/>
</glyph>
<glyph name="hookabovecomb" format="2">
	<unicode hex="0309"/>
	<outline>
		<contour>
			<point x="-60" y="580" type="line"/>
			<point x="83" y="580" type="line"/>
			<point x="83" y="608" type="line" smooth="yes"/>
			<point x="83" y="661"/>
			<point x="157" y="666"/>
			<point x="157" y="746" type="curve" smooth="yes"/>
			<point x="157" y="831"/>
			<point x="86" y="859"/>
			<point x="-10" y="859" type="curve" smooth="yes"/>
			<point x="-119" y="859"/>
			<point x="-198" y="798"/>
			<point x="-198" y="743" type="curve" smooth="yes"/>
			<point x="-198" y="715"/>
			<point x="-188" y="685"/>
			<point x="-133" y="685" type="curve" smooth="yes"/>
			<point x="-88" y="685"/>
			<point x="-73" y="709"/>
			<point x="-73" y="727" type="curve" smooth="yes"/>
			<point x="-73" y="737"/>
			<point x="-77" y="770"/>
			<point x="-114" y="820" type="curve"/>
			<point x="-91" y="834"/>
			<point x="-65" y="838"/>
			<point x="-48" y="838" type="curve" smooth="yes"/>
			<point x="-14" y="838"/>
			<point x="6" y="816"/>
			<point x="6" y="774" type="curve" smooth="yes"/>
			<point x="6" y="695"/>
			<point x="-60" y="692"/>
			<point x="-60" y="627" type="curve" smooth="yes"/>
		</contour>
	</outline>
	<anchor name="_top" x="0" y="550"/>
</glyph>
<glyph name="ringcomb" format="2">
	<unicode hex="030A"/>
	<outline>
		<contour>
			<point x="-10" y="578" type="curve" smooth="yes"/>
			<point x="98" y="578"/>
			<point x="173" y="622"/>
			<point x="173" y="700" type="curve" smooth="yes"/>
			<point x="173" y="783"/>
			<point x="119" y="822"/>
			<point x="5" y="822" type="curve" smooth="yes"/>
			<point x="-97" y="822"/>
			<point x="-172" y="784"/>
			<point x="-172" y="700" type="curve" smooth="yes"/>
			<point x="-172" y="625"/>
			<point x="-108" y="578"/>
		</contour>
		<contour>
			<point x="0" y="596" type="curve" smooth="yes"/>
			<point x="-26" y="596"/>
			<point x="-38" y="607"/>
			<point x="-38" y="701" type="curve" smooth="yes"/>
			<point x="-38" y="788"/>
			<point x="-27" y="804"/>
			<point x="-1" y="804" type="curve" smooth="yes"/>
			<point x="22" y="804"/>
			<point x="38" y="793"/>
			<point x="38" y="701" type="curve" smooth="yes"/>
			<point x="38" y="612"/>
			<point x="24" y="596"/>
		</contour>
	</outline>
	<anchor name="_top" x="0" y="550"/>
</glyph>
<glyph name="dblgravecomb" format="2">
	<unicode hex="030F"/>
	<outline>
		<contour>
			<point x="-82" y="577" type="line"/>
			<point x="-72" y="587" type="line"/>
			<point x="-187" y="785" type="line" smooth="yes"/>
			<point x="-203" y="812"/>
			<point x="-224" y="824"/>
			<point x="-246" y="824" type="curve" smooth="yes"/>
			<point x="-293" y="824"/>
			<point x="-311" y="778"/>
			<point x="-311" y="753" type="curve" smooth="yes"/>
			<point x="-311" y="728"/>
			<point x="-299" y="698"/>
			<point x="-270" y="682" type="curve" smooth="yes"/>
		</contour>
		<contour>
			<point x="132" y="577" type="line"/>
			<point x="142" y="587" type="line"/>
			<point x="34" y="785" type="line" smooth="yes"/>
			<point x="20" y="811"/>
			<point x="-2" y="824"/>
			<point x="-26" y="824" type="curve" smooth="yes"/>
			<point x="-73" y="824"/>
			<point x="-87" y="777"/>
			<point x="-87" y="754" type="curve" smooth="yes"/>
			<point x="-87" y="732"/>
			<point x="-79" y="706"/>
			<point x="-49" y="688" type="curve" smooth="yes"/>
		</contour>
	</outline>
	<anchor name="_top" x="0" y="550"/>
</glyph>
<glyph name="breveinvertedcomb" format="2">
	<unicode hex="0311"/>
	<outline>
		<contour>
			<point x="2" y="803" type="curve" smooth="yes"/>
			<point x="-117" y="803"/>
			<point x="-160" y="703"/>
			<point x="-175" y="581" type="curve"/>
			<point x="-163" y="578" type="line"/>
			<point x="-121" y="656"/>
			<point x="-81" y="682"/>
			<point x="2" y="682" type="curve" smooth="yes"/>
			<point x="68" y="682"/>
			<point x="118" y="654"/>
			<point x="162" y="576" type="curve"/>
			<point x="174" y="579" type="line"/>
			<point x="161" y="693"/>
			<point x="120" y="803"/>
		</contour>
	</outline>
	<anchor name="_top" x="0" y="550"/>
</glyph>
<glyph name="horncomb" format="2">
	<unicode hex="031B"/>
	<outline>
		<contour>
			<point x="-158" y="349" type="line"/>
			<point x="57" y="378"/>
			<point x="108" y="467"/>
			<point x="108" y="561" type="curve" smooth="yes"/>
			<point x="108" y="622"/>
			<point x="77" y="684"/>
			<point x="-2" y="684" type="curve" smooth="yes"/>
			<point x="-59" y="684"/>
			<point x="-94" y="648"/>
			<point x="-94" y="601" type="curve" smooth="yes"/>
			<point x="-94" y="558"/>
			<point x="-70" y="523"/>
			<point x="6" y="523" type="curve" smooth="yes"/>
			<point x="33" y="523" type="line"/>
			<point x="27" y="454"/>
			<point x="11" y="393"/>
			<point x="-158" y="368" type="curve"/>
		</contour>
	</outline>
</glyph>
<glyph name="dotbelowcomb" format="2">
	<unicode hex="0323"/>
	<outline>
		<contour>
			<point x="0" y="-261" type="curve" smooth="yes"/>
			<point x="82" y="-261"/>
			<point x="128" y="-222"/>
			<point x="128" y="-157" type="curve" smooth="yes"/>
			<point x="128" y="-91"/>
			<point x="89" y="-53"/>
			<point x="0" y="-53" type="curve" smooth="yes"/>
			<point x="-87" y="-53"/>
			<point x="-129" y="-92"/>
			<point x="-129" y="-156" type="curve" smooth="yes"/>
			<point x="-129" y="-223"/>
			<point x="-84" y="-261"/>
		</contour>
	</outline>
	<anchor name="_bottom" x="0" y="-30"/>
</glyph>
<glyph name="dieresisbelowcomb" format="2">
	<unicode hex="0324"/>
	<outline>
		<contour>
			<point x="132" y="-250" type="curve" smooth="yes"/>
			<point x="195" y="-250"/>
			<point x="236" y="-215"/>
			<point x="236" y="-158" type="curve" smooth="yes"/>
			<point x="236" y="-100"/>
			<point x="201" y="-66"/>
			<point x="132" y="-66" type="curve" smooth="yes"/>
			<point x="64" y="-66"/>
			<point x="27" y="-101"/>
			<point x="27" y="-157" type="curve" smooth="yes"/>
			<point x="27" y="-216"/>
			<point x="67" y="-250"/>
		</contour>
		<contour>
			<point x="-131" y="-250" type="curve" smooth="yes"/>
			<point x="-68" y="-250"/>
			<point x="-27" y="-215"/>
			<point x="-27" y="-158" type="curve" smooth="yes"/>
			<point x="-27" y="-100"/>
			<point x="-62" y="-66"/>
			<point x="-131" y="-66" type="curve" smooth="yes"/>
			<point x="-199" y="-66"/>
			<point x="-236" y="-101"/>
			<point x="-236" y="-157" type="curve" smooth="yes"/>
			<point x="-236" y="-216"/>
			<point x="-196" y="-250"/>
		</contour>
	</outline>
	<anchor name="_bottom" x="0" y="-30"/>
</glyph>
<glyph name="cedillacomb" format="2">
	<unicode hex="0327"/>
	<outline>
		<contour>
			<point x="7" y="-258" type="curve" smooth="yes"/>
			<point x="86" y="-258"/>
			<point x="135" y="-215"/>
			<point x="135" y="-142" type="curve" smooth="yes"/>
			<point x="135" y="-65"/>
			<point x="46" y="-15"/>
			<point x="-55" y="-71" type="curve"/>
			<point x="-23" y="0" type="line"/>
			<point x="-42" y="0" type="line"/>
			<point x="-81" y="-85" type="line"/>
			<point x="-74" y="-96" type="line"/>
			<point x="-61" y="-92"/>
			<point x="-49" y="-88"/>
			<point x="-34" y="-88" type="curve" smooth="yes"/>
			<point x="-8" y="-88"/>
			<point x="7" y="-109"/>
			<point x="7" y="-140" type="curve" smooth="yes"/>
			<point x="7" y="-170"/>
			<point x="-11" y="-195"/>
			<point x="-52" y="-195" type="curve" smooth="yes"/>
			<point x="-78" y="-195"/>
			<point x="-111" y="-185"/>
			<point x="-143" y="-161" type="curve"/>
			<point x="-155" y="-172" type="line"/>
			<point x="-110" y="-235"/>
			<point x="-56" y="-258"/>
		</contour>
	</outline>
	<anchor name="_bottom" x="0" y="-30"/>
</glyph>
<glyph name="brevebelowcomb" format="2">
	<unicode hex="032E"/>
	<outline>
		<contour>
			<point x="-2" y="-247" type="curve" smooth="yes"/>
			<point x="107" y="-247"/>
			<point x="164" y="-173"/>
			<point x="180" y="-40" type="curve"/>
			<point x="166" y="-38" type="line"/>
			<point x="130" y="-100"/>
			<point x="85" y="-125"/>
			<point x="0" y="-125" type="curve" smooth="yes"/>
			<point x="-81" y="-125"/>
			<point x="-131" y="-106"/>
			<point x="-170" y="-41" type="curve"/>
			<point x="-184" y="-43" type="line"/>
			<point x="-171" y="-171"/>
			<point x="-119" y="-247"/>
		</contour>
	</outline>
	<anchor name="_bottom" x="0" y="-30"/>
</glyph>
<glyph name="macronbelowcomb" format="2">
	<unicode hex="0331"/>
	<outline>
		<contour>
			<point x="-174" y="-195" type="line"/>
			<point x="174" y="-195" type="line"/>
			<point x="174" y="-71" type="line"/>
			<point x="-174" y="-71" type="line"/>
		</contour>
	</outline>
	<anchor name="_bottom" x="0" y="-30"/>
</glyph>
<glyph name="numeral-greek" format="2">
	<unicode hex="0374"/>
	<advance width="321"/>
	<outline>
		<contour>
			<point x="78" y="488" type="line"/>
			<point x="256" y="672" type="line"/>
			<point x="256" y="682" type="line"/>
			<point x="250" y="730"/>
			<point x="218" y="761"/>
			<point x="174" y="761" type="curve" smooth="yes"/>
			<point x="141" y="761"/>
			<point x="118" y="739"/>
			<point x="107" y="698" type="curve" smooth="yes"/>
			<point x="58" y="499" type="line"/>
		</contour>
	</outline>
</glyph>
<glyph name="dieresistonos" format="2">
	<unicode hex="0385"/>
	<advance width="660"/>
	<outline>
		<contour>
			<point x="288" y="586" type="line"/>
			<point x="428" y="758" type="line"/>
			<point x="428" y="769" type="line"/>
			<point x="414" y="805"/>
			<point x="382" y="828"/>
			<point x="349" y="828" type="curve" smooth="yes"/>
			<point x="304" y="828"/>
			<point x="282" y="805"/>
			<point x="278" y="753" type="curve" smooth="yes"/>
			<point x="266" y="595" type="line"/>
		</contour>
		<contour>
			<point x="119" y="603" type="curve" smooth="yes"/>
			<point x="183" y="603"/>
			<point x="223" y="639"/>
			<point x="223" y="695" type="curve" smooth="yes"/>
			<point x="223" y="755"/>
			<point x="186" y="787"/>
			<point x="119" y="787" type="curve" smooth="yes"/>
			<point x="53" y="787"/>
			<point x="14" y="753"/>
			<point x="14" y="696" type="curve" smooth="yes"/>
			<point x="14" y="638"/>
			<point x="53" y="603"/>
		</contour>
		<contour>
			<point x="542" y="603" type="curve" smooth="yes"/>
			<point x="606" y="603"/>
			<point x="646" y="639"/>
			<point x="646" y="695" type="curve" smooth="yes"/>
			<point x="646" y="755"/>
			<point x="609" y="787"/>
			<point x="542" y="787" type="curve" smooth="yes"/>
			<point x="476" y="787"/>
			<point x="437" y="753"/>
			<point x="437" y="696" type="curve" smooth="yes"/>
			<point x="437" y="638"/>
			<point x="476" y="603"/>
		</contour>
	</outline>
	<anchor name="_top" x="297" y="550"/>
</glyph>
<glyph name="Theta" format="2">
	<unicode hex="0398"/>
	<advance width="827"/>
	<outline>
		<contour>
			<point x="412" y="-14" type="curve" smooth="yes"/>
			<point x="647" y="-14"/>
			<point x="795" y="139"/>
			<point x="795" y="383" type="curve" smooth="yes"/>
			<point x="795" y="605"/>
			<point x="654" y="744"/>
			<point x="429" y="744" type="curve" smooth="yes"/>
			<point x="181" y="744"/>
			<point x="37" y="600"/>
			<point x="37" y="352" type="curve" smooth="yes"/>
			<point x="37" y="127"/>
			<point x="181" y="-14"/>
		</contour>
		<contour>
			<point x="430" y="3" type="curve" smooth="yes"/>
			<point x="321" y="3"/>
			<point x="272" y="118"/>
			<point x="272" y="377" type="curve" smooth="yes"/>
			<point x="272" y="629"/>
			<point x="311" y="727"/>
			<point x="410" y="727" type="curve" smooth="yes"/>
			<point x="515" y="727"/>
			<point x="560" y="616"/>
			<point x="560" y="355" type="curve" smooth="yes"/>
			<point x="560" y="90"/>
			<point x="528" y="3"/>
		</contour>
		<contour>
			<point x="308" y="256" type="line"/>
			<point x="324" y="258" type="line"/>
			<point x="360" y="345"/>
			<point x="369" y="356"/>
			<point x="405" y="356" type="curve" smooth="yes"/>
			<point x="428" y="356" type="line" smooth="yes"/>
			<point x="465" y="356"/>
			<point x="480" y="337"/>
			<point x="508" y="254" type="curve"/>
			<point x="524" y="256" type="line"/>
			<point x="524" y="472" type="line"/>
			<point x="508" y="470" type="line"/>
			<point x="472" y="383"/>
			<point x="463" y="372"/>
			<point x="427" y="372" type="curve" smooth="yes"/>
			<point x="404" y="372" type="line" smooth="yes"/>
			<point x="367" y="372"/>
			<point x="352" y="391"/>
			<point x="324" y="474" type="curve"/>
			<point x="308" y="472" type="line"/>
		</contour>
	</outline>
</glyph>
<glyph name="Lambda" format="2">
	<unicode hex="039B"/>
	<advance width="750"/>
	<outline>
		<contour>
			<point x="-10" y="0" type="line"/>
			<point x="189" y="0" type="line"/>
			<point x="189" y="12" type="line"/>
			<point x="146" y="17" type="line" smooth="yes"/>
			<point x="108" y="22"/>
			<point x="99" y="38"/>
			<point x="111" y="76" type="curve"/>
			<point x="278" y="603" type="line"/>
			<point x="281" y="603" type="line"/>
			<point x="436" y="75" type="line"/>
			<point x="449" y="31"/>
			<point x="444" y="20"/>
			<point x="411" y="16" type="curve" smooth="yes"/>
			<point x="377" y="12" type="line"/>
			<point x="377" y="0" type="line"/>
			<point x="760" y="0" type="line"/>
			<point x="760" y="12" type="line"/>
			<point x="730" y="17" type="line" smooth="yes"/>
			<point x="696" y="23"/>
			<point x="689" y="31"/>
			<point x="673" y="77" type="curve" smooth="yes"/>
			<point x="450" y="730" type="line"/>
			<point x="299" y="730" type="line"/>
			<point x="83" y="73" type="line" smooth="yes"/>
			<point x="70" y="33"/>
			<point x="56" y="20"/>
			<point x="22" y="16" type="curve" smooth="yes"/>
			<point x="-10" y="12" type="line"/>
		</contour>
	</outline>
</glyph>
<glyph name="Xi" format="2">
	<unicode hex="039E"/>
	<advance width="640"/>
	<outline>
		<contour>
			<point x="44" y="0" type="line"/>
			<point x="596" y="0" type="line"/>
			<point x="615" y="211" type="line"/>
			<point x="599" y="211" type="line"/>
			<point x="574" y="134"/>
			<point x="552" y="115"/>
			<point x="488" y="115" type="curve" smooth="yes"/>
			<point x="167" y="115" type="line" smooth="yes"/>
			<point x="90" y="115"/>
			<point x="76" y="126"/>
			<point x="41" y="211" type="curve"/>
			<point x="25" y="211" type="line"/>
		</contour>
		<contour>
			<point x="129" y="232" type="line"/>
			<point x="145" y="235" type="line"/>
			<point x="159" y="291"/>
			<point x="172" y="303"/>
			<point x="215" y="303" type="curve" smooth="yes"/>
			<point x="425" y="303" type="line" smooth="yes"/>
			<point x="475" y="303"/>
			<point x="487" y="290"/>
			<point x="495" y="231" type="curve"/>
			<point x="511" y="233" type="line"/>
			<point x="511" y="469" type="line"/>
			<point x="495" y="467" type="line"/>
			<point x="483" y="409"/>
			<point x="473" y="399"/>
			<point x="424" y="399" type="curve" smooth="yes"/>
			<point x="215" y="399" type="line" smooth="yes"/>
			<point x="170" y="399"/>
			<point x="153" y="416"/>
			<point x="145" y="471" type="curve"/>
			<point x="129" y="469" type="line"/>
		</contour>
		<contour>
			<point x="55" y="501" type="line"/>
			<point x="97" y="595"/>
			<point x="126" y="615"/>
			<point x="222" y="615" type="curve" smooth="yes"/>
			<point x="418" y="615" type="line" smooth="yes"/>
			<point x="521" y="615"/>
			<point x="545" y="599"/>
			<point x="585" y="501" type="curve"/>
			<point x="600" y="505" type="line"/>
			<point x="569" y="730" type="line"/>
			<point x="71" y="730" type="line"/>
			<point x="40" y="505" type="line"/>
		</contour>
	</outline>
</glyph>
<glyph name="Phi" format="2">
	<unicode hex="03A6"/>
	<advance width="1100"/>
	<outline>
		<contour>
			<point x="368" y="-55" type="line"/>
			<point x="732" y="-55" type="line"/>
			<point x="732" y="-43" type="line"/>
			<point x="707" y="-42" type="line" smooth="yes"/>
			<point x="676" y="-41"/>
			<point x="667" y="-30"/>
			<point x="667" y="8" type="curve" smooth="yes"/>
			<point x="667" y="47" type="line"/>
			<point x="912" y="47"/>
			<point x="1068" y="177"/>
			<point x="1068" y="381" type="curve" smooth="yes"/>
			<point x="1068" y="575"/>
			<point x="931" y="679"/>
			<point x="667" y="686" type="curve"/>
			<point x="667" y="719" type="line" smooth="yes"/>
			<point x="667" y="757"/>
			<point x="675" y="771"/>
			<point x="697" y="772" type="curve" smooth="yes"/>
			<point x="732" y="773" type="line"/>
			<point x="732" y="785" type="line"/>
			<point x="368" y="785" type="line"/>
			<point x="368" y="773" type="line"/>
			<point x="395" y="772" type="line" smooth="yes"/>
			<point x="428" y="771"/>
			<point x="433" y="764"/>
			<point x="433" y="723" type="curve" smooth="yes"/>
			<point x="433" y="686" type="line"/>
			<point x="174" y="679"/>
			<point x="32" y="568"/>
			<point x="32" y="371" type="curve" smooth="yes"/>
			<point x="32" y="170"/>
			<point x="184" y="47"/>
			<point x="433" y="47" type="curve"/>
			<point x="433" y="12" type="line" smooth="yes"/>
			<point x="433" y="-28"/>
			<point x="427" y="-40"/>
			<point x="405" y="-41" type="curve" smooth="yes"/>
			<point x="368" y="-43" type="line"/>
		</contour>
		<contour>
			<point x="433" y="64" type="line"/>
			<point x="328" y="64"/>
			<point x="277" y="165"/>
			<point x="277" y="371" type="curve" smooth="yes"/>
			<point x="277" y="564"/>
			<point x="332" y="669"/>
			<point x="433" y="669" type="curve"/>
		</contour>
		<contour>
			<point x="667" y="64" type="curve"/>
			<point x="667" y="669" type="line"/>
			<point x="764" y="669"/>
			<point x="823" y="556"/>
			<point x="823" y="371" type="curve" smooth="yes"/>
			<point x="823" y="165"/>
			<point x="772" y="64"/>
		</contour>
	</outline>
</glyph>
<glyph name="Psi" format="2">
	<unicode hex="03A8"/>
	<advance width="1024"/>
	<outline>
		<contour>
			<point x="345" y="0" type="line"/>
			<point x="679" y="0" type="line"/>
			<point x="679" y="12" type="line"/>
			<point x="648" y="14" type="line" smooth="yes"/>
			<point x="621" y="16"/>
			<point x="614" y="26"/>
			<point x="614" y="66" type="curve" smooth="yes"/>
			<point x="614" y="188" type="line"/>
			<point x="815" y="192"/>
			<point x="934" y="285"/>
			<point x="934" y="438" type="curve" smooth="yes"/>
			<point x="934" y="668" type="line" smooth="yes"/>
			<point x="934" y="705"/>
			<point x="942" y="716"/>
			<point x="970" y="717" type="curve" smooth="yes"/>
			<point x="999" y="718" type="line"/>
			<point x="999" y="730" type="line"/>
			<point x="737" y="730" type="line"/>
			<point x="737" y="419" type="line" smooth="yes"/>
			<point x="737" y="273"/>
			<point x="704" y="218"/>
			<point x="614" y="214" type="curve"/>
			<point x="614" y="667" type="line" smooth="yes"/>
			<point x="614" y="703"/>
			<point x="622" y="716"/>
			<point x="646" y="717" type="curve" smooth="yes"/>
			<point x="679" y="718" type="line"/>
			<point x="679" y="730" type="line"/>
			<point x="345" y="730" type="line"/>
			<point x="345" y="718" type="line"/>
			<point x="374" y="717" type="line" smooth="yes"/>
			<point x="403" y="716"/>
			<point x="410" y="708"/>
			<point x="410" y="673" type="curve" smooth="yes"/>
			<point x="410" y="214" type="line"/>
			<point x="320" y="218"/>
			<point x="287" y="273"/>
			<point x="287" y="419" type="curve" smooth="yes"/>
			<point x="287" y="730" type="line"/>
			<point x="25" y="730" type="line"/>
			<point x="25" y="718" type="line"/>
			<point x="54" y="717" type="line" smooth="yes"/>
			<point x="82" y="716"/>
			<point x="90" y="705"/>
			<point x="90" y="668" type="curve" smooth="yes"/>
			<point x="90" y="438" type="line" smooth="yes"/>
			<point x="90" y="285"/>
			<point x="209" y="192"/>
			<point x="410" y="188" type="curve"/>
			<point x="410" y="70" type="line" smooth="yes"/>
			<point x="410" y="26"/>
			<point x="404" y="15"/>
			<point x="379" y="14" type="curve" smooth="yes"/>
			<point x="345" y="12" type="line"/>
		</contour>
	</outline>
</glyph>
<glyph name="alpha" format="2">
	<unicode hex="03B1"/>
	<advance width="713"/>
	<outline>
		<contour>
			<point x="259" y="-14" type="curve" smooth="yes"/>
			<point x="332" y="-14"/>
			<point x="374" y="19"/>
			<point x="400" y="98" type="curve"/>
			<point x="402" y="98" type="line"/>
			<point x="408" y="27"/>
			<point x="466" y="-14"/>
			<point x="559" y="-14" type="curve" smooth="yes"/>
			<point x="619" y="-14"/>
			<point x="677" y="10"/>
			<point x="709" y="48" type="curve"/>
			<point x="704" y="56" type="line"/>
			<point x="692" y="51"/>
			<point x="681" y="48"/>
			<point x="670" y="48" type="curve" smooth="yes"/>
			<point x="629" y="48"/>
			<point x="610" y="80"/>
			<point x="610" y="147" type="curve" smooth="yes"/>
			<point x="610" y="240"/>
			<point x="626" y="394"/>
			<point x="650" y="523" type="curve"/>
			<point x="641" y="531" type="line"/>
			<point x="424" y="519" type="line"/>
			<point x="417" y="464" type="line"/>
			<point x="415" y="464" type="line"/>
			<point x="395" y="514"/>
			<point x="353" y="537"/>
			<point x="282" y="537" type="curve" smooth="yes"/>
			<point x="120" y="537"/>
			<point x="33" y="438"/>
			<point x="33" y="251" type="curve" smooth="yes"/>
			<point x="33" y="85"/>
			<point x="118" y="-14"/>
		</contour>
		<contour>
			<point x="338" y="55" type="curve" smooth="yes"/>
			<point x="281" y="55"/>
			<point x="270" y="91"/>
			<point x="270" y="279" type="curve" smooth="yes"/>
			<point x="270" y="457"/>
			<point x="288" y="514"/>
			<point x="344" y="514" type="curve" smooth="yes"/>
			<point x="370" y="514"/>
			<point x="403" y="481"/>
			<point x="415" y="444" type="curve"/>
			<point x="405" y="326"/>
			<point x="400" y="216"/>
			<point x="400" y="114" type="curve"/>
			<point x="383" y="72"/>
			<point x="365" y="55"/>
		</contour>
	</outline>
	<anchor name="bottom" x="408" y="-45"/>
	<anchor name="top" x="348" y="550"/>
</glyph>
<glyph name="beta" format="2">
	<unicode hex="03B2"/>
	<advance width="727"/>
	<outline>
		<contour>
			<point x="79" y="-224" type="line"/>
			<point x="293" y="-217" type="line"/>
			<point x="280" y="-105"/>
			<point x="275" y="-38"/>
			<point x="275" y="7" type="curve"/>
			<point x="276" y="7" type="line"/>
			<point x="309" y="-8"/>
			<point x="337" y="-14"/>
			<point x="371" y="-14" type="curve" smooth="yes"/>
			<point x="570" y="-14"/>
			<point x="700" y="82"/>
			<point x="700" y="229" type="curve" smooth="yes"/>
			<point x="700" y="337"/>
			<point x="638" y="408"/>
			<point x="522" y="431" type="curve"/>
			<point x="522" y="433" type="line"/>
			<point x="601" y="463"/>
			<point x="641" y="517"/>
			<point x="641" y="592" type="curve" smooth="yes"/>
			<point x="641" y="708"/>
			<point x="534" y="782"/>
			<point x="367" y="782" type="curve" smooth="yes"/>
			<point x="157" y="782"/>
			<point x="59" y="672"/>
			<point x="59" y="437" type="curve" smooth="yes"/>
			<point x="59" y="32" type="line" smooth="yes"/>
			<point x="59" y="-22"/>
			<point x="64" y="-132"/>
			<point x="71" y="-216" type="curve"/>
		</contour>
		<contour>
			<point x="350" y="9" type="curve" smooth="yes"/>
			<point x="320" y="9"/>
			<point x="281" y="24"/>
			<point x="264" y="42" type="curve"/>
			<point x="264" y="614" type="line" smooth="yes"/>
			<point x="264" y="709"/>
			<point x="299" y="765"/>
			<point x="357" y="765" type="curve" smooth="yes"/>
			<point x="410" y="765"/>
			<point x="434" y="710"/>
			<point x="434" y="586" type="curve" smooth="yes"/>
			<point x="434" y="537"/>
			<point x="425" y="487"/>
			<point x="410" y="452" type="curve"/>
			<point x="392" y="482"/>
			<point x="369" y="498"/>
			<point x="344" y="498" type="curve" smooth="yes"/>
			<point x="306" y="498"/>
			<point x="283" y="470"/>
			<point x="283" y="423" type="curve" smooth="yes"/>
			<point x="283" y="376"/>
			<point x="307" y="346"/>
			<point x="344" y="346" type="curve" smooth="yes"/>
			<point x="369" y="346"/>
			<point x="394" y="365"/>
			<point x="411" y="398" type="curve"/>
			<point x="447" y="371"/>
			<point x="469" y="298"/>
			<point x="469" y="205" type="curve" smooth="yes"/>
			<point x="469" y="81"/>
			<point x="425" y="9"/>
		</contour>
	</outline>
</glyph>
<glyph name="delta" format="2">
	<unicode hex="03B4"/>
	<advance width="629"/>
	<outline>
		<contour>
			<point x="305" y="-14" type="curve" smooth="yes"/>
			<point x="476" y="-14"/>
			<point x="604" y="97"/>
			<point x="604" y="246" type="curve" smooth="yes"/>
			<point x="604" y="374"/>
			<point x="534" y="467"/>
			<point x="363" y="564" type="curve" smooth="yes"/>
			<point x="256" y="625"/>
			<point x="230" y="650"/>
			<point x="230" y="693" type="curve" smooth="yes"/>
			<point x="230" y="737"/>
			<point x="272" y="766"/>
			<point x="335" y="766" type="curve" smooth="yes"/>
			<point x="407" y="766"/>
			<point x="461" y="752"/>
			<point x="508" y="721" type="curve"/>
			<point x="464" y="667"/>
			<point x="447" y="637"/>
			<point x="447" y="613" type="curve" smooth="yes"/>
			<point x="447" y="577"/>
			<point x="474" y="555"/>
			<point x="518" y="555" type="curve" smooth="yes"/>
			<point x="573" y="555"/>
			<point x="607" y="586"/>
			<point x="607" y="638" type="curve" smooth="yes"/>
			<point x="607" y="717"/>
			<point x="490" y="782"/>
			<point x="346" y="782" type="curve" smooth="yes"/>
			<point x="187" y="782"/>
			<point x="95" y="722"/>
			<point x="95" y="618" type="curve" smooth="yes"/>
			<point x="95" y="543"/>
			<point x="144" y="490"/>
			<point x="273" y="424" type="curve"/>
			<point x="120" y="424"/>
			<point x="17" y="337"/>
			<point x="17" y="206" type="curve" smooth="yes"/>
			<point x="17" y="71"/>
			<point x="129" y="-14"/>
		</contour>
		<contour>
			<point x="314" y="10" type="curve" smooth="yes"/>
			<point x="263" y="10"/>
			<point x="241" y="69"/>
			<point x="241" y="206" type="curve" smooth="yes"/>
			<point x="241" y="296"/>
			<point x="259" y="383"/>
			<point x="285" y="418" type="curve"/>
			<point x="361" y="374"/>
			<point x="388" y="313"/>
			<point x="388" y="188" type="curve" smooth="yes"/>
			<point x="388" y="75"/>
			<point x="361" y="10"/>
		</contour>
	</outline>
</glyph>
<glyph name="zeta" format="2">
	<unicode hex="03B6"/>
	<advance width="600"/>
	<outline>
		<contour>
			<point x="411" y="-229" type="line"/>
			<point x="528" y="-171"/>
			<point x="600" y="-79"/>
			<point x="600" y="13" type="curve" smooth="yes"/>
			<point x="600" y="112"/>
			<point x="549" y="158"/>
			<point x="392" y="200" type="curve" smooth="yes"/>
			<point x="202" y="251"/>
			<point x="144" y="285"/>
			<point x="144" y="345" type="curve" smooth="yes"/>
			<point x="144" y="439"/>
			<point x="368" y="560"/>
			<point x="625" y="605" type="curve"/>
			<point x="625" y="620" type="line"/>
			<point x="490" y="770" type="line"/>
			<point x="424" y="716"/>
			<point x="335" y="636"/>
			<point x="272" y="573" type="curve"/>
			<point x="254" y="570"/>
			<point x="248" y="570"/>
			<point x="220" y="570" type="curve" smooth="yes"/>
			<point x="193" y="570"/>
			<point x="168" y="578"/>
			<point x="148" y="593" type="curve"/>
			<point x="188" y="631"/>
			<point x="220" y="692"/>
			<point x="220" y="730" type="curve" smooth="yes"/>
			<point x="220" y="776"/>
			<point x="186" y="802"/>
			<point x="127" y="802" type="curve" smooth="yes"/>
			<point x="61" y="802"/>
			<point x="17" y="762"/>
			<point x="17" y="702" type="curve" smooth="yes"/>
			<point x="17" y="612"/>
			<point x="88" y="553"/>
			<point x="195" y="553" type="curve" smooth="yes"/>
			<point x="222" y="553"/>
			<point x="241" y="555"/>
			<point x="259" y="559" type="curve"/>
			<point x="161" y="469"/>
			<point x="86" y="329"/>
			<point x="86" y="234" type="curve" smooth="yes"/>
			<point x="86" y="114"/>
			<point x="161" y="38"/>
			<point x="321" y="-4" type="curve" smooth="yes"/>
			<point x="424" y="-31"/>
			<point x="454" y="-54"/>
			<point x="454" y="-108" type="curve" smooth="yes"/>
			<point x="454" y="-142"/>
			<point x="438" y="-175"/>
			<point x="400" y="-219" type="curve"/>
		</contour>
	</outline>
</glyph>
<glyph name="eta" format="2">
	<unicode hex="03B7"/>
	<advance width="680"/>
	<outline>
		<contour>
			<point x="610" y="-224" type="line"/>
			<point x="619" y="-216" type="line"/>
			<point x="628" y="-124"/>
			<point x="631" y="-52"/>
			<point x="631" y="92" type="curve" smooth="yes"/>
			<point x="631" y="353" type="line" smooth="yes"/>
			<point x="631" y="472"/>
			<point x="568" y="537"/>
			<point x="454" y="537" type="curve" smooth="yes"/>
			<point x="372" y="537"/>
			<point x="315" y="496"/>
			<point x="289" y="418" type="curve"/>
			<point x="288" y="417" type="line"/>
			<point x="278" y="493"/>
			<point x="230" y="533"/>
			<point x="150" y="533" type="curve" smooth="yes"/>
			<point x="87" y="533"/>
			<point x="40" y="512"/>
			<point x="0" y="465" type="curve"/>
			<point x="5" y="457" type="line"/>
			<point x="11" y="461"/>
			<point x="27" y="465"/>
			<point x="39" y="465" type="curve" smooth="yes"/>
			<point x="62" y="465"/>
			<point x="73" y="452"/>
			<point x="73" y="425" type="curve" smooth="yes"/>
			<point x="73" y="0" type="line"/>
			<point x="296" y="0" type="line"/>
			<point x="296" y="364" type="line" smooth="yes"/>
			<point x="296" y="426"/>
			<point x="329" y="479"/>
			<point x="368" y="479" type="curve" smooth="yes"/>
			<point x="396" y="479"/>
			<point x="408" y="451"/>
			<point x="408" y="385" type="curve" smooth="yes"/>
			<point x="408" y="54" type="line" smooth="yes"/>
			<point x="408" y="-38"/>
			<point x="405" y="-79"/>
			<point x="389" y="-217" type="curve"/>
		</contour>
	</outline>
	<anchor name="bottom" x="192" y="-30"/>
	<anchor name="top" x="308" y="550"/>
</glyph>
<glyph name="iota" format="2">
	<unicode hex="03B9"/>
	<advance width="395"/>
	<outline>
		<contour>
			<point x="216" y="-14" type="curve" smooth="yes"/>
			<point x="301" y="-14"/>
			<point x="346" y="16"/>
			<point x="411" y="117" type="curve"/>
			<point x="405" y="125" type="line"/>
			<point x="372" y="108"/>
			<point x="345" y="100"/>
			<point x="320" y="100" type="curve" smooth="yes"/>
			<point x="279" y="100"/>
			<point x="256" y="128"/>
			<point x="256" y="178" type="curve" smooth="yes"/>
			<point x="256" y="236"/>
			<point x="262" y="327"/>
			<point x="277" y="523" type="curve"/>
			<point x="268" y="531" type="line"/>
			<point x="50" y="524" type="line"/>
			<point x="50" y="509"/>
			<point x="49" y="178"/>
			<point x="49" y="147" type="curve" smooth="yes"/>
			<point x="49" y="42"/>
			<point x="108" y="-14"/>
		</contour>
	</outline>
	<anchor name="top" x="159" y="550"/>
</glyph>
<glyph name="lambda" format="2">
	<unicode hex="03BB"/>
	<advance width="688"/>
	<outline>
		<contour>
			<point x="693" y="105" type="line"/>
			<point x="670" y="93"/>
			<point x="642" y="87"/>
			<point x="610" y="87" type="curve" smooth="yes"/>
			<point x="561" y="87"/>
			<point x="530" y="117"/>
			<point x="505" y="190" type="curve" smooth="yes"/>
			<point x="365" y="603" type="line" smooth="yes"/>
			<point x="322" y="729"/>
			<point x="262" y="782"/>
			<point x="161" y="782" type="curve" smooth="yes"/>
			<point x="66" y="782"/>
			<point x="-10" y="724"/>
			<point x="-10" y="651" type="curve" smooth="yes"/>
			<point x="-10" y="607"/>
			<point x="27" y="575"/>
			<point x="78" y="575" type="curve" smooth="yes"/>
			<point x="126" y="575"/>
			<point x="158" y="598"/>
			<point x="158" y="632" type="curve" smooth="yes"/>
			<point x="158" y="654"/>
			<point x="137" y="692"/>
			<point x="94" y="747" type="curve"/>
			<point x="111" y="757"/>
			<point x="131" y="761"/>
			<point x="162" y="761" type="curve" smooth="yes"/>
			<point x="241" y="761"/>
			<point x="288" y="712"/>
			<point x="326" y="591" type="curve" smooth="yes"/>
			<point x="332" y="573" type="line"/>
			<point x="-7" y="8" type="line"/>
			<point x="3" y="0" type="line"/>
			<point x="268" y="0" type="line"/>
			<point x="412" y="301" type="line"/>
			<point x="415" y="301" type="line"/>
			<point x="453" y="179" type="line" smooth="yes"/>
			<point x="501" y="25"/>
			<point x="528" y="-11"/>
			<point x="595" y="-11" type="curve" smooth="yes"/>
			<point x="648" y="-11"/>
			<point x="684" y="27"/>
			<point x="698" y="98" type="curve"/>
		</contour>
	</outline>
</glyph>
<glyph name="mu" format="2">
	<unicode hex="03BC"/>
	<advance width="688"/>
	<outline>
		<contour>
			<point x="80" y="-224" type="line"/>
			<point x="303" y="-217" type="line"/>
			<point x="293" y="-149"/>
			<point x="285" y="-51"/>
			<point x="285" y="-8" type="curve"/>
			<point x="287" y="-8" type="line"/>
			<point x="293" y="-12"/>
			<point x="301" y="-14"/>
			<point x="313" y="-14" type="curve" smooth="yes"/>
			<point x="356" y="-14"/>
			<point x="386" y="24"/>
			<point x="399" y="96" type="curve"/>
			<point x="401" y="96" type="line"/>
			<point x="411" y="26"/>
			<point x="465" y="-14"/>
			<point x="547" y="-14" type="curve" smooth="yes"/>
			<point x="606" y="-14"/>
			<point x="657" y="8"/>
			<point x="689" y="48" type="curve"/>
			<point x="684" y="56" type="line"/>
			<point x="671" y="51"/>
			<point x="667" y="48"/>
			<point x="651" y="48" type="curve" smooth="yes"/>
			<point x="627" y="48"/>
			<point x="618" y="61"/>
			<point x="618" y="99" type="curve" smooth="yes"/>
			<point x="618" y="149"/>
			<point x="616" y="386"/>
			<point x="629" y="523" type="curve"/>
			<point x="620" y="531" type="line"/>
			<point x="394" y="524" type="line"/>
			<point x="394" y="412"/>
			<point x="394" y="268"/>
			<point x="394" y="167" type="curve" smooth="yes"/>
			<point x="394" y="95"/>
			<point x="364" y="44"/>
			<point x="322" y="44" type="curve" smooth="yes"/>
			<point x="306" y="44"/>
			<point x="292" y="50"/>
			<point x="283" y="60" type="curve"/>
			<point x="283" y="151"/>
			<point x="279" y="296"/>
			<point x="293" y="523" type="curve"/>
			<point x="284" y="531" type="line"/>
			<point x="60" y="524" type="line"/>
			<point x="60" y="410"/>
			<point x="59" y="165"/>
			<point x="59" y="103" type="curve" smooth="yes"/>
			<point x="59" y="12"/>
			<point x="63" y="-98"/>
			<point x="71" y="-216" type="curve"/>
		</contour>
	</outline>
</glyph>
<glyph name="sigmafinal" format="2">
	<unicode hex="03C2"/>
	<advance width="571"/>
	<outline>
		<contour>
			<point x="315" y="-229" type="line"/>
			<point x="432" y="-166"/>
			<point x="504" y="-73"/>
			<point x="504" y="16" type="curve" smooth="yes"/>
			<point x="504" y="97"/>
			<point x="462" y="143"/>
			<point x="352" y="182" type="curve" smooth="yes"/>
			<point x="271" y="211"/>
			<point x="241" y="255"/>
			<point x="241" y="346" type="curve" smooth="yes"/>
			<point x="241" y="457"/>
			<point x="280" y="520"/>
			<point x="350" y="520" type="curve" smooth="yes"/>
			<point x="385" y="520"/>
			<point x="414" y="510"/>
			<point x="438" y="489" type="curve"/>
			<point x="395" y="424"/>
			<point x="379" y="386"/>
			<point x="379" y="355" type="curve" smooth="yes"/>
			<point x="379" y="317"/>
			<point x="411" y="292"/>
			<point x="461" y="292" type="curve" smooth="yes"/>
			<point x="513" y="292"/>
			<point x="556" y="332"/>
			<point x="556" y="382" type="curve" smooth="yes"/>
			<point x="556" y="470"/>
			<point x="464" y="537"/>
			<point x="342" y="537" type="curve" smooth="yes"/>
			<point x="152" y="537"/>
			<point x="27" y="424"/>
			<point x="27" y="251" type="curve" smooth="yes"/>
			<point x="27" y="123"/>
			<point x="97" y="38"/>
			<point x="238" y="-5" type="curve" smooth="yes"/>
			<point x="315" y="-29"/>
			<point x="345" y="-60"/>
			<point x="345" y="-115" type="curve" smooth="yes"/>
			<point x="345" y="-149"/>
			<point x="329" y="-191"/>
			<point x="305" y="-219" type="curve"/>
		</contour>
	</outline>
</glyph>
<glyph name="sigma" format="2">
	<unicode hex="03C3"/>
	<advance width="711"/>
	<outline>
		<contour>
			<point x="334" y="-14" type="curve" smooth="yes"/>
			<point x="501" y="-14"/>
			<point x="633" y="92"/>
			<point x="633" y="226" type="curve" smooth="yes"/>
			<point x="633" y="306"/>
			<point x="554" y="390"/>
			<point x="462" y="410" type="curve"/>
			<point x="462" y="411" type="line"/>
			<point x="678" y="374" type="line"/>
			<point x="687" y="382" type="line"/>
			<point x="687" y="537" type="line"/>
			<point x="357" y="528" type="line" smooth="yes"/>
			<point x="159" y="523"/>
			<point x="27" y="410"/>
			<point x="27" y="247" type="curve" smooth="yes"/>
			<point x="27" y="80"/>
			<point x="137" y="-14"/>
		</contour>
		<contour>
			<point x="339" y="3" type="curve" smooth="yes"/>
			<point x="293" y="3"/>
			<point x="263" y="91"/>
			<point x="263" y="227" type="curve" smooth="yes"/>
			<point x="263" y="350"/>
			<point x="295" y="404"/>
			<point x="369" y="404" type="curve" smooth="yes"/>
			<point x="381" y="404" type="line"/>
			<point x="399" y="371"/>
			<point x="409" y="306"/>
			<point x="409" y="222" type="curve" smooth="yes"/>
			<point x="409" y="78"/>
			<point x="385" y="3"/>
		</contour>
	</outline>
</glyph>
<glyph name="tau" format="2">
	<unicode hex="03C4"/>
	<advance width="576"/>
	<outline>
		<contour>
			<point x="299" y="-14" type="curve" smooth="yes"/>
			<point x="391" y="-14"/>
			<point x="469" y="32"/>
			<point x="522" y="117" type="curve"/>
			<point x="516" y="125" type="line"/>
			<point x="490" y="111"/>
			<point x="449" y="100"/>
			<point x="419" y="100" type="curve" smooth="yes"/>
			<point x="368" y="100"/>
			<point x="343" y="134"/>
			<point x="343" y="203" type="curve" smooth="yes"/>
			<point x="343" y="300"/>
			<point x="343" y="328"/>
			<point x="345" y="374" type="curve"/>
			<point x="553" y="374" type="line"/>
			<point x="562" y="382" type="line"/>
			<point x="562" y="537" type="line"/>
			<point x="261" y="529" type="line" smooth="yes"/>
			<point x="195" y="527"/>
			<point x="56" y="457"/>
			<point x="-10" y="393" type="curve"/>
			<point x="-12" y="374" type="line"/>
			<point x="212" y="374" type="line"/>
			<point x="176" y="261"/>
			<point x="157" y="177"/>
			<point x="157" y="130" type="curve" smooth="yes"/>
			<point x="157" y="39"/>
			<point x="210" y="-14"/>
		</contour>
	</outline>
</glyph>
<glyph name="psi" format="2">
	<unicode hex="03C8"/>
	<advance width="865"/>
	<outline>
		<contour>
			<point x="353" y="-216" type="line"/>
			<point x="517" y="-216" type="line"/>
			<point x="520" y="-14" type="line"/>
			<point x="726" y="-12"/>
			<point x="838" y="100"/>
			<point x="838" y="303" type="curve" smooth="yes"/>
			<point x="838" y="388"/>
			<point x="809" y="478"/>
			<point x="767" y="524" type="curve"/>
			<point x="760" y="531" type="line"/>
			<point x="562" y="501" type="line"/>
			<point x="596" y="445"/>
			<point x="621" y="325"/>
			<point x="621" y="224" type="curve" smooth="yes"/>
			<point x="621" y="110"/>
			<point x="576" y="12"/>
			<point x="521" y="6" type="curve"/>
			<point x="536" y="718" type="line"/>
			<point x="527" y="726" type="line"/>
			<point x="337" y="720" type="line"/>
			<point x="348" y="5" type="line"/>
			<point x="301" y="7"/>
			<point x="267" y="70"/>
			<point x="267" y="155" type="curve" smooth="yes"/>
			<point x="267" y="299"/>
			<point x="274" y="351"/>
			<point x="274" y="396" type="curve" smooth="yes"/>
			<point x="274" y="489"/>
			<point x="234" y="533"/>
			<point x="149" y="533" type="curve" smooth="yes"/>
			<point x="89" y="533"/>
			<point x="32" y="507"/>
			<point x="0" y="465" type="curve"/>
			<point x="5" y="457" type="line"/>
			<point x="11" y="460"/>
			<point x="27" y="465"/>
			<point x="33" y="465" type="curve" smooth="yes"/>
			<point x="56" y="465"/>
			<point x="63" y="453"/>
			<point x="63" y="414" type="curve" smooth="yes"/>
			<point x="63" y="353"/>
			<point x="58" y="283"/>
			<point x="58" y="241" type="curve" smooth="yes"/>
			<point x="58" y="57"/>
			<point x="137" y="-12"/>
			<point x="350" y="-14" type="curve"/>
		</contour>
	</outline>
</glyph>
<glyph name="omega" format="2">
	<unicode hex="03C9"/>
	<advance width="876"/>
	<outline>
		<contour>
			<point x="278" y="-14" type="curve" smooth="yes"/>
			<point x="351" y="-14"/>
			<point x="398" y="16"/>
			<point x="437" y="89" type="curve"/>
			<point x="439" y="89" type="line"/>
			<point x="467" y="24"/>
			<point x="522" y="-14"/>
			<point x="589" y="-14" type="curve" smooth="yes"/>
			<point x="758" y="-14"/>
			<point x="844" y="78"/>
			<point x="844" y="258" type="curve" smooth="yes"/>
			<point x="844" y="348"/>
			<point x="803" y="457"/>
			<point x="746" y="519" type="curve"/>
			<point x="737" y="527" type="line"/>
			<point x="518" y="501" type="line"/>
			<point x="579" y="429"/>
			<point x="617" y="320"/>
			<point x="617" y="218" type="curve" smooth="yes"/>
			<point x="617" y="91"/>
			<point x="600" y="39"/>
			<point x="559" y="39" type="curve" smooth="yes"/>
			<point x="524" y="39"/>
			<point x="501" y="62"/>
			<point x="469" y="130" type="curve"/>
			<point x="514" y="193"/>
			<point x="534" y="242"/>
			<point x="534" y="288" type="curve" smooth="yes"/>
			<point x="534" y="347"/>
			<point x="497" y="386"/>
			<point x="440" y="386" type="curve" smooth="yes"/>
			<point x="380" y="386"/>
			<point x="343" y="348"/>
			<point x="343" y="288" type="curve" smooth="yes"/>
			<point x="343" y="244"/>
			<point x="363" y="194"/>
			<point x="407" y="130" type="curve"/>
			<point x="387" y="73"/>
			<point x="358" y="39"/>
			<point x="329" y="39" type="curve" smooth="yes"/>
			<point x="279" y="39"/>
			<point x="255" y="98"/>
			<point x="255" y="221" type="curve" smooth="yes"/>
			<point x="255" y="332"/>
			<point x="278" y="441"/>
			<point x="318" y="517" type="curve"/>
			<point x="306" y="528" type="line"/>
			<point x="147" y="509"/>
			<point x="32" y="384"/>
			<point x="32" y="231" type="curve" smooth="yes"/>
			<point x="32" y="76"/>
			<point x="123" y="-14"/>
		</contour>
	</outline>
	<anchor name="bottom" x="448" y="-45"/>
	<anchor name="top" x="439" y="550"/>
</glyph>
<glyph name="KoppaArchaic" format="2">
	<unicode hex="03D8"/>
	<advance width="792"/>
	<outline>
		<contour>
			<point x="360" y="-220" type="line"/>
			<point x="469" y="-201" type="line"/>
			<point x="464" y="-137"/>
			<point x="459" y="-74"/>
			<point x="454" y="-10" type="curve"/>
			<point x="646" y="15"/>
			<point x="760" y="161"/>
			<point x="760" y="383" type="curve" smooth="yes"/>
			<point x="760" y="606"/>
			<point x="626" y="744"/>
			<point x="409" y="744" type="curve" smooth="yes"/>
			<point x="169" y="744"/>
			<point x="32" y="602"/>
			<point x="32" y="352" type="curve" smooth="yes"/>
			<point x="32" y="138"/>
			<point x="153" y="1"/>
			<point x="356" y="-13" type="curve"/>
			<point x="351" y="-78"/>
			<point x="347" y="-144"/>
			<point x="342" y="-209" type="curve"/>
		</contour>
		<contour>
			<point x="455" y="16" type="curve"/>
			<point x="460" y="80"/>
			<point x="464" y="145"/>
			<point x="469" y="209" type="curve"/>
			<point x="451" y="220" type="line"/>
			<point x="342" y="201" type="line"/>
			<point x="346" y="141"/>
			<point x="351" y="80"/>
			<point x="355" y="20" type="curve"/>
			<point x="302" y="60"/>
			<point x="277" y="174"/>
			<point x="277" y="377" type="curve" smooth="yes"/>
			<point x="277" y="631"/>
			<point x="308" y="727"/>
			<point x="390" y="727" type="curve" smooth="yes"/>
			<point x="481" y="727"/>
			<point x="515" y="625"/>
			<point x="515" y="355" type="curve" smooth="yes"/>
			<point x="515" y="142"/>
			<point x="498" y="47"/>
		</contour>
	</outline>
</glyph>
<glyph name="koppaArchaic" format="2">
	<unicode hex="03D9"/>
	<advance width="671"/>
	<outline>
		<contour>
			<point x="292" y="-161" type="line"/>
			<point x="393" y="-151" type="line"/>
			<point x="387" y="-89"/>
			<point x="383" y="-43"/>
			<point x="379" y="-11" type="curve"/>
			<point x="545" y="6"/>
			<point x="644" y="112"/>
			<point x="644" y="273" type="curve" smooth="yes"/>
			<point x="644" y="443"/>
			<point x="538" y="537"/>
			<point x="347" y="537" type="curve" smooth="yes"/>
			<point x="145" y="537"/>
			<point x="27" y="430"/>
			<point x="27" y="247" type="curve" smooth="yes"/>
			<point x="27" y="86"/>
			<point x="124" y="-6"/>
			<point x="301" y="-13" type="curve"/>
			<point x="295" y="-49"/>
			<point x="291" y="-83"/>
			<point x="281" y="-150" type="curve"/>
		</contour>
		<contour>
			<point x="383" y="26" type="curve"/>
			<point x="387" y="61"/>
			<point x="391" y="106"/>
			<point x="399" y="161" type="curve"/>
			<point x="388" y="172" type="line"/>
			<point x="287" y="162" type="line"/>
			<point x="291" y="118"/>
			<point x="295" y="74"/>
			<point x="299" y="30" type="curve"/>
			<point x="274" y="67"/>
			<point x="262" y="148"/>
			<point x="262" y="280" type="curve" smooth="yes"/>
			<point x="262" y="458"/>
			<point x="279" y="520"/>
			<point x="328" y="520" type="curve" smooth="yes"/>
			<point x="390" y="520"/>
			<point x="409" y="458"/>
			<point x="409" y="256" type="curve" smooth="yes"/>
			<point x="409" y="122"/>
			<point x="402" y="58"/>
		</contour>
	</outline>
</glyph>
<glyph name="Stigma" format="2">
	<unicode hex="03DA"/>
	<advance width="651"/>
	<outline>
		<contour>
			<point x="474" y="-209" type="line"/>
			<point x="563" y="-119"/>
			<point x="602" y="-41"/>
			<point x="602" y="46" type="curve" smooth="yes"/>
			<point x="602" y="144"/>
			<point x="546" y="203"/>
			<point x="434" y="225" type="curve" smooth="yes"/>
			<point x="322" y="247"/>
			<point x="279" y="315"/>
			<point x="279" y="471" type="curve" smooth="yes"/>
			<point x="279" y="641"/>
			<point x="322" y="728"/>
			<point x="407" y="728" type="curve" smooth="yes"/>
			<point x="437" y="728"/>
			<point x="473" y="713"/>
			<point x="498" y="690" type="curve"/>
			<point x="450" y="616"/>
			<point x="432" y="575"/>
			<point x="432" y="541" type="curve" smooth="yes"/>
			<point x="432" y="499"/>
			<point x="469" y="471"/>
			<point x="524" y="471" type="curve" smooth="yes"/>
			<point x="583" y="471"/>
			<point x="630" y="516"/>
			<point x="630" y="571" type="curve" smooth="yes"/>
			<point x="630" y="670"/>
			<point x="527" y="744"/>
			<point x="391" y="744" type="curve" smooth="yes"/>
			<point x="185" y="744"/>
			<point x="32" y="586"/>
			<point x="32" y="372" type="curve" smooth="yes"/>
			<point x="32" y="179"/>
			<point x="134" y="69"/>
			<point x="351" y="28" type="curve" smooth="yes"/>
			<point x="447" y="10"/>
			<point x="491" y="-26"/>
			<point x="491" y="-86" type="curve" smooth="yes"/>
			<point x="491" y="-132"/>
			<point x="485" y="-158"/>
			<point x="464" y="-199" type="curve"/>
		</contour>
	</outline>
</glyph>
<glyph name="stigma" format="2">
	<unicode hex="03DB"/>
	<advance width="570"/>
	<outline>
		<contour>
			<point x="314" y="-229" type="line"/>
			<point x="431" y="-166"/>
			<point x="503" y="-73"/>
			<point x="503" y="16" type="curve" smooth="yes"/>
			<point x="503" y="97"/>
			<point x="461" y="143"/>
			<point x="351" y="182" type="curve" smooth="yes"/>
			<point x="240" y="221"/>
			<point x="214" y="242"/>
			<point x="214" y="295" type="curve" smooth="yes"/>
			<point x="214" y="361"/>
			<point x="272" y="391"/>
			<point x="399" y="390" type="curve" smooth="yes"/>
			<point x="499" y="389"/>
			<point x="555" y="429"/>
			<point x="555" y="501" type="curve" smooth="yes"/>
			<point x="555" y="554"/>
			<point x="518" y="598"/>
			<point x="455" y="621" type="curve"/>
			<point x="447" y="616" type="line"/>
			<point x="451" y="609"/>
			<point x="455" y="593"/>
			<point x="455" y="583" type="curve" smooth="yes"/>
			<point x="455" y="553"/>
			<point x="449" y="551"/>
			<point x="353" y="549" type="curve" smooth="yes"/>
			<point x="148" y="545"/>
			<point x="26" y="438"/>
			<point x="27" y="265" type="curve" smooth="yes"/>
			<point x="28" y="125"/>
			<point x="94" y="39"/>
			<point x="237" y="-5" type="curve" smooth="yes"/>
			<point x="314" y="-29"/>
			<point x="344" y="-60"/>
			<point x="344" y="-115" type="curve" smooth="yes"/>
			<point x="344" y="-149"/>
			<point x="328" y="-191"/>
			<point x="304" y="-219" type="curve"/>
		</contour>
	</outline>
</glyph>
<glyph name="Koppa" format="2">
	<unicode hex="03DE"/>
	<advance width="592"/>
	<outline>
		<contour>
			<point x="367" y="-173" type="curve" smooth="yes"/>
			<point x="419" y="-173"/>
			<point x="473" y="-148"/>
			<point x="500" y="-112" type="curve"/>
			<point x="496" y="-105" type="line"/>
			<point x="485" y="-109"/>
			<point x="476" y="-111"/>
			<point x="465" y="-111" type="curve" smooth="yes"/>
			<point x="440" y="-111"/>
			<point x="425" y="-93"/>
			<point x="425" y="-63" type="curve" smooth="yes"/>
			<point x="425" y="-9"/>
			<point x="447" y="42"/>
			<point x="544" y="205" type="curve" smooth="yes"/>
			<point x="567" y="244" type="line"/>
			<point x="484" y="376" type="line"/>
			<point x="177" y="190" type="line"/>
			<point x="381" y="446"/>
			<point x="395" y="468"/>
			<point x="395" y="531" type="curve" smooth="yes"/>
			<point x="395" y="590"/>
			<point x="346" y="630"/>
			<point x="275" y="630" type="curve" smooth="yes"/>
			<point x="223" y="630"/>
			<point x="169" y="605"/>
			<point x="142" y="569" type="curve"/>
			<point x="146" y="562" type="line"/>
			<point x="157" y="566"/>
			<point x="166" y="568"/>
			<point x="177" y="568" type="curve" smooth="yes"/>
			<point x="202" y="568"/>
			<point x="217" y="550"/>
			<point x="217" y="520" type="curve" smooth="yes"/>
			<point x="217" y="472"/>
			<point x="190" y="413"/>
			<point x="83" y="226" type="curve" smooth="yes"/>
			<point x="40" y="151" type="line"/>
			<point x="73" y="107" type="line"/>
			<point x="406" y="193" type="line"/>
			<point x="267" y="19"/>
			<point x="247" y="-16"/>
			<point x="247" y="-74" type="curve" smooth="yes"/>
			<point x="247" y="-133"/>
			<point x="296" y="-173"/>
		</contour>
	</outline>
</glyph>
<glyph name="koppa" format="2">
	<unicode hex="03DF"/>
	<advance width="600"/>
	<outline>
		<contour>
			<point x="398" y="-87" type="curve" smooth="yes"/>
			<point x="463" y="-87"/>
			<point x="517" y="-59"/>
			<point x="549" y="-8" type="curve"/>
			<point x="546" y="1" type="line"/>
			<point x="528" y="-5"/>
			<point x="512" y="-8"/>
			<point x="497" y="-8" type="curve" smooth="yes"/>
			<point x="463" y="-8"/>
			<point x="443" y="10"/>
			<point x="443" y="39" type="curve" smooth="yes"/>
			<point x="443" y="65"/>
			<point x="453" y="90"/>
			<point x="482" y="130" type="curve" smooth="yes"/>
			<point x="604" y="306" type="line"/>
			<point x="604" y="321" type="line"/>
			<point x="331" y="320" type="line"/>
			<point x="372" y="363" type="line" smooth="yes"/>
			<point x="438" y="432"/>
			<point x="455" y="461"/>
			<point x="455" y="505" type="curve" smooth="yes"/>
			<point x="455" y="570"/>
			<point x="409" y="611"/>
			<point x="336" y="611" type="curve" smooth="yes"/>
			<point x="271" y="611"/>
			<point x="217" y="583"/>
			<point x="185" y="532" type="curve"/>
			<point x="188" y="523" type="line"/>
			<point x="206" y="529"/>
			<point x="222" y="532"/>
			<point x="237" y="532" type="curve" smooth="yes"/>
			<point x="271" y="532"/>
			<point x="291" y="514"/>
			<point x="291" y="485" type="curve" smooth="yes"/>
			<point x="291" y="459"/>
			<point x="281" y="434"/>
			<point x="252" y="394" type="curve" smooth="yes"/>
			<point x="130" y="218" type="line"/>
			<point x="130" y="203" type="line"/>
			<point x="402" y="203" type="line"/>
			<point x="361" y="161" type="line" smooth="yes"/>
			<point x="296" y="92"/>
			<point x="279" y="62"/>
			<point x="279" y="19" type="curve" smooth="yes"/>
			<point x="279" y="-46"/>
			<point x="325" y="-87"/>
		</contour>
	</outline>
</glyph>
<glyph name="Sampi" format="2">
	<unicode hex="03E0"/>
	<advance width="783"/>
	<outline>
		<contour>
			<point x="273" y="-203" type="line"/>
			<point x="307" y="-181" type="line"/>
			<point x="289" y="-148" type="line" smooth="yes"/>
			<point x="282" y="-135"/>
			<point x="285" y="-129"/>
			<point x="303" y="-114" type="curve" smooth="yes"/>
			<point x="603" y="115" type="line"/>
			<point x="608" y="82"/>
			<point x="610" y="43"/>
			<point x="610" y="-5" type="curve" smooth="yes"/>
			<point x="610" y="-62"/>
			<point x="607" y="-117"/>
			<point x="600" y="-170" type="curve"/>
			<point x="737" y="-172" type="line"/>
			<point x="747" y="-85"/>
			<point x="751" y="-18"/>
			<point x="751" y="40" type="curve" smooth="yes"/>
			<point x="751" y="379"/>
			<point x="568" y="537"/>
			<point x="182" y="532" type="curve"/>
			<point x="181" y="494" type="line"/>
			<point x="287" y="487"/>
			<point x="377" y="460"/>
			<point x="443" y="415" type="curve"/>
			<point x="117" y="163" type="line" smooth="yes"/>
			<point x="97" y="147"/>
			<point x="92" y="147"/>
			<point x="75" y="164" type="curve" smooth="yes"/>
			<point x="57" y="182" type="line"/>
			<point x="25" y="162" type="line"/>
			<point x="145" y="-14" type="line"/>
			<point x="179" y="8" type="line"/>
			<point x="161" y="41" type="line" smooth="yes"/>
			<point x="155" y="51"/>
			<point x="159" y="62"/>
			<point x="175" y="75" type="curve" smooth="yes"/>
			<point x="521" y="339" type="line"/>
			<point x="545" y="308"/>
			<point x="563" y="272"/>
			<point x="577" y="230" type="curve"/>
			<point x="245" y="-26" type="line" smooth="yes"/>
			<point x="225" y="-42"/>
			<point x="220" y="-42"/>
			<point x="203" y="-25" type="curve" smooth="yes"/>
			<point x="185" y="-7" type="line"/>
			<point x="153" y="-27" type="line"/>
		</contour>
	</outline>
</glyph>
<glyph name="sampi" format="2">
	<unicode hex="03E1"/>
	<advance width="600"/>
	<outline>
		<contour>
			<point x="176" y="566" type="curve"/>
			<point x="164" y="519" type="line"/>
			<point x="279" y="491"/>
			<point x="366" y="416"/>
			<point x="416" y="310" type="curve"/>
			<point x="149" y="210" type="line" smooth="yes"/>
			<point x="130" y="203"/>
			<point x="126" y="203"/>
			<point x="116" y="213" type="curve" smooth="yes"/>
			<point x="108" y="221" type="line"/>
			<point x="87" y="214" type="line"/>
			<point x="145" y="66" type="line"/>
			<point x="165" y="74" type="line"/>
			<point x="164" y="87" type="line" smooth="yes"/>
			<point x="163" y="103"/>
			<point x="166" y="106"/>
			<point x="189" y="115" type="curve" smooth="yes"/>
			<point x="449" y="212" type="line"/>
			<point x="454" y="190"/>
			<point x="458" y="166"/>
			<point x="460" y="142" type="curve"/>
			<point x="210" y="48" type="line" smooth="yes"/>
			<point x="191" y="41"/>
			<point x="187" y="41"/>
			<point x="177" y="51" type="curve" smooth="yes"/>
			<point x="169" y="59" type="line"/>
			<point x="148" y="52" type="line"/>
			<point x="206" y="-96" type="line"/>
			<point x="226" y="-88" type="line"/>
			<point x="225" y="-75" type="line" smooth="yes"/>
			<point x="224" y="-59"/>
			<point x="227" y="-56"/>
			<point x="250" y="-47" type="curve" smooth="yes"/>
			<point x="460" y="31" type="line"/>
			<point x="453" y="-43"/>
			<point x="430" y="-137"/>
			<point x="398" y="-226" type="curve"/>
			<point x="537" y="-256" type="line"/>
			<point x="578" y="-159"/>
			<point x="605" y="-36"/>
			<point x="605" y="59" type="curve" smooth="yes"/>
			<point x="605" y="347"/>
			<point x="474" y="502"/>
		</contour>
	</outline>
</glyph>
<glyph name="Dje-cy" format="2">
	<unicode hex="0402"/>
	<advance width="965"/>
	<outline>
		<contour>
			<point x="600" y="-109" type="line"/>
			<point x="809" y="-22"/>
			<point x="935" y="104"/>
			<point x="935" y="276" type="curve" smooth="yes"/>
			<point x="935" y="399"/>
			<point x="848" y="466"/>
			<point x="717" y="466" type="curve" smooth="yes"/>
			<point x="627" y="466"/>
			<point x="546" y="436"/>
			<point x="489" y="392" type="curve"/>
			<point x="489" y="714" type="line"/>
			<point x="537" y="714" type="line" smooth="yes"/>
			<point x="639" y="714"/>
			<point x="700" y="672"/>
			<point x="741" y="552" type="curve"/>
			<point x="754" y="557" type="line"/>
			<point x="735" y="730" type="line"/>
			<point x="46" y="730" type="line"/>
			<point x="25" y="511" type="line"/>
			<point x="38" y="506" type="line"/>
			<point x="79" y="655"/>
			<point x="136" y="714"/>
			<point x="223" y="714" type="curve" smooth="yes"/>
			<point x="255" y="714" type="line"/>
			<point x="255" y="63" type="line" smooth="yes"/>
			<point x="255" y="26"/>
			<point x="249" y="15"/>
			<point x="224" y="14" type="curve" smooth="yes"/>
			<point x="190" y="12" type="line"/>
			<point x="190" y="0" type="line"/>
			<point x="549" y="0" type="line"/>
			<point x="549" y="12" type="line"/>
			<point x="522" y="13" type="line" smooth="yes"/>
			<point x="493" y="14"/>
			<point x="489" y="28"/>
			<point x="489" y="57" type="curve" smooth="yes"/>
			<point x="489" y="372" type="line"/>
			<point x="523" y="398"/>
			<point x="557" y="417"/>
			<point x="604" y="417" type="curve" smooth="yes"/>
			<point x="669" y="417"/>
			<point x="710" y="361"/>
			<point x="710" y="261" type="curve" smooth="yes"/>
			<point x="710" y="151"/>
			<point x="686" y="36"/>
			<point x="595" y="-100" type="curve"/>
		</contour>
	</outline>
</glyph>
<glyph name="Lje-cy" format="2">
	<unicode hex="0409"/>
	<advance width="1072"/>
	<outline>
		<contour>
			<point x="92" y="-16" type="curve" smooth="yes"/>
			<point x="151" y="-16"/>
			<point x="242" y="46"/>
			<point x="276" y="459" type="curve" smooth="yes"/>
			<point x="281" y="520"/>
			<point x="285" y="606"/>
			<point x="285" y="714" type="curve"/>
			<point x="465" y="714" type="line"/>
			<point x="465" y="70" type="line" smooth="yes"/>
			<point x="465" y="26"/>
			<point x="459" y="15"/>
			<point x="434" y="14" type="curve" smooth="yes"/>
			<point x="400" y="12" type="line"/>
			<point x="400" y="0" type="line"/>
			<point x="755" y="0" type="line" smooth="yes"/>
			<point x="931" y="0"/>
			<point x="1047" y="85"/>
			<point x="1047" y="223" type="curve" smooth="yes"/>
			<point x="1047" y="356"/>
			<point x="937" y="430"/>
			<point x="759" y="430" type="curve" smooth="yes"/>
			<point x="739" y="430"/>
			<point x="716" y="429"/>
			<point x="699" y="427" type="curve"/>
			<point x="699" y="667" type="line" smooth="yes"/>
			<point x="699" y="703"/>
			<point x="707" y="716"/>
			<point x="731" y="717" type="curve" smooth="yes"/>
			<point x="759" y="718" type="line"/>
			<point x="759" y="730" type="line"/>
			<point x="194" y="730" type="line"/>
			<point x="194" y="718" type="line"/>
			<point x="230" y="712" type="line" smooth="yes"/>
			<point x="259" y="707"/>
			<point x="266" y="694"/>
			<point x="266" y="663" type="curve" smooth="yes"/>
			<point x="266" y="410"/>
			<point x="223" y="146"/>
			<point x="185" y="114" type="curve"/>
			<point x="160" y="153"/>
			<point x="129" y="187"/>
			<point x="83" y="187" type="curve" smooth="yes"/>
			<point x="30" y="187"/>
			<point x="0" y="138"/>
			<point x="0" y="82" type="curve" smooth="yes"/>
			<point x="0" y="27"/>
			<point x="36" y="-16"/>
		</contour>
		<contour>
			<point x="699" y="22" type="curve"/>
			<point x="699" y="409" type="line"/>
			<point x="708" y="411"/>
			<point x="718" y="411"/>
			<point x="728" y="411" type="curve" smooth="yes"/>
			<point x="772" y="411"/>
			<point x="801" y="362"/>
			<point x="801" y="226" type="curve" smooth="yes"/>
			<point x="801" y="77"/>
			<point x="782" y="18"/>
			<point x="734" y="18" type="curve" smooth="yes"/>
			<point x="721" y="18"/>
			<point x="711" y="19"/>
		</contour>
	</outline>
</glyph>
<glyph name="Nje-cy" format="2">
	<unicode hex="040A"/>
	<advance width="1110"/>
	<outline>
		<contour>
			<point x="37" y="0" type="line"/>
			<point x="396" y="0" type="line"/>
			<point x="396" y="12" type="line"/>
			<point x="370" y="14" type="line" smooth="yes"/>
			<point x="344" y="16"/>
			<point x="336" y="24"/>
			<point x="336" y="66" type="curve" smooth="yes"/>
			<point x="336" y="365" type="line"/>
			<point x="520" y="365" type="line"/>
			<point x="520" y="70" type="line" smooth="yes"/>
			<point x="520" y="26"/>
			<point x="514" y="15"/>
			<point x="489" y="14" type="curve" smooth="yes"/>
			<point x="455" y="12" type="line"/>
			<point x="455" y="0" type="line"/>
			<point x="800" y="0" type="line" smooth="yes"/>
			<point x="976" y="0"/>
			<point x="1085" y="93"/>
			<point x="1085" y="231" type="curve" smooth="yes"/>
			<point x="1085" y="374"/>
			<point x="993" y="430"/>
			<point x="804" y="430" type="curve" smooth="yes"/>
			<point x="784" y="430"/>
			<point x="771" y="429"/>
			<point x="754" y="427" type="curve"/>
			<point x="754" y="667" type="line" smooth="yes"/>
			<point x="754" y="703"/>
			<point x="762" y="716"/>
			<point x="786" y="717" type="curve" smooth="yes"/>
			<point x="814" y="718" type="line"/>
			<point x="814" y="730" type="line"/>
			<point x="455" y="730" type="line"/>
			<point x="455" y="718" type="line"/>
			<point x="484" y="717" type="line" smooth="yes"/>
			<point x="514" y="716"/>
			<point x="520" y="707"/>
			<point x="520" y="673" type="curve" smooth="yes"/>
			<point x="520" y="382" type="line"/>
			<point x="336" y="382" type="line"/>
			<point x="336" y="667" type="line" smooth="yes"/>
			<point x="336" y="703"/>
			<point x="344" y="716"/>
			<point x="368" y="717" type="curve" smooth="yes"/>
			<point x="396" y="718" type="line"/>
			<point x="396" y="730" type="line"/>
			<point x="37" y="730" type="line"/>
			<point x="37" y="718" type="line"/>
			<point x="66" y="717" type="line" smooth="yes"/>
			<point x="96" y="716"/>
			<point x="102" y="707"/>
			<point x="102" y="673" type="curve" smooth="yes"/>
			<point x="102" y="70" type="line" smooth="yes"/>
			<point x="102" y="26"/>
			<point x="96" y="15"/>
			<point x="71" y="14" type="curve" smooth="yes"/>
			<point x="37" y="12" type="line"/>
		</contour>
		<contour>
			<point x="754" y="22" type="curve"/>
			<point x="754" y="409" type="line"/>
			<point x="763" y="411"/>
			<point x="765" y="411"/>
			<point x="772" y="411" type="curve" smooth="yes"/>
			<point x="811" y="411"/>
			<point x="839" y="341"/>
			<point x="839" y="230" type="curve" smooth="yes"/>
			<point x="839" y="82"/>
			<point x="814" y="18"/>
			<point x="778" y="18" type="curve" smooth="yes"/>
			<point x="769" y="18"/>
			<point x="763" y="19"/>
		</contour>
	</outline>
</glyph>
<glyph name="Be-cy" format="2">
	<unicode hex="0411"/>
	<advance width="733"/>
	<outline>
		<contour>
			<point x="37" y="0" type="line"/>
			<point x="392" y="0" type="line" smooth="yes"/>
			<point x="568" y="0"/>
			<point x="698" y="86"/>
			<point x="698" y="229" type="curve" smooth="yes"/>
			<point x="698" y="368"/>
			<point x="575" y="430"/>
			<point x="396" y="430" type="curve" smooth="yes"/>
			<point x="376" y="430"/>
			<point x="353" y="429"/>
			<point x="336" y="427" type="curve"/>
			<point x="336" y="714" type="line"/>
			<point x="384" y="714" type="line" smooth="yes"/>
			<point x="499" y="714"/>
			<point x="567" y="704"/>
			<point x="619" y="531" type="curve"/>
			<point x="634" y="535" type="line"/>
			<point x="616" y="730" type="line"/>
			<point x="37" y="730" type="line"/>
			<point x="37" y="718" type="line"/>
			<point x="66" y="717" type="line" smooth="yes"/>
			<point x="96" y="716"/>
			<point x="102" y="707"/>
			<point x="102" y="673" type="curve" smooth="yes"/>
			<point x="102" y="70" type="line" smooth="yes"/>
			<point x="102" y="26"/>
			<point x="96" y="15"/>
			<point x="71" y="14" type="curve" smooth="yes"/>
			<point x="37" y="12" type="line"/>
		</contour>
		<contour>
			<point x="371" y="18" type="curve" smooth="yes"/>
			<point x="358" y="18"/>
			<point x="348" y="19"/>
			<point x="336" y="22" type="curve"/>
			<point x="336" y="409" type="line"/>
			<point x="345" y="411"/>
			<point x="355" y="411"/>
			<point x="365" y="411" type="curve" smooth="yes"/>
			<point x="414" y="411"/>
			<point x="452" y="364"/>
			<point x="452" y="230" type="curve" smooth="yes"/>
			<point x="452" y="89"/>
			<point x="423" y="18"/>
		</contour>
	</outline>
</glyph>
<glyph name="Ge-cy" format="2">
	<unicode hex="0413"/>
	<advance width="622"/>
	<outline>
		<contour>
			<point x="37" y="0" type="line"/>
			<point x="421" y="0" type="line"/>
			<point x="421" y="12" type="line"/>
			<point x="379" y="14" type="line" smooth="yes"/>
			<point x="339" y="16"/>
			<point x="336" y="29"/>
			<point x="336" y="66" type="curve"/>
			<point x="336" y="714" type="line"/>
			<point x="393" y="714" type="line" smooth="yes"/>
			<point x="488" y="714"/>
			<point x="525" y="684"/>
			<point x="587" y="511" type="curve"/>
			<point x="602" y="515" type="line"/>
			<point x="573" y="730" type="line"/>
			<point x="37" y="730" type="line"/>
			<point x="37" y="718" type="line"/>
			<point x="66" y="717" type="line" smooth="yes"/>
			<point x="96" y="716"/>
			<point x="102" y="707"/>
			<point x="102" y="673" type="curve" smooth="yes"/>
			<point x="102" y="70" type="line" smooth="yes"/>
			<point x="102" y="26"/>
			<point x="96" y="15"/>
			<point x="71" y="14" type="curve" smooth="yes"/>
			<point x="37" y="12" type="line"/>
		</contour>
	</outline>
	<anchor name="top" x="339" y="730"/>
</glyph>
<glyph name="De-cy" format="2">
	<unicode hex="0414"/>
	<advance width="763"/>
	<outline>
		<contour>
			<point x="10" y="-169" type="line"/>
			<point x="25" y="-169" type="line"/>
			<point x="38" y="-107" type="line" smooth="yes"/>
			<point x="58" y="-13"/>
			<point x="103" y="0"/>
			<point x="224" y="0" type="curve" smooth="yes"/>
			<point x="519" y="0" type="line" smooth="yes"/>
			<point x="640" y="0"/>
			<point x="685" y="-13"/>
			<point x="705" y="-107" type="curve" smooth="yes"/>
			<point x="718" y="-169" type="line"/>
			<point x="733" y="-169" type="line"/>
			<point x="733" y="19" type="line"/>
			<point x="640" y="19" type="line"/>
			<point x="640" y="667" type="line" smooth="yes"/>
			<point x="640" y="704"/>
			<point x="646" y="715"/>
			<point x="671" y="716" type="curve" smooth="yes"/>
			<point x="705" y="718" type="line"/>
			<point x="705" y="730" type="line"/>
			<point x="135" y="730" type="line"/>
			<point x="135" y="718" type="line"/>
			<point x="171" y="710" type="line" smooth="yes"/>
			<point x="197" y="704"/>
			<point x="207" y="684"/>
			<point x="207" y="653" type="curve" smooth="yes"/>
			<point x="207" y="415"/>
			<point x="175" y="149"/>
			<point x="82" y="19" type="curve"/>
			<point x="10" y="19" type="line"/>
		</contour>
		<contour>
			<point x="110" y="19" type="line"/>
			<point x="154" y="94"/>
			<point x="199" y="202"/>
			<point x="221" y="459" type="curve" smooth="yes"/>
			<point x="226" y="520"/>
			<point x="230" y="604"/>
			<point x="230" y="712" type="curve"/>
			<point x="406" y="712" type="line"/>
			<point x="406" y="19" type="line"/>
		</contour>
	</outline>
</glyph>
<glyph name="Ze-cy" format="2">
	<unicode hex="0417"/>
	<advance width="650"/>
	<outline>
		<contour>
			<point x="316" y="-14" type="curve" smooth="yes"/>
			<point x="520" y="-14"/>
			<point x="625" y="78"/>
			<point x="625" y="205" type="curve" smooth="yes"/>
			<point x="625" y="329"/>
			<point x="505" y="377"/>
			<point x="364" y="382" type="curve"/>
			<point x="364" y="387" type="line"/>
			<point x="505" y="400"/>
			<point x="605" y="479"/>
			<point x="605" y="577" type="curve" smooth="yes"/>
			<point x="605" y="700"/>
			<point x="470" y="744"/>
			<point x="339" y="744" type="curve" smooth="yes"/>
			<point x="218" y="744"/>
			<point x="153" y="704"/>
			<point x="118" y="664" type="curve"/>
			<point x="83" y="740" type="line"/>
			<point x="68" y="740" type="line"/>
			<point x="94" y="488" type="line"/>
			<point x="112" y="488" type="line"/>
			<point x="112" y="645"/>
			<point x="177" y="716"/>
			<point x="253" y="716" type="curve" smooth="yes"/>
			<point x="322" y="716"/>
			<point x="366" y="664"/>
			<point x="366" y="555" type="curve" smooth="yes"/>
			<point x="366" y="432"/>
			<point x="326" y="386"/>
			<point x="249" y="386" type="curve" smooth="yes"/>
			<point x="126" y="386" type="line"/>
			<point x="126" y="369" type="line"/>
			<point x="240" y="369" type="line" smooth="yes"/>
			<point x="330" y="369"/>
			<point x="380" y="321"/>
			<point x="380" y="212" type="curve" smooth="yes"/>
			<point x="380" y="75"/>
			<point x="297" y="28"/>
			<point x="226" y="28" type="curve" smooth="yes"/>
			<point x="139" y="28"/>
			<point x="57" y="84"/>
			<point x="47" y="197" type="curve"/>
			<point x="30" y="194" type="line"/>
			<point x="41" y="59"/>
			<point x="139" y="-14"/>
		</contour>
	</outline>
</glyph>
